<svg width="5540" height="4549" viewBox="0 0 5540 4549" fill="none" xmlns="http://www.w3.org/2000/svg">
<rect x="1864" width="24" height="1448" fill="#4F4F4F"/>
<rect x="1864" width="24" height="1448" stroke="black"/>
<ellipse cx="1876" cy="1676" rx="65" ry="64" fill="#F3A826"/>
<path d="M1541 1548C1541 1492.77 1585.77 1448 1641 1448H2136C2191.23 1448 2236 1492.77 2236 1548V1696H1541V1548Z" fill="#D3844A"/>
<path d="M1769 1426C1769 1398.39 1791.39 1376 1819 1376H1933C1960.61 1376 1983 1398.39 1983 1426V1448H1769V1426Z" fill="#E7D4BA"/>
<path d="M3670.31 3792.17C3675.66 3798.66 3678.72 3807.2 3681.42 3815.27C3695.06 3855.99 3708.62 3890.19 3714.37 3933.06C3720.39 3978.04 3724.56 4023.25 3726.86 4068.55C3728.89 4108.51 3728.78 4151.36 3708.36 4184.86C3679.11 4232.85 3619.06 4245.21 3565.66 4246.81C3484.06 4249.25 3402.09 4236.61 3324.43 4209.63C3311.63 4205.16 3305.69 4006.3 3303.58 3983.46C3299.17 3935.74 3272.71 3846.84 3310.9 3808.67C3347.34 3772.25 3427.91 3797.3 3471.64 3797.86C3527.54 3798.58 3582.25 3795.92 3635.46 3782.75C3644.63 3780.47 3654.9 3780.81 3662.92 3785.68C3665.8 3787.44 3668.23 3789.65 3670.31 3792.17" fill="#D4A747"/>
<path d="M3617.76 3902.96C3648.63 3902.15 3685.68 3895.97 3698.02 3865.23C3706.2 3844.84 3699.26 3820.09 3685.53 3803.59C3671.8 3787.09 3652.46 3777.47 3633.1 3770.24C3568.73 3746.19 3506.59 3751.16 3440.42 3759.7C3405.44 3764.21 3338.72 3760.18 3315.01 3795.77C3233.71 3917.82 3571.81 3904.15 3617.76 3902.96" fill="#2C2A2A"/>
<path d="M3323.16 3978.02C3332.52 3964.66 3341.88 3951.3 3351.24 3937.94C3344.1 3939.19 3336.96 3940.42 3329.83 3941.67C3348.77 3958.8 3367.72 3975.94 3386.68 3993.08C3392.86 3998.67 3406.76 3995.9 3408.78 3987.35C3440.44 3958.92 3460.49 3958.36 3468.95 3985.67C3471.89 3993.14 3485.78 3991.05 3489.91 3985.64C3499.92 3972.53 3509.93 3959.42 3519.95 3946.31C3513.27 3946.91 3506.59 3947.52 3499.92 3948.12C3511.14 3961.73 3522.36 3975.35 3533.58 3988.95C3538.34 3994.73 3552.15 3991.78 3555 3985.23C3558.9 3967.05 3570.67 3962.21 3590.3 3970.72C3609.96 3964.12 3621.84 3969.73 3625.92 3987.51C3629.55 3996.06 3644.58 3992.1 3648.28 3985.57C3656.34 3971.31 3664.41 3957.05 3672.47 3942.8C3665.33 3944.04 3658.19 3945.28 3651.05 3946.52C3660.15 3959.41 3669.25 3972.28 3678.36 3985.16C3683.08 3991.85 3696.4 3987.1 3699.77 3981.44C3705.4 3972 3711.01 3962.58 3716.63 3953.15C3722.81 3942.77 3699.6 3943.12 3694.85 3951.07C3689.23 3960.51 3683.61 3969.94 3677.98 3979.36C3685.13 3978.12 3692.26 3976.89 3699.4 3975.64C3690.3 3962.76 3681.2 3949.88 3672.1 3937C3667.44 3930.4 3653.95 3934.96 3650.68 3940.73C3642.62 3954.99 3634.56 3969.25 3626.49 3983.51C3633.94 3982.86 3641.39 3982.22 3648.84 3981.57C3626.68 3929.33 3555.29 3932.24 3533.21 3983.15C3540.35 3981.91 3547.49 3980.67 3554.62 3979.42C3543.41 3965.82 3532.19 3952.21 3520.97 3938.6C3516.58 3933.27 3504.77 3935.41 3500.95 3940.42C3490.93 3953.53 3480.92 3966.64 3470.91 3979.75C3477.9 3979.74 3484.88 3979.74 3491.87 3979.72C3471.14 3927.01 3398.04 3936.62 3385.63 3989.28C3392.99 3987.37 3400.36 3985.46 3407.72 3983.55C3388.77 3966.41 3369.82 3949.28 3350.87 3932.14C3344.6 3926.47 3333.92 3929.49 3329.46 3935.87C3320.1 3949.23 3310.74 3962.59 3301.38 3975.95C3294.6 3985.63 3317.9 3985.53 3323.16 3978.02" fill="white"/>
<path d="M3323.97 4106.9C3344.91 4087.7 3361.43 4066.78 3374.81 4042.02C3367.31 4042.49 3359.82 4042.97 3352.32 4043.44C3365.33 4071.08 3383.06 4092.93 3408.08 4111.2C3413.83 4115.4 3422.08 4112.67 3426.54 4108.19C3446.98 4087.61 3467.43 4067.03 3487.88 4046.45C3481.16 4046.9 3474.45 4047.35 3467.72 4047.81C3484.25 4067.18 3500.77 4086.56 3517.28 4105.93C3523.23 4112.91 3534.57 4109.15 3538.77 4102.45C3552.66 4080.3 3566.55 4058.15 3580.43 4036C3573.27 4037.16 3566.1 4038.32 3558.94 4039.48C3577.83 4059.98 3596.71 4080.47 3615.59 4100.97C3621.41 4107.29 3633.3 4104.84 3637.08 4097.49C3646.68 4078.76 3656.29 4060.02 3665.89 4041.3C3658.73 4042.46 3651.57 4043.62 3644.41 4044.77C3656.1 4060.23 3667.79 4075.67 3679.48 4091.11C3683.87 4096.92 3695.75 4095.53 3699.63 4089.76C3708.2 4076.98 3716.76 4064.22 3725.33 4051.45C3733.36 4039.48 3712.11 4034.89 3705.93 4044.1C3697.36 4056.87 3688.79 4069.63 3680.22 4082.4C3686.94 4081.94 3693.66 4081.49 3700.37 4081.04C3688.68 4065.59 3676.99 4050.15 3665.3 4034.7C3660.03 4027.73 3647.32 4031.34 3643.82 4038.18C3634.21 4056.91 3624.61 4075.64 3615 4094.38C3622.16 4093.21 3629.32 4092.05 3636.49 4090.9C3617.6 4070.4 3598.72 4049.91 3579.84 4029.41C3573.66 4022.69 3562.69 4025.98 3558.35 4032.88C3544.47 4055.04 3530.58 4077.19 3516.7 4099.34C3523.86 4098.17 3531.02 4097.02 3538.18 4095.86C3521.66 4076.49 3505.14 4057.11 3488.63 4037.74C3483.3 4031.49 3473.53 4034 3468.47 4039.1C3448.03 4059.68 3427.58 4080.25 3407.13 4100.84C3413.28 4099.83 3419.43 4098.83 3425.59 4097.83C3402.75 4081.14 3387.04 4062.59 3375.24 4037.49C3370.97 4028.44 3356.97 4031.1 3352.74 4038.91C3340.78 4061.02 3327.22 4078.62 3308.49 4095.79C3297.27 4106.09 3315.08 4115.05 3323.97 4106.9" fill="white"/>
<path d="M3348.68 4200.76C3364.44 4180.95 3380.19 4161.14 3395.95 4141.33C3388.98 4141.38 3382 4141.44 3375.03 4141.5C3384.15 4166.44 3397.64 4195.2 3428.92 4196.5C3465.12 4197.99 3483.65 4166.64 3495.22 4138.41C3488.09 4139.67 3480.95 4140.93 3473.81 4142.18C3491.63 4159.81 3509.46 4177.43 3527.28 4195.05C3533.11 4200.82 3544.55 4197.36 3548.68 4191.27C3560.93 4173.19 3573.19 4155.12 3585.45 4137.03C3578.31 4138.3 3571.17 4139.55 3564.04 4140.81C3581.99 4156.82 3599.93 4172.83 3617.88 4188.84C3623.44 4193.81 3632.87 4191.79 3637.88 4186.93C3652.67 4172.57 3663.12 4157.9 3671.58 4139.19C3664.45 4140.44 3657.32 4141.7 3650.18 4142.96C3662.62 4154.46 3671.51 4165.97 3679.39 4180.78C3682.74 4187.09 3695.97 4182.62 3699.38 4178.87C3709.27 4167.99 3719.16 4157.13 3729.05 4146.25C3738.41 4135.96 3716.4 4133.74 3710.12 4140.65C3700.23 4151.51 3690.35 4162.38 3680.46 4173.26C3687.13 4172.63 3693.8 4171.99 3700.47 4171.36C3692.58 4156.55 3683.7 4145.04 3671.26 4133.54C3665.93 4128.62 3653.01 4130.36 3649.86 4137.31C3642.2 4154.26 3632.54 4168.13 3618.95 4181.33C3625.62 4180.7 3632.28 4180.05 3638.95 4179.42C3621.01 4163.41 3603.06 4147.4 3585.12 4131.39C3579.01 4125.94 3568.01 4128.83 3563.72 4135.17C3551.46 4153.24 3539.2 4171.32 3526.95 4189.4C3534.09 4188.14 3541.22 4186.89 3548.35 4185.63C3530.53 4168 3512.71 4150.39 3494.89 4132.77C3489.85 4127.77 3476.33 4129.61 3473.49 4136.54C3465.71 4155.53 3453.31 4194.16 3415.8 4170.4C3405.63 4163.95 3401.73 4145.89 3397.95 4135.55C3395.2 4128.03 3381.05 4130.66 3377.03 4135.72C3361.27 4155.53 3345.51 4175.34 3329.76 4195.15C3321.07 4206.08 3342.83 4208.11 3348.68 4200.76" fill="white"/>
<path d="M3387.26 3209.45C3438.79 3408.71 3490.32 3607.98 3541.85 3807.23C3547.65 3829.66 3548.62 3861.07 3525.74 3867.72C3503.3 3874.23 3486.12 3848.48 3478.32 3827.11C3406.7 3630.73 3389.24 3420.51 3354.35 3215.02C3318 3000.97 3251.4 2819.58 3130.35 2638.01C3232.77 2613.24 3260.66 2780.18 3282.62 2844.1C3323.82 2964.1 3355.56 3086.86 3387.26 3209.45" fill="#426929"/>
<path d="M3909.32 2850.27C3807.19 3012.74 3704.69 3175.9 3627.45 3350.76C3550.2 3525.62 3498.56 3713.87 3503.2 3903.99C3519.34 3901.52 3535.49 3899.05 3551.64 3896.57C3537.66 3803.77 3556.82 3709.45 3580.24 3618.45C3623.85 3449 3682.64 3283.24 3755.55 3123.5C3792.3 3042.99 3832.64 2964.01 3876.43 2886.86C3915.76 2817.57 3957.36 2724.83 4014.71 2669.47C4028.04 2711.26 3932.59 2813.26 3909.32 2850.27" fill="#365523"/>
<path d="M3139.81 3066.71C3191.42 3122.06 3243.63 3178.25 3278.62 3244.67C3310.86 3305.87 3327.28 3373.53 3343.42 3440.42C3377.34 3581.01 3411.25 3721.6 3445.18 3862.17C3430.7 3862.01 3416.24 3861.84 3401.77 3861.68C3431.42 3862.02 3358.48 3509.4 3348.29 3479.12C3306.47 3354.81 3241.87 3237.61 3157.85 3135.2C3131.5 3103.07 3035.2 3034.34 3055.15 2989.74C3087.13 3002.27 3116.44 3041.65 3139.81 3066.71Z" fill="#364527"/>
<path d="M3445.65 3872.56C3452.08 3874.1 3458.51 3875.64 3464.94 3877.18C3436.52 3870.37 3500.52 3480.87 3507.92 3441.04C3535.19 3294.23 3575.2 3149.63 3627.52 3009.32C3649.22 2951.09 3692.72 2884.59 3701.53 2824.07C3619.28 2873.64 3568.03 3026.71 3536.38 3108.38C3476.47 3262.94 3441.62 3426.58 3433.43 3591.47C3428.77 3685.26 3432.74 3779.48 3445.65 3872.56" fill="#364527"/>
<path d="M3068 2810.28C3037.51 2841.81 3007 2873.33 2976.5 2904.86C3022.7 2900.02 3068.9 2895.18 3115.1 2890.33C3057.14 2953.4 2970.88 2984.4 2886.27 3004.88C2881.3 3006.08 2876.23 3007.27 2871.12 3007.06C2861.22 3006.65 2852.45 3001.2 2843.7 2996.72C2789.75 2969.1 2729.93 2977.73 2671.83 2980.13C2698.08 2959.17 2733.95 2953.36 2762.84 2936C2788.76 2920.43 2810.58 2898.79 2835.56 2881.87C2903.37 2835.93 2984.95 2809.56 3068 2810.28Z" fill="#365523"/>
<path d="M3660.9 2899.49C3439.42 3181.2 3393.95 3567.25 3524.88 3894.85C3527.48 3901.38 3548.36 3895.25 3546.01 3889.37C3415.82 3563.63 3460.06 3179.69 3680.43 2899.4C3685.73 2892.64 3664.77 2894.55 3660.9 2899.49" fill="#30451D"/>
<path d="M3587.3 3868.98C3598.15 3867.85 3609 3866.71 3619.84 3865.58C3625.39 3720.93 3679.14 3581.89 3745.22 3452.04C3800.45 3343.52 3893.94 3229.54 3926.62 3113.43C3875.89 3113.78 3831.54 3200.5 3808.37 3236.36C3768.2 3298.55 3734.38 3364.45 3705.85 3432.36C3647.13 3572.15 3610.83 3720.08 3587.3 3868.98Z" fill="#365925"/>
<path d="M3376.11 2749.28C3403.06 2810.64 3406.4 2878.82 3416.07 2944.85C3435.87 3080.09 3483.26 3209.85 3520.68 3341.56C3569.62 3513.8 3601.7 3690.53 3616.36 3868.61C3598.08 3873.58 3580.16 3879.81 3562.79 3887.24C3515.74 3699.08 3483.5 3507.45 3466.47 3314.56C3460.92 3251.85 3456.98 3188.9 3446.49 3126.78C3438.1 3077.07 3425.56 3028.12 3412.65 2979.33C3396.34 2917.69 3379.32 2855.89 3354.65 2796.81C3336.74 2753.9 3279.56 2692.62 3279.46 2648.27C3323.67 2661.32 3358.62 2709.47 3376.11 2749.28Z" fill="#364527"/>
<path d="M3120.62 3257.65C3133.87 3292.85 3145.55 3329.4 3168.45 3359.59C3200.46 3401.81 3251.56 3427.78 3282.72 3470.58C3299.53 3493.67 3309.71 3520.58 3319.19 3547.29C3357.76 3655.94 3387.92 3767.39 3409.34 3880.39C3383.49 3888.46 3367.26 3854.24 3362.18 3828.42C3323.08 3629.59 3207.2 3453.53 3085.68 3288.79C3059.2 3252.9 3032.27 3217.16 3010.23 3178.57C2987.24 3138.33 2969.46 3094.85 2939.85 3058.91C2914.22 3027.8 2871.4 3013.44 2847.38 2986.12C2984.69 2949.95 3085.75 3165.01 3120.62 3257.65" fill="#365523"/>
<path d="M3508.24 2880.34C3434.49 2837.08 3405.76 2734.82 3446.7 2661.36C3493.59 2691.96 3540.48 2722.56 3587.37 2753.16C3559.98 2726.1 3532.59 2699.05 3505.21 2671.99C3481.74 2648.81 3457.75 2624.9 3444.6 2595.05C3431.44 2565.2 3431.39 2527.64 3453.31 2503.09C3511.21 2572.97 3569.1 2642.85 3626.99 2712.73C3594.9 2673.46 3568.34 2629.98 3548.27 2583.84C3536.25 2556.22 3526.45 2525.57 3534.46 2496.61C3542.46 2467.66 3574.95 2443.4 3604.08 2453.58C3591.74 2542.46 3631.5 2636.41 3704.72 2691.37C3685.52 2628.13 3666.32 2564.88 3647.12 2501.63C3641.94 2484.56 3636.69 2466.76 3639.76 2449.22C3642.82 2431.67 3656.85 2414.55 3675.23 2413.76C3691.74 2473.93 3721.33 2530.71 3761.5 2579.32C3750.1 2522.63 3742.95 2465.14 3740.15 2407.46C3760.76 2404.96 3781.37 2402.45 3801.99 2399.95C3791.21 2447.24 3798.77 2498.24 3822.85 2540.7C3822.21 2473.32 3860.47 2406.8 3920 2371.84C3931.24 2394.82 3953.48 2412.48 3978.96 2418.66C3944.12 2456.43 3924.1 2506.69 3923.74 2557.31C3975.61 2552.29 4027.97 2552.06 4079.89 2556.64C4068.16 2590.22 4056 2623.66 4043.42 2656.95C4038.27 2670.56 4032.84 2684.49 4022.84 2695.28C4005.2 2714.33 3977.26 2719.88 3951.67 2726.29C3898.21 2739.67 3846.95 2761.24 3800.38 2789.95C3854.16 2792.09 3908.11 2790.14 3961.57 2784.12C3963.55 2832.72 3901.95 2860.93 3851.84 2857.25C3801.72 2853.57 3753 2831.81 3703.07 2837.32C3748.22 2853.12 3793.36 2868.91 3838.5 2884.71C3803.2 2911.87 3763.07 2937.28 3718.01 2939.23C3675.86 2941.05 3656.96 2911.22 3621.05 2900.54C3582.36 2889.03 3546.41 2902.73 3508.24 2880.34" fill="#30451D"/>
<path d="M3987.18 2391.11C4003 2447.58 4027.37 2501.79 4059.27 2551.49C4056.7 2503.67 4057.72 2455.66 4062.32 2407.98C4063.53 2395.38 4065.08 2382.53 4070.75 2371.13C4085.63 2341.16 4123.15 2330.15 4156.52 2322.26C4127.09 2384.12 4120.97 2456.1 4139.57 2521.79C4150.72 2470.51 4164.65 2419.81 4181.28 2369.95C4205.91 2381.16 4229.56 2394.41 4251.86 2409.5C4222.66 2434.01 4206.59 2472.46 4209.98 2509.73C4229.09 2486.02 4248.17 2462.31 4267.26 2438.6C4281.64 2420.75 4299.47 2401.19 4322.84 2401.45C4336.86 2401.61 4349.52 2409.09 4361.38 2416.32C4392.93 2435.58 4424.48 2454.85 4456.02 2474.12C4406.77 2536.96 4318.96 2555.41 4238.77 2569.51C4284.22 2585.94 4332.69 2594.47 4381.2 2594.6C4317.4 2610.21 4260.35 2644.27 4199.87 2669.42C4110.53 2706.56 4016.38 2720.74 3945.6 2649.12C3905.46 2608.48 3881.13 2561.64 3895.02 2504.4C3901.12 2479.3 3914.09 2455.79 3930.95 2435.94C3935.06 2431.11 3986.6 2389.05 3987.18 2391.11" fill="#365523"/>
<path d="M2646.94 2699.13C2656.8 2709.34 2656.86 2726.97 2647.08 2737.25C2695.66 2762.19 2748.66 2792.18 2764.28 2843.2C2767.46 2853.57 2766.65 2868.1 2755.92 2871.1C2749.8 2872.82 2743.45 2869.59 2738.1 2866.22C2690.42 2836.18 2659.17 2787.28 2616.4 2750.97C2573.64 2714.66 2506.5 2692.53 2461.12 2725.75C2497.72 2755.46 2544.69 2769.77 2587.05 2791.16C2629.41 2812.57 2670.65 2846.15 2677.56 2891.91C2649.01 2900.47 2617.83 2888.81 2593.67 2871.77C2569.51 2854.74 2549.7 2832.46 2525.55 2815.41C2460.76 2769.66 2365.71 2768.91 2300.15 2813.64C2348.61 2825.67 2399.9 2816.68 2449.64 2821.85C2499.38 2827.02 2554.05 2854.64 2561.02 2902.58C2506.83 2914.38 2452.22 2890.39 2398.8 2875.66C2345.38 2860.91 2278.39 2859.32 2244.53 2901.93C2240.5 2907 2237.05 2912.75 2236.21 2919.09C2235.1 2927.42 2238.62 2935.59 2241.79 2943.42C2257.87 2983.04 2267.01 3025.3 2268.7 3067.84C2348.56 3032.13 2433.03 3006.06 2519.52 2990.41C2510.52 3008.72 2499.95 3026.3 2487.96 3042.92C2530.92 3038.02 2563.2 2999.19 2606 2993.1C2621.21 2990.93 2636.83 2993.1 2652 2990.74C2669.44 2988.03 2685.26 2979.54 2700.68 2971.18C2763.57 2937.07 2856.34 2910.5 2814.66 2827.14C2788.07 2773.96 2713.76 2699.13 2646.94 2699.13" fill="#485D2F"/>
<path d="M4736.52 1992.75C4711.26 1986.26 4685.82 2003.27 4669.17 2022.81C4652.59 2042.34 4639.84 2065.78 4618.35 2080.17C4596.81 2094.56 4561.61 2094.69 4549.51 2072.26C4578.8 2043.97 4616.64 2024.05 4657.07 2015.58C4634.7 1978.87 4583.89 1963.57 4541.65 1975.53C4499.41 1987.5 4466.79 2022.71 4451.99 2062.82C4445.08 2081.51 4441.19 2102.06 4427.86 2117.14C4414.52 2132.22 4386.78 2137.81 4374.55 2121.86C4375.9 2092.72 4404.97 2073.56 4428.46 2055.29C4451.96 2037.02 4473.82 2005.33 4457.47 1980.83C4439.36 1953.7 4395.37 1965.28 4368.62 1984.61C4333.15 2010.26 4304.33 2044.48 4285.53 2083.28C4263.15 2129.47 4249.65 2187.51 4201.52 2208.33C4187.13 2182.02 4190.44 2149.29 4202.85 2122.05C4215.26 2094.82 4235.74 2071.9 4255.93 2049.44C4285.97 2016.01 4316.02 1982.57 4346.06 1949.13C4260.12 1925.59 4160.7 1992.47 4153.55 2078.63C4150.89 2110.7 4159.1 2143.53 4151.59 2174.86C4144.07 2206.2 4110.27 2235.88 4079.86 2222.89C4047.58 2209.09 4049.88 2162.37 4068.59 2133.41C4087.3 2104.45 4116.91 2081.07 4125.85 2048.03C4127.42 2042.2 4128.24 2035.79 4125.59 2030.33C4117.23 2013.16 4090.35 2023.35 4075.31 2035.56C4058.53 2049.18 4041.74 2062.79 4024.97 2076.41C3996.41 2099.59 3964.9 2130.15 3971.92 2165.58C3976.62 2189.27 3998.43 2211.97 3988.81 2234.23C3973.47 2250.21 3943.02 2237.13 3935.67 2216.51C3928.34 2195.88 3936.22 2173.4 3944.07 2152.96C3915.66 2142.07 3889.57 2175.65 3886.25 2205.04C3882.93 2234.42 3889.03 2267.07 3871.52 2291.28C3852.92 2316.97 3810.01 2330.38 3812.31 2361.66C3813.78 2381.63 3836.07 2395.22 3856.77 2395.28C3877.46 2395.34 3896.67 2385.65 3915.06 2376.46C4154.54 2256.69 4414.63 2180.08 4676.91 2119.83C4702.17 2114.04 4788.29 2103.01 4796.55 2073.56C4803.22 2049.99 4758.42 1998.37 4736.52 1992.75" fill="#3D6A2B"/>
<path d="M3428.05 2455.07C3484.91 2423.47 3524 2363.73 3529.19 2300.47C3481.29 2285.13 3425.69 2294.66 3386.14 2324.98C3374.85 2333.65 3364.43 2344.07 3350.85 2348.72C3337.26 2353.37 3319.01 2349.53 3314 2336.46C3307.54 2319.6 3326.58 2304 3344.02 2297.82C3389.21 2281.8 3439.26 2286.57 3486.51 2277.75C3533.77 2268.93 3584.01 2237.54 3585.29 2190.98C3586.19 2158.53 3563.09 2130.63 3541.24 2105.99C3490.19 2178.54 3402.54 2225.72 3311.91 2229.4C3343.79 2195.99 3378.55 2165.15 3415.72 2137.32C3442.85 2117.01 3472.5 2096.84 3486.38 2066.49C3500.27 2036.14 3489.38 1992.41 3456.2 1983.98C3449.57 1988.65 3442.95 1993.32 3436.32 1997.99C3441.89 1975.77 3440.96 1952.06 3433.65 1930.33C3431.53 1924.03 3427.36 1916.84 3420.52 1916.86C3415.94 1916.86 3412.22 1920.24 3409 1923.38C3344.91 1986.09 3280.82 2048.79 3216.74 2111.49C3217 2070.3 3245.14 2034.85 3271.59 2002.58C3298.05 1970.31 3325.48 1934.01 3323.94 1892.85C3322.39 1851.68 3274.17 1812.14 3237.75 1833.47C3223.21 1870.74 3207 1907.4 3189.17 1943.31C3182.7 1956.35 3175.09 1970.19 3161.6 1976.39C3148.1 1982.59 3127.76 1975.63 3127.17 1961.18C3126.85 1953.46 3132.01 1946.64 3136.89 1940.51C3164.48 1905.8 3190.81 1870.15 3215.81 1833.64C3222.97 1823.18 3230.21 1809.85 3224.01 1798.83C3219.75 1791.26 3210.61 1787.85 3202.19 1785.02C3177.79 1776.82 3153.39 1768.61 3128.98 1760.41C3071.74 1741.17 3000.74 1724.43 2956.68 1764.69C2984.04 1826.52 3008.68 1889.47 3030.53 1953.32C2978.58 1902.37 2926.63 1851.42 2874.69 1800.47C2891.71 1858.55 2940.75 1901.54 2985.16 1943.93C3029.58 1986.33 3073.83 2036.67 3076.38 2096.99C3028.09 2089.71 3004.35 2038.28 2975.91 1999.81C2933.5 1942.46 2864 1904.71 2791.33 1899.52C2847.16 1991.05 2927.44 2068.47 3022.21 2122.21C3049.94 2137.93 3080.86 2153.64 3093.96 2182.04C2981.56 2156.91 2887.87 2055.03 2773.38 2068.72C2845.91 2180.87 2974.8 2257.04 3111.02 2268.28C3119.8 2269.01 3129.72 2270.01 3135.13 2276.74C3143.17 2286.73 3134.37 2302.52 3121.99 2306.58C3109.6 2310.64 3096.1 2306.74 3083.7 2302.73C3030.99 2285.64 2979.1 2266.17 2928.25 2244.4C2991.72 2306.4 3055.19 2368.41 3118.66 2430.42C3164.65 2475.36 3195.03 2466.66 3254.23 2471.29C3317.42 2476.23 3368.97 2487.91 3428.05 2455.07" fill="#3D6A2B"/>
<path d="M4238.62 2890.55C4308.09 2852.97 4390.66 2832.32 4468.11 2850.02C4426.05 2897.95 4358.82 2915.21 4297.74 2936.64C4236.66 2958.08 4171.74 2992.94 4154.68 3053.61C4263.04 2994.57 4379.77 2949.92 4500.57 2921.34C4525.88 2915.35 4554.44 2910.52 4576.46 2923.98C4590.43 2932.51 4599.23 2947.11 4605.25 2961.96C4627.15 3015.8 4617.76 3080.43 4581.38 3126.35C4573.83 3109.8 4563.2 3094.58 4550.15 3081.63C4543.64 3119.49 4541.48 3158.04 4543.69 3196.35C4450.3 3162.88 4356.91 3129.4 4263.51 3095.94C4268.68 3146.82 4282.01 3196.93 4302.86 3243.9C4261.47 3228.75 4220.07 3213.6 4178.68 3198.45C4164.79 3193.37 4150.43 3187.99 4140.01 3177.76C4112.26 3150.51 4124.79 3105.23 4139.09 3069.56C4086.43 3101.36 4057.22 3165.87 4068.78 3224.89C4025.28 3205.04 3981.77 3185.19 3938.27 3165.33C3930.76 3161.9 3922.61 3157.84 3919.54 3150.38C3916.33 3142.56 3919.83 3133.81 3923.3 3126.1C3933.57 3103.32 3943.99 3080.6 3954.56 3057.95C3934.52 3076.98 3912.48 3096.99 3884.68 3100.79C3856.87 3104.59 3824.19 3082.57 3829.65 3055.92C3835.71 3026.28 3876.58 3020.63 3907.74 3022.54C3969.59 3026.32 4029.33 3048.53 4079.74 3010C4133.07 2969.24 4178.49 2923.08 4238.62 2890.55" fill="#365925"/>
<path d="M3044.62 2375.06C3109.43 2434.14 3147.76 2519.54 3148.14 2605.7C3102.85 2571.94 3089.22 2512.98 3067.32 2461.87C3045.41 2410.77 2999.22 2357.9 2942.8 2366.78C2979.29 2393.96 3016.25 2421.58 3044.1 2457.07C3071.95 2492.56 3090.07 2537.48 3083.34 2581.56C3033.12 2539.75 3038.35 2458.99 2991.91 2413.28C2974.13 2395.78 2950.47 2385.27 2927.37 2375.12C2854.47 2343.11 2766.12 2311.82 2698.7 2353.59C2790.15 2405.31 2881.6 2457.02 2973.05 2508.74C3003.23 2525.81 3038.2 2555.84 3023.79 2586.66C3000.71 2601.09 2970.76 2583.92 2950.45 2566C2907.3 2527.94 2870.26 2483.51 2824.85 2448C2779.44 2412.48 2722.35 2385.81 2664.36 2392.27C2606.36 2398.72 2551.41 2447.57 2555.65 2503.92C2685.98 2487.04 2823.59 2537.64 2909.46 2634.01C2857.79 2639.78 2804.44 2630.65 2757.94 2608.09C2724.24 2591.73 2694.41 2568.69 2660.92 2551.91C2627.43 2535.14 2587.77 2524.86 2552.03 2536.47C2516.28 2548.09 2489.06 2587.9 2502.68 2621.92C2561.32 2621.19 2620.02 2625.04 2678.03 2633.42C2718.74 2639.3 2763.82 2650.46 2785.02 2684.61C2752.92 2702.28 2712.96 2696.71 2676.99 2688.67C2641.01 2680.63 2603.22 2670.66 2567.88 2681.02C2532.54 2691.38 2504.02 2732.03 2522.03 2763.21C2617.69 2786.37 2722.24 2773.11 2808.5 2726.89C2803.2 2745.85 2797.9 2764.81 2792.6 2783.77C2863.75 2783.2 2904.94 2683.87 2975.87 2689.38C2969.37 2716.42 2955.81 2741.84 2936.81 2762.64C2966.73 2769.31 2996.07 2749.49 3016.56 2727.35C3037.04 2705.21 3054.46 2678.84 3081.77 2665.27C3109.09 2651.7 3150.83 2659.27 3158.31 2688.09C3160.02 2694.68 3160.01 2702.23 3164.85 2707.16C3171.63 2714.08 3183.42 2711.66 3192.65 2708.33C3226.12 2696.27 3294.7 2669.19 3307.23 2633.01C3317.9 2602.16 3285.21 2552.08 3267.67 2527.93C3214.46 2454.71 3126 2412.32 3044.62 2375.06" fill="#426929"/>
<path d="M3884.4 2427.72C3843.86 2425.35 3798.2 2399.25 3799.81 2359.98C3801.26 2324.58 3850.57 2301.04 3880.48 2321.48C3885.3 2324.76 3889.75 2328.96 3895.49 2330.22C3914.11 2334.28 3921.74 2308.81 3931.41 2292.89C3945.44 2269.76 3976.21 2261.93 4003.91 2261.21C4031.62 2260.48 4060.11 2264.61 4086.55 2256.58C4103.15 2251.54 4119.19 2241.75 4136.46 2243.72C4152.57 2245.56 4165.6 2257.31 4181.17 2261.71C4209.45 2269.72 4238.3 2252.3 4260.95 2234.05C4288.95 2211.49 4315.11 2186.01 4347.48 2169.8C4379.86 2153.6 4421.05 2148.24 4451.89 2167.05C4463.64 2124.48 4518.57 2111.78 4563.8 2106.73C4626.38 2099.73 4689.01 2092.74 4751.57 2085.74C4721.53 2089.1 4674.72 2128.93 4647.69 2143.44C4612.74 2162.18 4577.51 2180.43 4542.03 2198.18C4468.34 2235.04 4393.5 2269.75 4317.64 2302.24C4183.49 2359.68 4035.26 2436.53 3884.4 2427.72" fill="#5B892D"/>
<path d="M207.72 4548.18H257.772C285.386 4548.18 307.772 4525.8 307.772 4498.18V4297.02C307.772 4269.41 285.36 4247.02 257.746 4247.02V4247.02C230.132 4247.02 207.72 4269.41 207.72 4297.02V4548.18" fill="#3F3E5C"/>
<path d="M32.126 4299.13H2032.49C2050.17 4299.13 2064.62 4282.8 2064.62 4262.83V3802.6C2064.62 3782.65 2050.17 3766.31 2032.49 3766.31H32.126C14.4545 3766.31 -2.88635e-05 3782.65 -2.88635e-05 3802.6V4049.14V4262.83C-2.88635e-05 4282.8 14.4545 4299.13 32.126 4299.13" fill="#F7E9D4"/>
<path d="M4430.6 4299H5420.94C5438.63 4299 5453.1 4282.67 5453.1 4262.7V2270.3C5453.1 2250.33 5438.63 2234 5420.94 2234H4430.6C4412.92 2234 4398.44 2250.33 4398.44 2270.3V2392.73V4262.7C4398.44 4282.67 4412.92 4299 4430.6 4299Z" fill="#F7E9D4"/>
<path d="M5347.33 4498C5347.33 4525.61 5369.96 4548 5397.57 4548V4548C5425.19 4548 5447.81 4525.61 5447.81 4498V4297C5447.81 4269.39 5425.19 4247 5397.57 4247V4247C5369.96 4247 5347.33 4269.39 5347.33 4297V4498Z" fill="#3F3E5C"/>
<path d="M5247.61 4548H5297.33C5324.95 4548 5347.33 4525.61 5347.33 4498V4296.86C5347.33 4269.32 5325.01 4247 5297.47 4247V4247C5269.93 4247 5247.61 4269.32 5247.61 4296.86V4548" fill="#F7E9D4"/>
<path d="M1154.14 4498.18C1154.14 4525.8 1176.53 4548.18 1204.15 4548.18V4548.18C1231.76 4548.18 1254.15 4525.8 1254.15 4498.18V4297.02C1254.15 4269.4 1231.76 4247.02 1204.15 4247.02V4247.02C1176.53 4247.02 1154.14 4269.4 1154.14 4297.02V4498.18Z" fill="#3F3E5C"/>
<path d="M1054.1 4548.18H1104.17C1131.78 4548.18 1154.17 4525.8 1154.17 4498.18V4297.02C1154.17 4269.41 1131.75 4247.02 1104.13 4247.02V4247.02C1076.52 4247.02 1054.1 4269.41 1054.1 4297.02V4548.18" fill="#F7E9D4"/>
<path d="M3250.86 4498.14C3250.86 4525.68 3273.18 4548 3300.72 4548V4548C3328.26 4548 3350.58 4525.68 3350.58 4498.14V4296.86C3350.58 4269.32 3328.26 4247 3300.72 4247V4247C3273.18 4247 3250.86 4269.32 3250.86 4296.86V4498.14Z" fill="#3F3E5C"/>
<path d="M3151.13 4498.14C3151.13 4525.68 3173.46 4548 3201 4548V4548C3228.53 4548 3250.86 4525.68 3250.86 4498.14V4296.86C3250.86 4269.32 3228.53 4247 3201 4247V4247C3173.46 4247 3151.13 4269.32 3151.13 4296.86V4498.14Z" fill="#F7E9D4"/>
<path d="M107.683 4548.18H157.7C185.315 4548.18 207.7 4525.8 207.7 4498.18V4297.01C207.7 4269.4 185.306 4247.01 157.692 4247.01V4247.01C130.077 4247.01 107.683 4269.4 107.683 4297.01V4548.18" fill="#F7E9D4"/>
<path d="M981.078 3766.31H5284.75C5312.36 3766.31 5334.75 3743.92 5334.75 3716.31V2270.75C5334.75 2250.79 5349.21 2234.45 5366.89 2234.45H5507.78C5525.46 2234.45 5539.93 2250.79 5539.93 2270.75V4262.83C5539.93 4282.79 5525.46 4299.12 5507.78 4299.12H5405.19H5366.89H981.078C963.387 4299.12 948.933 4282.79 948.933 4262.83V3802.6C948.933 3782.64 963.387 3766.31 981.078 3766.31Z" fill="#E7D4BA"/>
<path d="M1221.99 3395.66H139.83C122.148 3395.66 107.681 3411.99 107.681 3431.95V3580.98V3730.01C107.681 3749.97 122.148 3766.3 139.83 3766.3H1221.99C1239.67 3766.3 1254.14 3749.97 1254.14 3730.01V3431.95C1254.14 3411.99 1239.67 3395.66 1221.99 3395.66Z" fill="#F4F4F4"/>
<path d="M1117.06 3395.66H5302.6C5320.28 3395.66 5334.75 3411.99 5334.75 3431.96V3730.01C5334.75 3749.97 5320.28 3766.31 5302.6 3766.31H1117.06C1099.32 3766.31 1084.9 3749.97 1084.9 3730.01V3580.98V3431.96C1084.9 3411.99 1099.32 3395.66 1117.06 3395.66Z" fill="#EFE9EB"/>
<path d="M4283.41 3396H5073.34C5087.72 3396 5099.88 3384.71 5103.22 3369.59C5104.42 3364.14 5105.06 3358.53 5106.89 3353.25L5237.29 2977.76C5239.12 2972.49 5240.35 2966.87 5239.15 2961.42C5235.81 2946.29 5223.65 2935 5209.27 2935H4419.34C4404.96 2935 4392.81 2946.29 4389.47 2961.42C4388.27 2966.87 4387.63 2972.49 4385.8 2977.76L4255.4 3353.25C4253.57 3358.53 4252.34 3364.14 4253.54 3369.59C4256.88 3384.71 4269.03 3396 4283.41 3396Z" fill="#EC9556"/>
<path d="M5088.16 3136.12C5040.93 3260.35 5031.07 3374.83 5066.14 3391.86C5101.21 3408.92 5167.93 3322.05 5215.16 3197.86C5262.4 3073.68 5272.25 2959.18 5237.18 2942.14C5202.11 2925.09 5135.39 3011.95 5088.16 3136.12" fill="#D3844A"/>
</svg>
