<?xml version="1.0" encoding="iso-8859-1"?>
<!-- Generator: Adobe Illustrator 16.0.0, SVG Export Plug-In . SVG Version: 6.00 Build 0)  -->
<!DOCTYPE svg PUBLIC "-//W3C//DTD SVG 1.1//EN" "http://www.w3.org/Graphics/SVG/1.1/DTD/svg11.dtd">
<svg version="1.1" id="Capa_1" xmlns="http://www.w3.org/2000/svg" xmlns:xlink="http://www.w3.org/1999/xlink" x="0px" y="0px"
	 width="230.584px" height="230.584px" viewBox="0 0 230.584 230.584" style="enable-background:new 0 0 230.584 230.584;"
	 xml:space="preserve">
<g>
	<path d="M186.097,93.052c-3.13,0-6.187,0.335-9.14,0.953l-11.101-38.553h13.414c4.75,0,8.61,3.861,8.61,8.613
		c0,4.75-3.86,8.61-8.61,8.61c-1.906,0-3.44,1.541-3.44,3.44c0,1.903,1.534,3.443,3.44,3.443c8.543,0,15.484-6.951,15.484-15.494
		c0-8.543-6.941-15.497-15.479-15.497h-28.181c-1.905,0-3.446,1.541-3.446,3.443s1.541,3.44,3.446,3.44h7.703
		c0.019,0.17-0.013,0.35,0.036,0.518l5.639,19.58H93.067L87.45,56.033h18.718c1.909,0,3.447-1.541,3.447-3.449
		c0-1.9-1.538-3.44-3.447-3.44H68.293c-1.906,0-3.446,1.54-3.446,3.44c0,1.909,1.541,3.449,3.446,3.449h11.993l6.059,21.05
		L67.483,99.537c-6.716-4.092-14.578-6.485-23.002-6.485C19.945,93.052,0,113.003,0,137.53c0,24.54,19.945,44.487,44.481,44.487
		c23.757,0,43.16-18.73,44.372-42.186h4.695c1.364,7.66,8.038,13.494,16.072,13.494c9.018,0,16.365-7.344,16.365-16.368
		c0-3.568-1.175-6.845-3.121-9.529l44.381-42.265l3.118,10.811c-16.764,6.373-28.741,22.57-28.741,41.555
		c0,24.533,19.96,44.481,44.481,44.481c24.533,0,44.481-19.948,44.481-44.481C230.584,113.003,210.625,93.052,186.097,93.052z
		 M88.646,85.05l11.192,38.864c-2.935,2.204-5.087,5.353-6.022,9.019h-5.088c-1.206-11.771-7.026-22.168-15.609-29.399L88.646,85.05
		z M54.27,132.939c-0.466-1.596-1.227-3.033-2.244-4.287l16.666-19.845c7.066,5.968,11.892,14.48,13.077,24.126L54.27,132.939
		L54.27,132.939z M44.481,175.125c-20.733,0-37.598-16.867-37.598-37.595c0-20.733,16.864-37.588,37.598-37.588
		c6.741,0,13.058,1.802,18.539,4.92l-16.675,19.856c-1.221-0.408-2.506-0.682-3.87-0.682c-6.811,0-12.34,5.547-12.34,12.349
		c0,6.808,5.535,12.337,12.34,12.337c5.605,0,10.294-3.764,11.807-8.902h27.682C80.764,159.488,64.436,175.125,44.481,175.125z
		 M117.716,122.825c-2.396-1.382-5.133-2.223-8.096-2.223c-1.19,0-2.344,0.14-3.471,0.384L95.055,82.432h65.071L117.716,122.825z
		 M186.097,175.125c-20.728,0-37.595-16.867-37.595-37.595c0-15.844,9.864-29.401,23.772-34.927l10.376,36.017
		c0.426,1.505,1.814,2.491,3.3,2.491c0.323,0,0.646-0.043,0.95-0.129c1.826-0.523,2.886-2.441,2.362-4.268l-10.388-36.082
		c2.338-0.448,4.762-0.704,7.228-0.704c20.733,0,37.601,16.861,37.601,37.589C223.704,158.269,206.836,175.125,186.097,175.125z"/>
</g>
<g>
</g>
<g>
</g>
<g>
</g>
<g>
</g>
<g>
</g>
<g>
</g>
<g>
</g>
<g>
</g>
<g>
</g>
<g>
</g>
<g>
</g>
<g>
</g>
<g>
</g>
<g>
</g>
<g>
</g>
</svg>
