<svg xmlns="http://www.w3.org/2000/svg" xmlns:xlink="http://www.w3.org/1999/xlink" x="0px" y="0px"
	 width="98.586px" height="98.586px" viewBox="0 0 98.586 98.586"
	 xml:space="preserve">
<g>
	<g>
		<path class="light-bulb" d="M80.802,27.661C79.484,8.573,64.397,0.013,49.313,0c-0.006,0-0.013,0-0.02,0s-0.014,0-0.02,0
			C34.189,0.013,19.103,8.573,17.785,27.661c-0.137,1.357-0.183,2.714-0.112,4.089c0.083,1.585,0.265,3.17,0.601,4.725
			c0.829,3.876,2.413,7.432,4.734,10.66c0.837,1.162,14.702,20.438,14.702,31.957h23.168c0-11.521,13.865-30.795,14.702-31.957
			c2.32-3.229,3.904-6.784,4.733-10.66c0.336-1.555,0.519-3.14,0.602-4.725C80.985,30.375,80.939,29.019,80.802,27.661z"/>
		<path class="light-bulb-body" d="M37.519,92.126c0,3.567,2.893,6.46,6.46,6.46h10.629c3.568,0,6.46-2.893,6.46-6.46v-8.963H37.519V92.126z"/>
	</g>
</g>
</svg>
