<?xml version="1.0"?>
<svg xmlns="http://www.w3.org/2000/svg" id="OutLine" viewBox="0 0 512 512" width="512" height="512"><path d="M256,64C150.133,64,64,150.133,64,256s86.133,192,192,192,192-86.133,192-192S361.867,64,256,64ZM432,256c0,97.047-78.953,176-176,176S80,353.047,80,256a174.862,174.862,0,0,1,23.711-88.058c.1,0,.186.058.289.058H208.723a47.939,47.939,0,0,0,94.554,0H408.322A174.854,174.854,0,0,1,432,256ZM224,160a32,32,0,1,1,32,32A32.032,32.032,0,0,1,224,160Zm79.277-8a47.939,47.939,0,0,0-94.554,0H114.13a175.772,175.772,0,0,1,283.74,0Z"/><path d="M482.531,95.586a8,8,0,1,0-5.062-15.172L433.8,94.97c-4.846-5.345-9.947-10.453-15.251-15.344L446.25,45a8,8,0,1,0-12.5-10L406.412,69.173a239.324,239.324,0,0,0-300.824,0L78.25,35a8,8,0,0,0-12.5,10l27.7,34.626c-5.3,4.891-10.4,10-15.251,15.344L34.531,80.414a8,8,0,0,0-5.062,15.172l37.69,12.563A238.743,238.743,0,0,0,16,256c0,132.336,107.664,240,240,240S496,388.336,496,256a238.743,238.743,0,0,0-51.159-147.851ZM480,256c0,123.516-100.484,224-224,224S32,379.516,32,256,132.484,32,256,32,480,132.484,480,256Z"/><path d="M256,336a24.027,24.027,0,0,0-24,24v32a24,24,0,0,0,48,0V360A24.027,24.027,0,0,0,256,336Zm8,56a8,8,0,0,1-16,0v-8h16Zm0-24H248v-8a8,8,0,0,1,16,0Z"/><circle cx="256" cy="232" r="8"/><circle cx="288" cy="232" r="8"/><circle cx="224" cy="232" r="8"/></svg>
