<?xml version="1.0" encoding="iso-8859-1"?>
<!-- Generator: Adobe Illustrator 19.0.0, SVG Export Plug-In . SVG Version: 6.00 Build 0)  -->
<svg version="1.1" id="Capa_1" xmlns="http://www.w3.org/2000/svg" xmlns:xlink="http://www.w3.org/1999/xlink" x="0px" y="0px"
	 viewBox="0 0 480.236 480.236" style="enable-background:new 0 0 480.236 480.236;" xml:space="preserve">
<g>
	<g>
		<path d="M479.886,295.684c-4.407-54.062-49.622-95.658-103.863-95.551c-8.127-0.014-16.228,0.926-24.136,2.8
			c-2.552-46.414-35.404-85.587-80.664-96.184c-0.728-0.176-1.464-0.32-2.192-0.464c-20.771-33.768-64.984-44.304-98.753-23.533
			c-15.773,9.702-27.187,25.125-31.855,43.045c-32.24-14.554-70.174-0.216-84.728,32.024c-3.733,8.27-5.667,17.239-5.672,26.312
			c-0.001,2.841,0.183,5.679,0.552,8.496c-30.596,4.038-52.126,32.114-48.089,62.711c1.699,12.871,7.826,24.748,17.329,33.593
			c-0.968,1.112-1.968,2.208-2.848,3.376c-9.725,12.535-14.984,27.959-14.944,43.824c0.044,39.746,32.254,71.956,72,72h304
			c2.968,0,5.848-0.088,8.656-0.344C441.927,403.124,484.553,352.932,479.886,295.684z M26.129,221.604
			c7.582-8.556,18.462-13.458,29.894-13.47h0.624c0.266-0.015,0.534-0.015,0.8,0c2.667,0.305,5.308-0.761,7.016-2.832
			c1.71-2.058,2.277-4.836,1.512-7.4c-1.307-4.472-1.964-9.109-1.952-13.768c0.026-26.499,21.501-47.974,48-48
			c9.913-0.056,19.591,3.024,27.648,8.8c3.587,2.579,8.586,1.761,11.165-1.826c0.841-1.17,1.351-2.546,1.475-3.982
			c2.821-30.089,28.903-52.58,59.08-50.944c13.49,0.771,26.233,6.444,35.832,15.952c-0.504,0-0.992,0.08-1.496,0.088h-0.32
			c-3.719,0.099-7.431,0.393-11.12,0.88l-0.432,0.072c-3.604,0.486-7.18,1.164-10.712,2.032l-0.592,0.152
			c-3.411,0.852-6.775,1.88-10.08,3.08l-0.928,0.336c-3.12,1.168-6.173,2.483-9.16,3.944c-0.464,0.224-0.928,0.432-1.384,0.664
			c-2.768,1.408-5.464,2.952-8.104,4.608c-0.6,0.368-1.208,0.712-1.792,1.088c-2.48,1.6-4.88,3.392-7.2,5.24
			c-0.632,0.496-1.288,0.936-1.912,1.448c-2.888,2.365-5.649,4.88-8.272,7.536c-6.617,6.677-12.243,14.269-16.704,22.544v-0.048
			l-0.064,0.096c-0.24,0.372-0.452,0.763-0.632,1.168c-3.403,6.275-6.122,12.897-8.112,19.752
			c-1.722,5.935-2.908,12.013-3.544,18.16c-0.446,3.703-0.66,7.43-0.64,11.16c0,0.536,0,1.072,0,1.6
			c-17.084-3.419-34.815-1.227-50.552,6.248c-3.447,1.687-6.777,3.604-9.968,5.736c-1.901,1.226-3.711,2.587-5.416,4.072
			c-3.011,2.367-5.84,4.955-8.464,7.744c-2.589,2.714-4.964,5.624-7.104,8.704c-5.353,7.614-9.328,16.108-11.744,25.096
			c-3.514,1.066-6.929,2.434-10.208,4.088c-3.474,1.74-6.807,3.749-9.968,6.008c-0.336,0.232-0.736,0.4-1.064,0.64
			C13.002,263.418,11.477,238.137,26.129,221.604z M383.287,391.846c-2.4,0.224-4.8,0.288-7.264,0.288h-304
			c-30.913-0.035-55.965-25.087-56-56c-0.026-12.363,4.08-24.38,11.664-34.144c2.168-2.845,4.624-5.459,7.328-7.8
			c3.841-3.377,8.12-6.221,12.72-8.456c3.689-1.837,7.583-3.23,11.6-4.152c3.019-0.73,5.342-3.141,5.96-6.184
			c1.749-8.602,5.254-16.751,10.296-23.936c1.685-2.443,3.558-4.751,5.6-6.904c2.233-2.361,4.64-4.551,7.2-6.552
			c1.263-1.086,2.599-2.083,4-2.984c2.56-1.721,5.233-3.268,8-4.632c2.027-0.953,4.102-1.802,6.216-2.544
			c1.536-0.544,3.104-0.976,4.68-1.4c0.528-0.144,1.04-0.32,1.6-0.448c1.68-0.408,3.376-0.712,5.072-0.984
			c0.48-0.072,0.96-0.176,1.44-0.24c1.528-0.208,3.064-0.328,4.6-0.424c0.8-0.048,1.536-0.112,2.312-0.128
			c1.504-0.048,2.992,0,4.48,0c0.536,0,1.072,0,1.6,0.072c1.496,0.096,2.968,0.264,4.432,0.464c0.552,0.072,1.112,0.128,1.656,0.216
			c1.504,0.248,2.992,0.584,4.464,0.944c0.464,0.112,0.936,0.192,1.4,0.312c1.897,0.509,3.766,1.115,5.6,1.816
			c4.122,1.591,8.753-0.46,10.344-4.582c0.487-1.26,0.646-2.624,0.464-3.962c-0.504-3.768-0.747-7.566-0.728-11.368
			c-0.018-3.104,0.153-6.205,0.512-9.288c0.545-5.249,1.551-10.44,3.008-15.512c1.72-5.938,4.094-11.667,7.08-17.08
			c0.056-0.104,0.112-0.208,0.16-0.312c0.048-0.104,0.192-0.336,0.28-0.512c3.749-6.938,8.475-13.301,14.032-18.896
			c16.539-16.954,39.244-26.479,62.928-26.4c2.664,0,5.32,0.152,7.888,0.36c2.296,0.224,4.528,0.504,6.744,0.936l0.456,0.072
			c1.514,0.19,3.017,0.457,4.504,0.8c39.921,9.328,68.221,44.836,68.408,85.832c0,1.728-0.08,3.456-0.152,5.176
			c-0.191,4.414,3.233,8.147,7.647,8.338c1.04,0.045,2.078-0.113,3.057-0.466c9.45-3.376,19.414-5.084,29.448-5.048
			c48.601-0.084,88.068,39.247,88.152,87.848C464.254,349.884,429.039,388.136,383.287,391.846z"/>
	</g>
</g>
<g>
</g>
<g>
</g>
<g>
</g>
<g>
</g>
<g>
</g>
<g>
</g>
<g>
</g>
<g>
</g>
<g>
</g>
<g>
</g>
<g>
</g>
<g>
</g>
<g>
</g>
<g>
</g>
<g>
</g>
</svg>
