<?xml version="1.0"?>
<svg xmlns="http://www.w3.org/2000/svg" width="512" height="512" viewBox="0 0 128 128"><path d="M128,34.708a1.751,1.751,0,0,0-1.75-1.75H124a61.771,61.771,0,0,0-16.822,2.334,61.647,61.647,0,0,0-3.559-16.6l-.769-2.115a1.752,1.752,0,0,0-2.244-1.046l-2.114.77A61.361,61.361,0,0,0,79.421,27.438,61.743,61.743,0,0,0,66.829,9.277L65.238,7.686a1.8,1.8,0,0,0-2.476,0l-1.59,1.591A61.747,61.747,0,0,0,48.579,27.438,61.361,61.361,0,0,0,29.508,16.3l-2.114-.77a1.751,1.751,0,0,0-2.244,1.046l-.769,2.115a61.647,61.647,0,0,0-3.559,16.6A61.771,61.771,0,0,0,4,32.958H1.75A1.751,1.751,0,0,0,0,34.708v2.25a61.523,61.523,0,0,0,17.3,42.8A48.72,48.72,0,0,0,1.77,90.238L.513,91.5a1.748,1.748,0,0,0,0,2.474L1.77,95.228a48.948,48.948,0,0,0,49.843,12.054,61.826,61.826,0,0,0,9.558,12.373,4,4,0,0,0,5.657,0,61.724,61.724,0,0,0,9.558-12.373A48.949,48.949,0,0,0,126.23,95.228l1.257-1.258a1.748,1.748,0,0,0,0-2.474l-1.257-1.258A48.72,48.72,0,0,0,110.7,79.753,61.523,61.523,0,0,0,128,36.958ZM99.689,19.586l.47-.171.171.47a58.121,58.121,0,0,1,3.4,16.491A61.559,61.559,0,0,0,84.641,47.157a61.389,61.389,0,0,0-3.8-16.307A57.877,57.877,0,0,1,99.689,19.586ZM63.647,11.752,64,11.4l.354.354A58.143,58.143,0,0,1,77.1,30.882a1.71,1.71,0,0,0,.063.163,58.176,58.176,0,0,1,4.248,21.9A57.87,57.87,0,0,1,64.353,94.13L64,94.483l-.354-.353A58.347,58.347,0,0,1,50.833,31.045a1.71,1.71,0,0,0,.063-.163A58.13,58.13,0,0,1,63.647,11.752ZM27.67,19.885l.171-.47.47.171A57.877,57.877,0,0,1,47.156,30.85a61.389,61.389,0,0,0-3.8,16.307A61.559,61.559,0,0,0,24.266,36.376,58.121,58.121,0,0,1,27.67,19.885ZM3.5,36.458H4A58.033,58.033,0,0,1,43.119,51.583c-.01.453-.034.9-.034,1.358A61.307,61.307,0,0,0,59.794,95.159,58.309,58.309,0,0,1,3.5,36.958Zm.745,56.3-.02-.02.02-.02A45.234,45.234,0,0,1,20.033,82.438,61.5,61.5,0,0,0,61.464,98.7a45.757,45.757,0,0,1-9.407,4.722,1.682,1.682,0,0,0-.516.181.27.27,0,0,0-.039.027A45.5,45.5,0,0,1,4.245,92.753ZM64.353,117.18a.435.435,0,0,1-.707,0,58.257,58.257,0,0,1-8.692-11.115A49.484,49.484,0,0,0,64,101.22a49.423,49.423,0,0,0,9.046,4.845A58.231,58.231,0,0,1,64.353,117.18Zm59.422-24.447-.02.02A45.5,45.5,0,0,1,76.5,103.63c-.014-.008-.025-.019-.039-.026a1.734,1.734,0,0,0-.514-.181A45.772,45.772,0,0,1,66.536,98.7a61.5,61.5,0,0,0,41.431-16.263,45.234,45.234,0,0,1,15.788,10.275Zm.725-55.775a58.309,58.309,0,0,1-56.295,58.2,61.3,61.3,0,0,0,16.71-42.218c0-.455-.024-.905-.034-1.358A58.033,58.033,0,0,1,124,36.458h.5Z"/></svg>
