<svg width="207" height="297" viewBox="0 0 207 297" fill="none" xmlns="http://www.w3.org/2000/svg">
<rect width="207" height="297" fill="white"/>
<mask id="path-1-inside-1" fill="white">
<path d="M40 25C40 22.7909 41.7909 21 44 21H163C165.209 21 167 22.7909 167 25V226C167 242.569 153.569 256 137 256H70C53.4315 256 40 242.569 40 226V25Z"/>
</mask>
<path d="M40 25C40 22.7909 41.7909 21 44 21H163C165.209 21 167 22.7909 167 25V226C167 242.569 153.569 256 137 256H70C53.4315 256 40 242.569 40 226V25Z" fill="white" stroke="black" stroke-width="20" mask="url(#path-1-inside-1)"/>
<rect x="93" y="62" width="17" height="111" rx="8.5" fill="#EBEBEB" fill-opacity="0.92" stroke="black" stroke-width="2"/>
<rect width="23" height="11" rx="5.5" transform="matrix(1 0 0 -1 92 235)" fill="#E7E7E7"/>
<line x1="48" y1="207" x2="160" y2="207" stroke="black" stroke-width="6"/>
</svg>
