<svg width="400" height="400" viewBox="0 0 400 400" fill="none" xmlns="http://www.w3.org/2000/svg">
<g clip-path="url(#clip0)">
<path class="accessoir-path" d="M152.229 373.789C152.229 388.262 163.966 400 178.439 400H221.565C236.042 400 247.776 388.262 247.776 373.789V337.423H152.229V373.789Z" fill="#D1D1D1"/>
<path class="light-path" d="M327.844 112.231C322.496 34.7838 261.282 0.0527458 200.081 0C200.057 0 200.028 0 200 0C199.972 0 199.943 0 199.919 0C138.717 0.0527458 77.5079 34.7838 72.1603 112.231C71.6044 117.737 71.4178 123.243 71.7059 128.822C72.0426 135.252 72.7811 141.683 74.1444 147.993C77.5079 163.719 83.9348 178.147 93.3519 191.244C96.748 195.959 153.003 274.169 153.003 320.906H247.005C247.005 274.161 303.26 195.959 306.656 191.244C316.069 178.143 322.496 163.719 325.86 147.993C327.223 141.683 327.965 135.252 328.302 128.822C328.586 123.243 328.4 117.741 327.844 112.231Z" fill="#F4BD4B"/>
</g>
<defs>
<clipPath id="clip0">
<rect width="400" height="400" fill="white"/>
</clipPath>
</defs>
</svg>
