<svg width="422" height="422" viewBox="0 0 422 422" fill="none" xmlns="http://www.w3.org/2000/svg">
<path class="accessoir-path" fill-rule="evenodd" clip-rule="evenodd" d="M336.439 295.99C326.219 325.345 305.225 344.599 289.558 338.995C273.904 333.403 269.5 305.063 279.733 275.734C289.967 246.379 310.948 227.125 326.615 232.716C342.268 238.321 346.673 266.635 336.439 295.99ZM346.304 212.091L197.812 161.689V136.83C227.55 135.986 256.497 132.32 279.074 125.819C300.438 119.634 312.544 111.972 315.682 104.059C316.263 102.74 316.5 101.343 316.5 99.9449V89.8694C316.5 88.4721 316.263 87.1397 315.682 85.7551C312.465 77.5128 299.356 69.5871 276.7 63.3231C225.506 49.2256 143.585 49.2256 92.4837 63.3231C69.8146 69.5871 56.7986 77.5128 53.5808 85.7551C53.0006 87.1397 52.75 88.4721 52.75 89.8694V99.9449C52.75 101.343 53.0006 102.74 53.5808 104.059C56.7063 111.972 68.8256 119.634 90.2555 125.819C112.832 132.32 141.726 135.973 171.437 136.817V161.953C155.771 169.931 138.363 190.2 128.288 215.428C113.584 252.221 116.05 287.722 133.827 294.724L290.943 367.836C314.337 376.038 345.71 347.83 361.008 304.813C376.292 261.795 369.711 220.294 346.304 212.091Z" fill="#AEA7A0"/>
<g filter="url(#filter0_f)">
<path class="light-path" d="M291.308 346.096C309.704 351.794 332.714 330.271 342.703 298.024C352.692 265.777 345.877 235.016 327.481 229.317C309.086 223.619 286.075 245.142 276.086 277.389C266.098 309.636 272.913 340.397 291.308 346.096Z" fill="#F4BD4B"/>
</g>
<defs>
<filter id="filter0_f" x="254" y="215" width="110.789" height="145.413" filterUnits="userSpaceOnUse" color-interpolation-filters="sRGB">
<feFlood flood-opacity="0" result="BackgroundImageFix"/>
<feBlend mode="normal" in="SourceGraphic" in2="BackgroundImageFix" result="shape"/>
<feGaussianBlur stdDeviation="2" result="effect1_foregroundBlur"/>
</filter>
</defs>
</svg>
