<svg width="410" height="410" viewBox="0 0 410 410" fill="none" xmlns="http://www.w3.org/2000/svg">
<path class="accessoir-path" d="M389.433 72.7617H19.611C8.797 72.7617 0 81.5577 0 92.3737V316.67C0 327.488 8.797 336.281 19.611 336.281H389.433C400.245 336.281 409.042 327.488 409.042 316.67V92.3737C409.042 81.5577 400.246 72.7617 389.433 72.7617ZM392.234 316.67C392.234 318.225 390.974 319.472 389.433 319.472H19.611C18.065 319.472 16.809 318.225 16.809 316.67V92.3737C16.809 90.8277 18.065 89.5717 19.611 89.5717H389.433C390.974 89.5717 392.234 90.8267 392.234 92.3737V316.67Z" fill="#D1D1D1"/>
<g filter="url(#filter0_f)">
<path class="light-path" d="M385 86H24C18.4772 86 14 90.4772 14 96V314C14 319.523 18.4772 324 24 324H385C390.523 324 395 319.523 395 314V96C395 90.4772 390.523 86 385 86Z" fill="#F4BD4B"/>
</g>
<defs>
<filter id="filter0_f" x="10" y="82" width="389" height="246" filterUnits="userSpaceOnUse" color-interpolation-filters="sRGB">
<feFlood flood-opacity="0" result="BackgroundImageFix"/>
<feBlend mode="normal" in="SourceGraphic" in2="BackgroundImageFix" result="shape"/>
<feGaussianBlur stdDeviation="2" result="effect1_foregroundBlur"/>
</filter>
</defs>
</svg>
