<svg width="420" height="420" viewBox="0 0 420 420" fill="none" xmlns="http://www.w3.org/2000/svg">
<path class="accessoir-path" d="M259.219 393.931H222.305V168H197.695V393.931H160.781C153.986 393.931 148.477 399.767 148.477 406.966C148.477 414.164 153.986 420 160.781 420H259.219C266.014 420 271.523 414.164 271.523 406.966C271.523 399.767 266.014 393.931 259.219 393.931Z" fill="#30A1E1"/>
<path class="light-path" d="M304.798 142.245L271.985 9.35484C270.628 3.86039 265.698 0 260.039 0H159.961C154.302 0 149.372 3.86039 148.015 9.35484L115.202 142.245C114.296 145.918 115.128 149.804 117.461 152.782C119.793 155.76 123.365 157.5 127.148 157.5H292.852C296.634 157.5 300.207 155.76 302.539 152.782C304.871 149.804 305.704 145.918 304.798 142.245Z" fill="#F4BD4B"/>
</svg>
