<svg width="4974" height="3960" viewBox="0 0 4974 3960" fill="none" xmlns="http://www.w3.org/2000/svg">
<rect x="485" y="1394" width="2434" height="1418" rx="25" fill="#F5F5F5" stroke="black" stroke-width="30"/>
<rect y="3088" width="3384" height="712" rx="60" fill="#F7E9D4"/>
<ellipse class="light-bulb-background" cx="703" cy="1264" rx="65" ry="64" fill="#b6b6b6"/>
<path d="M368 1136C368 1080.77 412.772 1036 468 1036H963C1018.23 1036 1063 1080.77 1063 1136V1284H368V1136Z" fill="#2693AB"/>
<rect x="368" y="3800" width="110" height="160" fill="#221326"/>
<rect x="2872" y="3800" width="110" height="160" fill="#221326"/>
<path d="M189 2812C189 2778.86 215.863 2752 249 2752H3135C3168.14 2752 3195 2778.86 3195 2812V3008H189V2812Z" fill="#F7E9D4"/>
<rect x="189" y="3008" width="3006" height="80" fill="#E7D4BA"/>
<path d="M3536.38 1571.99C3550.42 1545.47 3537.91 1513.16 3524.09 1486.49C3476.65 1394.28 3409.41 1305.82 3313.45 1266.47C3289.73 1329 3310.41 1399.39 3338.37 1460.13C3369.7 1527.74 3410.5 1591.78 3465.23 1642.35C3472.84 1649.43 3482.09 1656.68 3492.43 1655.76C3506.68 1654.51 3514.84 1639.1 3518.97 1625.41C3537.36 1564.1 3526.59 1494.75 3490.69 1441.8" fill="#222B19"/>
<path d="M4143.56 572.484C4148.52 569.427 4153.82 566.29 4159.69 566.493C4166.35 566.719 4171.99 571.243 4176.5 576.094C4203.24 604.783 4205.04 647.1 4202.45 687.071C4202.11 692.407 4201.66 697.721 4201.21 702.944C4198.16 736.653 4194.44 771.615 4177.06 800.631C4128.67 881.385 4044.73 841.335 4038.64 762.894C4032.55 682.84 4078.01 612.928 4143.56 572.484Z" fill="#35441C"/>
<path d="M3646.72 1414.29C3669.74 1341.6 3729.9 1281.78 3802.75 1259.16C3842 1246.97 3890.27 1247.4 3918.29 1277.57C3939.09 1299.99 3943.32 1333.29 3940.65 1363.76C3934.09 1439.66 3888.71 1511.19 3822.99 1549.55C3810.75 1556.67 3797.74 1562.73 3784.06 1565.81C3741.25 1575.37 3695.65 1553.86 3668.18 1519.73C3640.71 1485.6 3629.26 1440.97 3626.92 1397.26C3625.59 1374.43 3627.04 1350.22 3639.38 1331.02C3651.84 1311.83 3678.3 1300.19 3698.43 1311.05" fill="#314A1F"/>
<path d="M3681.53 1318.32C3669.07 1318.32 3655.82 1326.65 3649.04 1337.22C3637.57 1354.89 3637.24 1378.25 3638.35 1396.62C3638.35 1398.54 3638.58 1400.43 3638.58 1402.31C3649.7 1371.61 3666.95 1343.41 3688.76 1319.35C3686.43 1318.65 3683.98 1318.32 3681.53 1318.32ZM3639.58 1412.04C3643.92 1453.25 3656.49 1487.03 3677.08 1512.56C3703.67 1545.75 3745.74 1562.67 3781.46 1554.66C3792.59 1552.19 3803.94 1547.44 3817.18 1539.67C3880.05 1503.04 3922.89 1435.26 3929.24 1362.77C3931.35 1339.2 3929.57 1306.65 3909.87 1285.36C3884.61 1258.16 3839.77 1259.65 3806.16 1270.09C3736.5 1291.69 3679.64 1348.27 3657.61 1417.75L3639.58 1412.04ZM3763.65 1579.45C3725.6 1579.45 3685.76 1559.97 3659.27 1526.91C3633.12 1494.44 3618.32 1451.02 3615.43 1397.88C3614.21 1376.06 3614.76 1348.03 3629.79 1324.83C3644.47 1302.06 3676.97 1286.51 3703.9 1301L3700.45 1307.24C3728.27 1280.38 3762.21 1259.79 3799.37 1248.26C3839.66 1235.75 3894.18 1234.85 3926.57 1269.81C3952.05 1297.25 3954.5 1336.59 3952.05 1364.75C3945.15 1444.52 3897.86 1519.12 3828.64 1559.43C3813.28 1568.4 3799.82 1573.97 3786.47 1576.97C3779.01 1578.64 3771.33 1579.45 3763.65 1579.45Z" fill="#A47444"/>
<path d="M3782.7 3524.99C3767.21 3227.8 3751.06 2920.48 3769.42 2617.64C3771.74 2578.66 3774.73 2538.99 3777.5 2500.61C3790.22 2331.01 3803.28 2155.64 3767.98 1989.24L3812.79 1979.74C3849.41 2152.53 3836.02 2331.2 3823.19 2504.01C3820.31 2542.23 3817.33 2581.75 3815 2620.4C3796.86 2920.68 3812.9 3226.68 3828.5 3522.6L3782.7 3524.99Z" fill="#A47444"/>
<path d="M3666.46 1038.4C3672.82 981.221 3695.04 925.892 3729.86 880.083C3772.05 824.419 3831.21 784.258 3889.59 745.861C3920.06 725.825 3954.1 705.154 3990.38 709.373C3994.73 709.875 3999.53 710.969 4002.32 714.362C4004.89 717.465 4005.34 721.762 4005.56 725.781C4010.02 817.967 3947.18 898.188 3887.8 968.832C3855.77 1006.9 3823.73 1044.97 3791.81 1083.03C3779.98 1097.15 3766.69 1112.11 3748.61 1115.91C3738.68 1118.01 3728.19 1116.38 3718.59 1113.05C3687.67 1102.41 3663.89 1073.36 3659.65 1040.95C3655.3 1008.55 3670.7 974.29 3697.71 955.94" fill="#1F2618"/>
<path d="M3981.26 1718.9C3997.36 1595.05 4013.46 1471.2 4029.56 1347.34C4036.05 1297.17 4042.19 1244.2 4022.4 1197.64C4014.13 1178.16 3998.81 1158.91 3977.68 1157.17C3956.66 1155.43 3937.98 1172.29 3929.71 1191.68C3921.43 1211.07 3921.21 1232.72 3919.53 1253.69C3913.38 1330.96 3886.55 1404.91 3871.34 1480.94C3856.13 1556.95 3853.78 1640.37 3892.81 1707.28C3903.54 1725.58 3921.32 1744 3942.23 1740.85C3966.49 1737.27 3976.89 1708.73 3981.26 1684.71C3987.63 1649.39 3991.1 1613.52 3991.54 1577.62" fill="#3C672A"/>
<path d="M3697.74 1144.53C3734.76 1087.99 3789.28 1044.57 3848.85 1012.67C3908.42 980.751 3973.14 959.672 4037.99 940.848C4053.47 936.35 4071.42 932.266 4084.88 941.162C4098.34 949.957 4101.82 968.961 4097.11 984.274C4092.28 999.587 4081.06 1011.94 4069.85 1023.32C3993.79 1100.11 3898.99 1157.53 3796.68 1192.36C3760.67 1204.62 3719.28 1213.68 3686.07 1195.05C3675.75 1189.23 3666.55 1180.68 3661.5 1169.94C3650.17 1146.25 3661.17 1116.13 3681.81 1100C3702.45 1083.86 3730.49 1079.75 3756.52 1082.32" fill="#6F972B"/>
<path d="M3534.92 1354.83C3541.24 1355.32 3548.1 1355.03 3553.44 1351.64C3560.96 1346.94 3564.01 1337.57 3566.08 1328.88C3578.62 1275.8 3574.26 1217.28 3550.28 1169.03C3542.44 1153.16 3532.3 1138.41 3520.21 1125.31C3466.16 1067.6 3281.23 1042.05 3285.37 1161.25C3288.31 1244.87 3462.89 1349.32 3534.92 1354.83Z" fill="#27351A"/>
<path d="M3930.21 608.596C4002.15 547.885 4069.99 482.162 4132.84 412.085C4167.96 372.911 4201.83 332.156 4242.29 298.618C4272.18 273.911 4305.48 253.374 4340.93 237.759C4316.95 418.768 4206.71 586.424 4050.11 680.264C4027.83 693.583 4003.85 705.755 3977.94 706.676C3934.75 708.222 3893.38 673.524 3887.25 630.781C3881.22 588.06 3911.45 543.225 3953.28 532.747" fill="#6F972B"/>
<path d="M3689.22 997.488C3739.62 977.505 3771.71 925.398 3781.86 872.132C3791.9 818.877 3783.62 764.012 3774.14 710.625C3765.32 660.866 3755.28 610.755 3734.55 564.702C3720.87 534.639 3697.83 503.507 3664.85 501.533C3630.55 499.459 3603.2 530.195 3588.43 561.184C3570.01 599.473 3561.96 642.571 3565.05 684.908C3566.81 709.732 3572.44 734.104 3577.95 758.355C3588.54 804.541 3599.12 850.737 3609.71 896.923C3617.54 930.592 3633.86 971.793 3668.38 972.929C3700.8 973.987 3720.21 938.245 3732.12 907.984" fill="#30451D"/>
<path d="M3166 1579.14C3158.55 1585.77 3151.2 1592.85 3145.91 1601.28C3127.65 1630.13 3132.19 1672.91 3104.96 1693.4C3126.14 1693.56 3147.1 1691.57 3167.95 1688.08C3218.94 1679.5 3268.75 1661.85 3317.69 1644.37C3335.19 1638.1 3352.9 1631.77 3368.57 1621.83C3424.96 1586.15 3425.83 1536.23 3361.33 1519.56C3292.73 1501.83 3216.46 1534.61 3166 1579.14Z" fill="#60832C"/>
<path d="M4016.72 1238.84C4052.32 1187.96 4089.2 1135.98 4140.24 1100.54C4195.43 1062.22 4263.76 1046.23 4330.93 1043.86C4398.22 1041.5 4465.05 1051.94 4531.42 1062.33C4547.44 1064.83 4564.26 1067.71 4576.82 1078C4591.91 1090.43 4597.44 1111.49 4596.18 1130.97C4593.07 1183.11 4547.9 1225.02 4498.24 1241.09C4448.46 1257.19 4394.77 1252.88 4342.8 1248.38C4243.82 1239.88 4144.96 1231.37 4046.1 1222.85C4038.73 1198.97 4061.2 1171.21 4086.08 1173.4" fill="#304732"/>
<path d="M3728.2 1551.89C3736.86 1444.07 3758.74 1337.32 3793.38 1234.88C3808.82 1189.22 3834.81 1137.68 3882.56 1130.81C3888 1130.03 3893.55 1129.93 3898.55 1132.16C3910.54 1137.55 3912.98 1153.18 3913.43 1166.3C3916.98 1256.1 3905.1 1345.72 3893.33 1434.79C3888.22 1473.16 3883.11 1511.51 3878 1549.87C3874.12 1579.23 3866.45 1613.7 3839.14 1625.07C3815.59 1634.85 3787.61 1621.11 3772.84 1600.3C3758.07 1579.5 3753.41 1553.41 3749.3 1528.27C3744.08 1497.84 3742.75 1459 3770.06 1444.53" fill="#1C2015"/>
<path d="M3947.02 1058.93C3963.82 1010.82 3929.44 959.625 3889.44 928.071C3878.73 919.665 3867.24 911.607 3860.14 900.034C3852.36 887.299 3850.78 871.759 3850.45 856.827C3849.21 794.216 3866.79 732.922 3884.25 672.778C3891.02 649.35 3903.07 621.379 3927.41 619.757C3941.95 618.788 3954.91 628.254 3966.41 637.247C4029.74 686.764 4092.96 736.269 4156.18 785.775C4167.22 794.43 4179.06 804.279 4181.76 818.05C4184.92 834.796 4173.53 850.528 4162.94 863.826C4119.1 918.042 4075.49 972.269 4031.77 1026.49C4026.47 1033.09 4021.06 1039.78 4014.08 1044.55C3996.5 1056.47 3970.13 1052.77 3956.71 1036.46C3943.08 1020.14 3944.32 993.568 3959.31 978.546" fill="#3C672A"/>
<path d="M3909.54 1757.69C3910.2 1763.52 3910.65 1769.67 3908.21 1775.01C3905.43 1781.15 3899.33 1785.09 3893.33 1788.13C3858.47 1805.71 3817.07 1803.27 3778.32 1797.34C3738.03 1791.16 3697.29 1781.21 3663.43 1758.42C3632.12 1737.35 3607.59 1705.81 3572.73 1691.41C3562.63 1687.28 3551.75 1684.52 3543.54 1677.5C3442.41 1591.43 3610.59 1478.53 3690.74 1479.89C3825.73 1482.19 3897.44 1642.01 3909.54 1757.69Z" fill="#6F972B"/>
<path d="M3415.93 1327.05C3396.91 1263.06 3374.98 1199.93 3350.23 1137.91C3341.69 1116.17 3332.18 1093.87 3315.1 1077.84C3294.35 1058.28 3264.96 1050.74 3236.53 1047.48C3146.08 1037.14 3055.83 1063.01 2968.51 1088.63C3001.91 1125.92 3031.09 1166.94 3055.4 1210.63C3076.37 1248.22 3094.63 1288.9 3127.06 1317.16C3148.45 1335.79 3174.72 1347.79 3200.87 1358.66C3230.37 1370.92 3260.42 1382.07 3290.79 1392.11C3311.21 1398.84 3333.15 1405.08 3353.69 1398.82C3379.41 1390.96 3395.29 1366.02 3408.91 1342.91C3418.64 1326.47 3428.58 1309.33 3430.31 1290.34C3432.04 1271.35 3423.07 1249.95 3405.02 1243.65" fill="#3C672A"/>
<path d="M4075.09 116.356C4081.07 94.7762 4097.55 69.2346 4119 75.4423C4129.61 78.4783 4136.38 88.3767 4141.91 97.7559C4179.61 161.13 4203.31 232.789 4210.76 306.14C4212.45 322.732 4213.24 339.571 4210.31 355.971C4205.45 383.883 4190.1 408.815 4172.95 431.444C4117.64 505.01 4042.36 561.398 3963.24 608.429C3940.56 621.849 3915.84 634.998 3889.65 632.921C3834.91 536.026 3976.45 501.658 4018.09 447.674C4084.57 361.513 4047.67 216.073 4075.09 116.356Z" fill="#8CB153"/>
<path d="M4007.91 1532.7C3964.15 1395.12 3932.66 1242.18 3989.35 1109.41C4019.27 1039.49 4072.92 980.019 4139.51 943.215C4150.76 1055.85 4097.44 1164.97 4090.36 1277.95C4084.96 1364.37 4106.1 1454.84 4074.95 1535.66C4055.49 1545.04 4030.85 1536.22 4016.91 1519.68C4003.07 1503.12 3998.23 1480.72 3997.33 1459.15C3996.55 1437.71 3999.81 1414.67 4014.21 1398.72" fill="#222B19"/>
<path d="M3168.08 829.499C3097.07 760.027 3025.96 690.555 2954.96 621.084C2934.73 601.358 2911.42 580.301 2883.21 580.578C2869.9 580.706 2857.13 585.741 2844.78 590.702C2796.45 610.012 2748.22 629.312 2700 648.612C2780.9 737.469 2869.58 819.12 2964.86 892.307C2984.23 907.221 3004.35 921.997 3027.56 929.779C3050.77 937.55 3077.91 937.347 3098.14 923.53C3117.73 910.17 3127.52 886.835 3135.5 864.49C3144.02 840.272 3151.47 813.978 3144.55 789.238C3137.63 764.509 3110.59 743.793 3086.53 752.746" fill="#3A582A"/>
<path d="M3613.37 1526.29C3715.14 1466.81 3769.66 1336.44 3740.47 1222.21C3734.09 1196.89 3723.95 1172.47 3719.55 1146.71C3715.03 1119.42 3716.9 1090.67 3706.44 1065.03C3687.71 1018.96 3626.8 995.787 3582.2 1017.85C3540.34 1038.57 3521.18 1087.06 3508.73 1132.09C3480.97 1232.8 3468.86 1337.84 3473.15 1442.23C3474.03 1463.36 3475.8 1485.46 3487.03 1503.41C3506.97 1535.43 3553.01 1544 3587.7 1529.06C3622.4 1514.13 3646.19 1480.9 3659.63 1445.65" fill="#222D19"/>
<path d="M4236.09 1406.89C4266.27 1410.63 4300.65 1425.04 4306.55 1454.88C4310.75 1476.11 4298.61 1496.84 4286.58 1514.82C4263.43 1549.46 4238.7 1583.03 4212.37 1615.35C4157.46 1682.89 3955.49 1767.68 3962.07 1616.11C3967.86 1483.53 4112.98 1391.62 4236.09 1406.89Z" fill="#30451D"/>
<path d="M3036.17 790.425C3026.42 786.806 3016.35 783.743 3005.97 784.45C2946 788.648 2946.32 900.454 2886.68 907.564C2863.87 910.273 2838.81 895.163 2819 906.803C2804.65 915.252 2800.58 933.842 2798.01 950.322C2793.51 977.843 2789.66 1008.39 2805.08 1031.59C2818.89 1052.21 2844.27 1061.21 2867.72 1068.92C2939.79 1092.44 3234.7 1235.58 3253.65 1102.91C3270.68 983.786 3138.64 828.697 3036.17 790.425Z" fill="#3D6A2B"/>
<path d="M3991.93 11.7771C4008.77 4.35608 4027.3 -3.22241 4045.26 1.42554C4074.45 9.00378 4086.13 43.7179 4090.96 73.5031C4116.1 227.897 4080.74 400.444 3964.88 505.54C3955.67 513.882 3945.45 522.022 3933.33 524.402C3817.02 546.979 3862.04 300.423 3867.09 247.667C3871.47 202.636 3861.7 158.357 3864.28 113.999C3868.44 44.3015 3932.21 37.9135 3991.93 11.7771Z" fill="#3D6A2B"/>
<path d="M4355.6 764.787C4381.31 734.107 4386.85 688.242 4418.44 663.649C4442.53 644.833 4477.01 643.669 4505.83 653.907C4534.77 664.145 4558.87 684.241 4581.12 705.329C4594.96 718.461 4609.37 735.56 4605.56 754.238C4603.37 764.626 4595.88 773.054 4587.92 780.064C4532.58 828.753 4447.84 832.65 4393.42 882.378C4322.17 947.485 4326.89 1079.91 4233.16 1123.13C4174.59 1150.18 4126.51 1115.98 4104.49 1060.38C4080.16 998.585 4093.07 923.527 4138.15 874.78C4197.18 810.836 4301.18 829.872 4355.6 764.787Z" fill="#2D372C"/>
<path d="M3262.21 524.218C3243.02 539.991 3225.69 559.929 3201.82 566.142C3154.62 578.384 3111.12 532.328 3062.4 530.791C3095.43 599.64 3154.62 655.518 3225.36 684.481C3253.38 695.949 3282.81 703.274 3312.13 710.567C3395.74 731.376 3584.33 775.328 3528.84 620.461C3483.93 495.168 3380.37 426.46 3262.21 524.218Z" fill="#496E29"/>
<path d="M3315.78 730.523C3274.72 695.34 3215.51 689.548 3162.02 697.101C3138.68 700.386 3115.12 706.091 3095.24 718.756C3075.35 731.431 3059.36 751.984 3056.98 775.454C3053.42 809.007 3076.87 838.744 3098.91 864.29C3140.95 913.089 3182.98 961.899 3225.01 1010.7C3277.96 1072.03 3429.68 1085.01 3426 975.201C3423.84 910.409 3365.17 772.839 3315.78 730.523Z" fill="#598341"/>
<path d="M4332.33 1135.54C4384.65 1074.38 4451.31 1027.53 4517.27 981.349C4573.82 941.692 4630.49 902.036 4687.16 862.38C4728.31 833.529 4769.46 804.689 4811.67 777.366C4853.28 750.43 4910.07 725.459 4948.87 756.415C4979.91 781.257 4979.08 831.495 4957.45 864.978C4935.94 898.462 4899.61 919.013 4864.57 937.695C4706.21 1021.8 4541.84 1094.56 4373.25 1155.19C4366.08 1157.77 4357.61 1160.21 4351.15 1156.03C4341.62 1149.73 4345.03 1134.76 4351.15 1125.05C4361.96 1107.94 4377.83 1094.06 4396.29 1085.66" fill="#3D6A2B"/>
<path d="M3737.15 1867.32C3707.89 1933.64 3744.86 2020.96 3812.88 2045.95C3820.48 2048.71 3828.74 2050.79 3836.45 2048.49C3846.5 2045.45 3852.98 2035.85 3858.45 2026.93C3889.39 1977.07 3921.11 1924.95 3927.03 1866.59C3928.26 1854.82 3928.48 1842.34 3934.96 1832.36C3939.21 1825.67 3945.8 1820.87 3951.94 1815.85C4022.19 1758.77 3985.22 1685.94 3898.44 1709.68C3837.68 1726.28 3761.39 1812.3 3737.15 1867.32Z" fill="#1B1F15"/>
<path d="M2842.59 1391.48C2817.73 1409.98 2793.74 1431.66 2782.39 1460.4C2771.04 1489.14 2776.23 1526.42 2801.41 1544.26C2830.49 1564.83 2872.53 1551.49 2898.58 1527.2C2924.63 1502.91 2940.73 1469.92 2963.54 1442.53C3003.32 1394.61 3062.66 1365.79 3123.51 1352.64C3184.47 1339.49 3247.48 1340.75 3309.74 1344.43C3329.3 1345.58 3349.95 1346.74 3367.24 1337.61C3434.15 1302.33 3353.62 1277.9 3320.44 1279.76C3270.29 1282.57 3221.11 1277.74 3170.42 1279.08C3053.14 1282.2 2936.63 1321.11 2842.59 1391.48Z" fill="#60832C"/>
<path d="M3353.14 640.503C3356.64 621.59 3361.35 602.709 3369.89 585.514C3405.57 514.184 3497.4 491.407 3576.97 495.194C3588.79 495.774 3601.05 496.879 3611.23 502.987C3628.63 513.516 3634.87 535.505 3638.48 555.579C3656.87 660.62 3641.66 767.643 3616.37 870.178C3603.57 922.19 3586.6 1070.96 3511.63 1067.6C3451.54 1064.88 3405.79 960.346 3386.63 915.579C3349.64 829.243 3336.39 733.22 3353.14 640.503Z" fill="#8CB153"/>
<path d="M3813.42 89.6162C3848.18 94.9308 3879.71 114.908 3902.77 141.436C3919.93 161.223 3934.86 186.069 3959.93 193.445C3976.98 227.216 3965.72 267.961 3952.02 303.19C3938.31 338.42 3921.83 375.589 3929.4 412.646C3935.75 443.831 3958.7 471.24 3958.04 503.06C3957.48 527.594 3942.33 550 3923.05 565.153C3903.78 580.317 3880.38 589.386 3857.54 598.143C3836.48 606.199 3812.3 614.065 3792.14 603.959C3655.65 535.627 3597.05 56.481 3813.42 89.6162Z" fill="#8CB153"/>
<path d="M4243.95 928.959C4212.74 875.396 4169.12 828.272 4148.35 769.832C4127.58 711.391 4138.94 633.749 4194.6 606.25C4249.92 578.855 4314.54 613.802 4366.18 647.648C4418.4 681.826 4473.15 718.851 4499.54 775.421C4523.53 827.01 4519.74 888.595 4498.63 941.435C4477.51 994.275 4440.44 1039.37 4399.47 1078.86C4265.76 1207.75 4286.99 1002.6 4243.95 928.959Z" fill="#567E2B"/>
<path d="M3561.41 1163.01C3639.79 1130.08 3697.09 1051.65 3704.77 966.906C3708.17 928.433 3696.65 882.199 3660.42 868.895C3625.52 856.107 3588.64 880.816 3561.96 906.655C3535.29 932.494 3506.97 962.966 3469.87 964.601C3435.73 966.105 3406.2 942.33 3373.6 931.946C3332.55 918.894 3285.13 928.674 3252.53 956.874C3238.92 968.696 3227.72 983.997 3223.77 1001.64C3213.78 1047.67 3255.82 1088.41 3297.64 1110.06C3328.93 1126.21 3362.41 1137.87 3396.98 1144.53C3426.18 1150.17 3457.57 1152.94 3480.96 1171.29C3520.8 1202.51 3519.04 1262.02 3515.75 1312.47C3512.46 1362.94 3517.18 1424.13 3561.74 1448.03C3530.13 1397.5 3539.9 1331.56 3559.66 1275.34C3579.42 1219.1 3608.18 1164.67 3612.35 1105.21" fill="#597929"/>
<path d="M4105.77 1744.61C4128.17 1755.05 4154.41 1743.92 4179.07 1745.19C4215.73 1747.05 4247.18 1779.27 4251.82 1815.63C4256.34 1851.99 4235.98 1889.26 4204.76 1908.38C4173.53 1927.5 4133.14 1929.27 4098.86 1916.69C4082.57 1910.74 4066.62 1900.96 4059.04 1885.41C4049.43 1865.73 4050.11 1835.07 4028.61 1831.09C4016.85 1828.92 4006.1 1837.43 3994.78 1841.4C3964.58 1852.04 3931.21 1827.08 3920.91 1796.75C3903.49 1745.99 3914.01 1668.75 3975.33 1665.02C4040.49 1661.09 4058.48 1722.57 4105.77 1744.61Z" fill="#3D6A2B"/>
<path d="M4423.61 1287.01C4493.25 1280.74 4563.23 1288.05 4632.52 1296.74C4647.26 1298.59 4662.11 1300.54 4676.04 1305.73C4708.31 1317.76 4733.96 1351.26 4728.97 1385.39C4723.86 1419.79 4690.43 1444.16 4656.31 1450.84C4622.19 1457.51 4587.14 1450.56 4552.79 1445.3C4397.38 1421.57 4252.54 1441.77 4100.85 1473.2C4124.64 1367.85 4334.94 1294.99 4423.61 1287.01Z" fill="#3C672A"/>
<path d="M3553.28 1788.09C3561.49 1832.92 3563.35 1884.88 3531.84 1917.89C3505.04 1946.19 3462.05 1951.31 3423 1950.5C3389.74 1949.81 3353.32 1944.57 3330.78 1920.04C3288.23 1873.63 3323.45 1797.44 3305.29 1737.19C3298.29 1714 3283.31 1693.87 3275.54 1670.93C3221.61 1511.77 3445.97 1440.2 3561.71 1480.86C3607.21 1496.89 3646.81 1527.23 3636.42 1579.96C3618.81 1668.91 3533.37 1681.01 3553.28 1788.09Z" fill="#30451D"/>
<path d="M3797.26 410.746C3802.04 390.045 3808.6 365.652 3794.59 349.642C3783.58 337.035 3764.79 335.856 3748.01 335.622C3657.17 334.355 3566.34 333.077 3475.39 331.809C3516.86 394.047 3585.24 434.561 3626.49 496.933C3669.85 562.418 3746.78 903.594 3881.76 762.607C3925.67 716.668 3938.35 618.697 3892.65 570.3C3866.41 542.55 3826.5 543.628 3805.6 508.118C3789.03 480.1 3790.14 441.321 3797.26 410.746Z" fill="#51852F"/>
<path d="M4255.25 396.276C4259.54 383.306 4264.3 369.616 4274.86 361.007C4292.03 347.109 4317.78 351.401 4337.74 342.155C4392.85 316.759 4364.42 223.031 4408.74 181.625C4433.91 158.005 4477.88 157.309 4495.4 127.458C4504.57 111.773 4503.87 91.3427 4514.78 76.8989C4526.73 61.2021 4548.42 57.4781 4568.03 54.9374C4620.82 48.0461 4673.72 41.1547 4726.5 34.2634C4618.49 234.238 4468.49 417.878 4269.52 527.686C4216.97 556.69 4153.74 591.192 4149.68 651.103C4153.39 596.158 4145.5 570.913 4185.99 525.134C4222.88 483.38 4235.76 454.701 4255.25 396.276Z" fill="#8CB153"/>
<path d="M4039.73 1357.81C4044.07 1286.18 4100.97 1226.29 4166.67 1197.39C4232.37 1168.51 4305.84 1164.76 4377.6 1161.95C4389.6 1161.48 4402.28 1161.11 4413.13 1166.19C4431.76 1174.84 4440.56 1198.04 4437.02 1218.3C4433.59 1238.55 4420.22 1255.87 4404.57 1269.21C4352.12 1314.03 4277.39 1319.91 4214.66 1348.74C4134.22 1385.73 4078.69 1457.66 4028.88 1528.14C4055.5 1471.37 4036.3 1417.69 4039.73 1357.81Z" fill="#222B19"/>
<path d="M3399.08 3685.32C3640.01 3861.89 3977.22 3830.87 4183.99 3616.44C4193.24 3606.82 4171.82 3605.43 4165.84 3611.53C3966.63 3818.1 3647.34 3842.99 3416.44 3673.72C3409.79 3668.82 3389.72 3678.43 3399.08 3685.32Z" fill="white"/>
<rect x="3535" y="3344" width="571" height="616" rx="100" fill="#D3844A"/>
</svg>
