<svg width="906" height="511" viewBox="0 0 906 511" fill="none" xmlns="http://www.w3.org/2000/svg">
<g clip-path="url(#clip0)">
<path d="M834.78 509.5C848.034 509.5 858.78 507.709 858.78 505.5C858.78 503.291 848.034 501.5 834.78 501.5C821.525 501.5 810.78 503.291 810.78 505.5C810.78 507.709 821.525 509.5 834.78 509.5Z" fill="#F2F2F2"/>
<path d="M862.78 123.5H860.78V165.5H862.78V123.5Z" fill="#F2F2F2"/>
<path d="M840.78 96.5H828.78V510.5H840.78V96.5Z" fill="#F2F2F2"/>
<path d="M889.717 129H779.842C778.637 129 777.445 128.744 776.346 128.248C775.248 127.753 774.267 127.029 773.469 126.125C772.672 125.222 772.075 124.159 771.72 123.007C771.364 121.856 771.258 120.642 771.407 119.446L785.407 7.4458C785.667 5.39121 786.667 3.50175 788.219 2.13118C789.772 0.760613 791.771 0.00292961 793.842 0H875.717C877.788 0.00292932 879.787 0.760613 881.34 2.13118C882.892 3.50175 883.892 5.39121 884.152 7.4458L898.152 119.446C898.301 120.642 898.195 121.856 897.839 123.007C897.484 124.159 896.887 125.222 896.09 126.125C895.292 127.029 894.311 127.753 893.213 128.248C892.114 128.744 890.923 129 889.717 129V129Z" fill="#F2F2F2"/>
<path d="M861.78 172.5C865.646 172.5 868.78 169.366 868.78 165.5C868.78 161.634 865.646 158.5 861.78 158.5C857.914 158.5 854.78 161.634 854.78 165.5C854.78 169.366 857.914 172.5 861.78 172.5Z" fill="#F2F2F2"/>
<path d="M125.56 399.364C120.508 416.891 105.757 429.159 90.3689 439.581C88.2203 441.037 86.0711 442.459 83.9212 443.847C83.9066 443.854 83.8916 443.867 83.8769 443.874C83.7734 443.94 83.6698 444.007 83.5734 444.074C83.1297 444.36 82.6858 444.646 82.2458 444.929L82.4875 445.037C82.4875 445.037 82.7249 445.164 82.4652 445.058C82.3879 445.025 82.3069 444.996 82.2298 444.964C73.2905 441.358 64.1925 437.487 57.3418 430.733C50.2353 423.72 46.0823 412.719 49.9304 403.505C50.4362 402.298 51.0751 401.152 51.8352 400.086C52.1474 399.64 52.4835 399.212 52.8336 398.793C54.9562 396.202 57.7305 394.224 60.8713 393.061C64.0121 391.898 67.406 391.592 70.7039 392.176C74.0019 392.759 77.085 394.211 79.6361 396.381C82.1872 398.551 84.1142 401.361 85.2192 404.522C86.3496 393.997 77.6704 385.18 69.3178 378.674C60.9616 372.172 51.4665 365.091 49.8511 354.624C48.9489 348.8 50.9741 343.156 54.6633 338.625C54.7775 338.487 54.8916 338.35 55.0092 338.216C59.5 332.939 65.8163 329.551 72.6964 328.727C85.5096 327.396 97.9557 334.178 107.264 343.087C122.246 357.42 131.303 379.437 125.56 399.364Z" fill="#F2F2F2"/>
<path d="M101.476 376.44C103.935 380.266 105.823 384.43 107.08 388.801C108.144 392.707 108.617 396.751 108.484 400.798C108.141 409.124 105.804 417.247 101.668 424.482C98.5529 429.971 94.7564 435.044 90.3688 439.581C88.2203 441.037 86.0711 442.459 83.9212 443.847C83.9066 443.854 83.8916 443.867 83.8768 443.874C83.7734 443.94 83.6698 444.007 83.5734 444.074C83.1297 444.36 82.6858 444.646 82.2458 444.929C82.2458 444.929 82.7248 445.164 82.4652 445.058C82.3879 445.025 82.3069 444.996 82.2298 444.964C83.031 438.395 82.2461 431.73 79.9409 425.527C77.6357 419.324 73.8774 413.764 68.9808 409.313C64.0724 404.929 58.1976 401.768 51.8352 400.086C52.1473 399.64 52.4835 399.212 52.8335 398.793C55.2908 399.482 57.6823 400.387 59.9802 401.497C68.1943 405.442 74.9201 411.926 79.162 419.991C82.9686 427.313 84.6069 435.57 83.8845 443.792C84.2518 443.459 84.6195 443.119 84.9762 442.782C91.7691 436.449 97.8025 429.18 101.886 420.79C105.428 413.686 107.169 405.819 106.956 397.883C106.622 389.23 103.175 381.214 98.1827 374.237C92.7115 366.792 86.2481 360.131 78.9722 354.438C71.6396 348.565 63.6159 343.612 55.08 339.688C54.8875 339.598 54.7369 339.437 54.6593 339.24C54.5818 339.042 54.5832 338.822 54.6633 338.625C54.7203 338.448 54.8446 338.302 55.0092 338.216C55.094 338.18 55.1858 338.163 55.278 338.167C55.3702 338.17 55.4603 338.195 55.5417 338.239C56.5956 338.724 57.6421 339.216 58.6803 339.729C67.3275 344.003 75.4102 349.334 82.7428 355.601C89.8256 361.64 96.4936 368.539 101.476 376.44Z" fill="white"/>
<path d="M52.6252 443.5H107.989C108.596 443.5 109.197 443.629 109.75 443.879C110.304 444.129 110.798 444.493 111.2 444.948C111.602 445.404 111.902 445.939 112.081 446.52C112.26 447.1 112.314 447.712 112.239 448.314L105.184 504.748C105.054 505.783 104.55 506.736 103.768 507.426C102.985 508.117 101.978 508.499 100.935 508.5H59.6795C58.636 508.499 57.6288 508.117 56.8465 507.426C56.0643 506.736 55.5605 505.783 55.4297 504.748L48.3754 448.314C48.3 447.712 48.3537 447.1 48.5328 446.52C48.712 445.939 49.0125 445.404 49.4144 444.948C49.8163 444.493 50.3104 444.129 50.864 443.879C51.4176 443.629 52.0179 443.5 52.6252 443.5V443.5Z" fill="#F2F2F2"/>
<path d="M233.138 508.934C236.965 508.934 240.067 505.832 240.067 502.005C240.067 498.178 236.965 495.076 233.138 495.076C229.311 495.076 226.209 498.178 226.209 502.005C226.209 505.832 229.311 508.934 233.138 508.934Z" fill="#CCCCCC"/>
<path d="M670.802 508.934C674.629 508.934 677.731 505.832 677.731 502.005C677.731 498.178 674.629 495.076 670.802 495.076C666.975 495.076 663.873 498.178 663.873 502.005C663.873 505.832 666.975 508.934 670.802 508.934Z" fill="#CCCCCC"/>
<path d="M360.164 405.58H251.615C246.563 405.575 241.72 403.565 238.148 399.993C234.576 396.421 232.566 391.578 232.561 386.526V312.62C232.566 307.568 234.576 302.725 238.148 299.153C241.72 295.581 246.563 293.572 251.615 293.566H360.164C365.216 293.572 370.059 295.581 373.631 299.153C377.203 302.725 379.213 307.568 379.218 312.62V386.526C379.213 391.578 377.203 396.421 373.631 399.993C370.059 403.565 365.216 405.575 360.164 405.58V405.58Z" fill="#E6E6E6"/>
<path d="M506.245 406.158H397.695C392.643 406.152 387.8 404.143 384.228 400.571C380.656 396.999 378.647 392.156 378.641 387.104V313.198C378.647 308.146 380.656 303.303 384.228 299.731C387.8 296.159 392.643 294.149 397.695 294.144H506.245C511.297 294.149 516.14 296.159 519.712 299.731C523.284 303.303 525.293 308.146 525.299 313.198V387.104C525.293 392.156 523.284 396.999 519.712 400.571C516.14 404.143 511.297 406.152 506.245 406.158V406.158Z" fill="#E6E6E6"/>
<path d="M652.325 406.735H543.775C538.724 406.73 533.881 404.72 530.309 401.148C526.736 397.576 524.727 392.733 524.721 387.681V313.775C524.727 308.723 526.736 303.88 530.309 300.308C533.881 296.736 538.724 294.727 543.775 294.721H652.325C657.377 294.727 662.22 296.736 665.792 300.308C669.364 303.88 671.374 308.723 671.379 313.775V387.681C671.374 392.733 669.364 397.576 665.792 401.148C662.22 404.72 657.377 406.73 652.325 406.735V406.735Z" fill="#E6E6E6"/>
<path d="M693.898 401.539H215.816V501.428H693.898V401.539Z" fill="#E6E6E6"/>
<path d="M233.138 502.005H212.352C201.845 502.005 193.298 492.3 193.298 480.371V376.133H233.138V502.005Z" fill="#E6E6E6"/>
<path d="M691.588 502.005H670.802V359.966H710.642V477.592C710.642 491.054 702.094 502.005 691.588 502.005Z" fill="#E6E6E6"/>
<path d="M379.796 422.325H233.138V391.146C282.024 363.103 330.91 363.103 379.796 391.146V422.325Z" fill="#CCCCCC"/>
<path d="M525.876 422.902H379.218V391.723C428.105 363.681 476.991 363.681 525.876 391.723V422.902Z" fill="#CCCCCC"/>
<path d="M671.957 423.48H525.299V392.3C574.185 364.258 623.071 364.258 671.957 392.3V423.48Z" fill="#CCCCCC"/>
<path d="M204.846 402.693C223.66 402.693 238.912 387.442 238.912 368.627C238.912 349.813 223.66 334.561 204.846 334.561C186.031 334.561 170.78 349.813 170.78 368.627C170.78 387.442 186.031 402.693 204.846 402.693Z" fill="#CCCCCC"/>
<path d="M703.713 401.539C722.528 401.539 737.78 386.287 737.78 367.473C737.78 348.658 722.528 333.406 703.713 333.406C684.899 333.406 669.647 348.658 669.647 367.473C669.647 386.287 684.899 401.539 703.713 401.539Z" fill="#CCCCCC"/>
<path d="M905 510.5H1C0.734784 510.5 0.480429 510.395 0.292892 510.207C0.105356 510.02 0 509.765 0 509.5C0 509.235 0.105356 508.98 0.292892 508.793C0.480429 508.605 0.734784 508.5 1 508.5H905C905.265 508.5 905.52 508.605 905.707 508.793C905.895 508.98 906 509.235 906 509.5C906 509.765 905.895 510.02 905.707 510.207C905.52 510.395 905.265 510.5 905 510.5Z" fill="#3F3D56"/>
</g>
<defs>
<clipPath id="clip0">
<rect width="906" height="510.5" fill="white"/>
</clipPath>
</defs>
</svg>
