<?xml version="1.0" encoding="iso-8859-1"?>
<!-- Generator: Adobe Illustrator 19.0.0, SVG Export Plug-In . SVG Version: 6.00 Build 0)  -->
<svg version="1.1" id="Layer_1" xmlns="http://www.w3.org/2000/svg" xmlns:xlink="http://www.w3.org/1999/xlink" x="0px" y="0px"
	 viewBox="0 0 512 512" style="enable-background:new 0 0 512 512;" xml:space="preserve">
<g>
	<g>
		<g>
			<path d="M110.933,221.786c-4.719,0-8.533,3.823-8.533,8.533v51.2c0,4.71,3.814,8.533,8.533,8.533s8.533-3.823,8.533-8.533v-51.2
				C119.467,225.609,115.652,221.786,110.933,221.786z"/>
			<path d="M503.467,247.386H216.849l70.784-70.775c3.336-3.337,3.336-8.73,0-12.066c-3.337-3.336-8.73-3.336-12.066,0
				l-85.333,85.325c-0.273,0.273-0.384,0.623-0.606,0.922c-0.461,0.589-0.947,1.152-1.229,1.843
				c-0.444,1.05-0.666,2.159-0.666,3.277v0.009c0,0.162,0.085,0.299,0.094,0.452c0.051,0.947,0.188,1.894,0.555,2.782
				c0.444,1.075,1.092,2.039,1.911,2.842l85.274,85.291c1.664,1.664,3.849,2.5,6.033,2.5c2.185,0,4.369-0.836,6.033-2.5
				c3.336-3.328,3.336-8.73,0-12.066l-70.75-70.767h286.583c4.719,0,8.533-3.823,8.533-8.533
				C512,251.209,508.186,247.386,503.467,247.386z"/>
			<path d="M111.855,2.309L31.164,34.59C8.448,43.004,0,54.422,0,76.719v358.477c0,22.298,8.448,33.715,30.967,42.061l81.05,32.427
				c4.011,1.519,8.038,2.287,11.972,2.287c17.161,0,29.611-14.336,29.611-34.091V34.053C153.6,9.775,134.246-6.114,111.855,2.309z
				 M136.533,477.88c0,10.18-5.043,17.024-12.544,17.024c-1.86,0-3.874-0.401-5.794-1.118l-81.092-32.452
				c-16.102-5.965-20.036-11.102-20.036-26.138V76.719c0-15.036,3.934-20.164,20.233-26.206l80.734-32.29
				c2.082-0.785,4.087-1.186,5.956-1.186c7.501,0,12.544,6.835,12.544,17.016V477.88z"/>
			<path d="M332.8,298.586c-4.719,0-8.533,3.823-8.533,8.533v128c0,14.114-11.486,25.6-25.6,25.6H179.2
				c-4.719,0-8.533,3.823-8.533,8.533s3.814,8.533,8.533,8.533h119.467c23.526,0,42.667-19.14,42.667-42.667v-128
				C341.333,302.409,337.519,298.586,332.8,298.586z"/>
			<path d="M178.133,51.119h120.533c14.114,0,25.6,11.486,25.6,25.6v128c0,4.71,3.814,8.533,8.533,8.533
				c4.719,0,8.533-3.823,8.533-8.533v-128c0-23.526-19.14-42.667-42.667-42.667H178.133c-4.719,0-8.533,3.823-8.533,8.533
				S173.414,51.119,178.133,51.119z"/>
		</g>
	</g>
</g>
<g>
</g>
<g>
</g>
<g>
</g>
<g>
</g>
<g>
</g>
<g>
</g>
<g>
</g>
<g>
</g>
<g>
</g>
<g>
</g>
<g>
</g>
<g>
</g>
<g>
</g>
<g>
</g>
<g>
</g>
</svg>
