<svg width="470" height="470" viewBox="0 0 470 470" fill="none" xmlns="http://www.w3.org/2000/svg">
<g clip-path="url(#clip0)">
<path d="M426.667 64H42.667C19.093 64 0 83.093 0 106.667V362.667C0 386.24 19.093 405.334 42.667 405.334H426.667C450.24 405.334 469.334 386.241 469.334 362.667V106.667C469.333 83.093 450.24 64 426.667 64ZM97.6009 341.333C92.608 341.333 89.7994 335.591 92.8648 331.649L155.421 251.22C157.774 248.196 162.319 248.121 164.77 251.066L208.561 303.703C211.012 306.65 215.56 306.574 217.911 303.547L283.178 219.54C285.606 216.415 290.341 216.455 292.716 219.621L376.8 331.733C379.767 335.688 376.944 341.333 372 341.333H97.6009Z" fill="#FFC350"/>
</g>
<defs>
<clipPath id="clip0">
<rect width="469.333" height="469.333" fill="white"/>
</clipPath>
</defs>
</svg>
