            <svg class="menu-icon plant-icon" viewBox="0 0 512 512">
              <path
                d="M452.65,244.269c-3.161-3.162-7.571-4.75-12.019-4.327c-1.117,0.105-27.724,2.669-59.144,9.733
                c-43.759,9.838-74.447,23.329-91.214,40.095c-27.698,27.698-40.937,64.047-35.546,95.497c-10.095,7.182-29.778,20.24-55.574,32.792
                c35.565-59.821,49.55-108.522,41.603-145.143c-5.457-25.145-19.795-35.79-23.26-38.039c-0.106-0.069-0.212-0.137-0.32-0.204
                c-0.112-0.069-0.21-0.13-0.281-0.172l-0.004,0.006c-0.179-0.105-0.354-0.215-0.538-0.313c-0.17-0.093-17.32-9.577-39.841-33.815
                c-14.688-15.809-33.841-40.351-52.186-75.603l122.332,88.56c3.884,2.812,8.883,3.596,13.442,2.112
                c4.562-1.486,8.136-5.063,9.619-9.625c6.978-21.47,6.524-46.043-1.312-71.064c-7.777-24.835-22.384-48.457-42.24-68.314
                c-22.123-22.123-63.078-40.026-121.729-53.212C61.925,3.673,25.977,0.21,24.467,0.067c-4.449-0.42-8.857,1.165-12.019,4.327
                C9.287,7.555,7.7,11.962,8.121,16.412c0.143,1.51,3.606,37.458,13.165,79.972c13.187,58.65,31.09,99.606,53.213,121.729
                c19.856,19.856,43.479,34.463,68.314,42.241c13.255,4.151,26.383,6.23,38.992,6.23c7.972,0,15.732-0.848,23.189-2.512
                c2.396,3.253,5.305,8.699,6.831,17.154c3.687,20.433,0.33,68.429-63.567,160.305c-3.691,5.308-3.566,12.384,0.311,17.559
                c2.888,3.854,7.372,6.007,12.006,6.007c1.588,0,3.194-0.253,4.759-0.776c64.718-21.659,110.809-57.362,115.371-60.971l74.684-54.066
                c-28.041,46.434-56.616,62.599-56.926,62.77c-5.31,2.829-8.415,8.558-7.889,14.551c0.526,5.994,4.584,11.092,10.306,12.952
                c7.938,2.58,16.322,3.832,24.912,3.832c27.806,0,57.731-13.117,81.357-36.743c16.767-16.767,30.257-47.455,40.096-91.214
                c7.064-31.42,9.628-58.026,9.733-59.144C457.398,251.837,455.811,247.43,452.65,244.269z"
              />
            </svg>