<svg class="menu-icon automation-icon" viewBox="0 0 64 64">
              <circle class="automation-ball" cx="9" cy="9" r="6" />
              <circle class="automation-ball" cx="37" cy="9" r="6" />
              <g class="automation-arrow">
                <path d="m14 8h15v2h-15z" />
                <path d="m32 54h15v2h-15z" />
                <path
                  d="m49.5 33h-18.5v-2h18.5c5.79004 0 10.5-4.71045 10.5-10.5s-4.70996-10.5-10.5-10.5h-7.5v-2h7.5c6.89258 0 12.5 5.60742 12.5 12.5s-5.60742 12.5-12.5 12.5z"
                />
                <path
                  d="m19 56h-4.5c-6.89258 0-12.5-5.60742-12.5-12.5s5.60742-12.5 12.5-12.5h3.5v2h-3.5c-5.79004 0-10.5 4.71045-10.5 10.5s4.70996 10.5 10.5 10.5h4.5z"
                />
              </g>
              <circle class="automation-ball" cx="27" cy="55" r="6" />
              <circle class="automation-ball-2" cx="55" cy="55" r="6" />
              <circle class="automation-ball" cx="23" cy="32" r="6" />
              <path
                class="automation-ball-shadow"
                d="m12.11865 3.88135c.55548.9096.88135 1.97479.88135 3.11865 0 3.31372-2.68628 6-6 6-1.14386 0-2.20905-.32587-3.11865-.88135 1.05371 1.72559 2.94879 2.88135 5.11865 2.88135 3.31372 0 6-2.68628 6-6 0-2.16986-1.15576-4.06494-2.88135-5.11865z"
              />
              <path
                class="automation-ball-shadow"
                d="m40.11865 3.88135c.55548.9096.88135 1.97479.88135 3.11865 0 3.31372-2.68628 6-6 6-1.14386 0-2.20905-.32587-3.11865-.88135 1.05371 1.72559 2.94879 2.88135 5.11865 2.88135 3.31372 0 6-2.68628 6-6 0-2.16986-1.15576-4.06494-2.88135-5.11865z"
              />
              <path
                class="automation-ball-shadow"
                d="m30.11865 49.88135c.55548.9096.88135 1.97479.88135 3.11865 0 3.31372-2.68628 6-6 6-1.14386 0-2.20905-.32587-3.11865-.88135 1.05371 1.72559 2.94879 2.88135 5.11865 2.88135 3.31372 0 6-2.68628 6-6 0-2.16986-1.15576-4.06494-2.88135-5.11865z"
              />
              <path
                class="automation-ball-2-shadow"
                d="m58.11865 49.88135c.55548.9096.88135 1.97479.88135 3.11865 0 3.31372-2.68628 6-6 6-1.14386 0-2.20905-.32587-3.11865-.88135 1.05371 1.72559 2.94879 2.88135 5.11865 2.88135 3.31372 0 6-2.68628 6-6 0-2.16986-1.15576-4.06494-2.88135-5.11865z"
              />
              <path
                class="automation-ball-shadow"
                d="m26.11865 26.88135c.55548.9096.88135 1.97479.88135 3.11865 0 3.31372-2.68628 6-6 6-1.14386 0-2.20905-.32587-3.11865-.88135 1.05371 1.72559 2.94879 2.88135 5.11865 2.88135 3.31372 0 6-2.68628 6-6 0-2.16986-1.15576-4.06494-2.88135-5.11865z"
              />
              <path
                class="automation-arrow"
                d="m26.70703 12.70703-1.41406-1.41406 2.29297-2.29297-2.29297-2.29297 1.41406-1.41406 3.70703 3.70703z"
              />
              <path
                class="automation-arrow"
                d="m33.29297 35.70703-3.70703-3.70703 3.70703-3.70703 1.41406 1.41406-2.29297 2.29297 2.29297 2.29297z"
              />
              <path
                class="automation-arrow"
                d="m44.70703 58.70703-1.41406-1.41406 2.29297-2.29297-2.29297-2.29297 1.41406-1.41406 3.70703 3.70703z"
              />
              <path
                class="automation-arrow"
                d="m16.70703 58.70703-1.41406-1.41406 2.29297-2.29297-2.29297-2.29297 1.41406-1.41406 3.70703 3.70703z"
              />
            </svg>