 <svg
        class="menu-icon"
        width="335"
        height="335"
        x="0px"
        y="0px"
        viewBox="0 0 512 512"
        style="enable-background:new 0 0 512 512;"
        xml:space="preserve"
      >
        <path
          class="big-gear-main"
          d="M393.926,149.31h-21.707c-3.508-12.39-8.458-24.166-14.669-35.157l15.252-15.146
	c6.211-6.157,6.211-16.196,0.01-22.364l-40.404-40.139c-6.147-6.115-16.068-6.115-22.216-0.01l-15.399,15.306
	c-11.055-6.169-22.916-11.087-35.37-14.574V15.761C259.423,7.059,252.364,0,243.662,0h-57.235c-8.702,0-15.761,7.059-15.761,15.761
	v21.463c-12.476,3.487-24.315,8.405-35.39,14.574l-15.38-15.294c-6.147-6.105-16.068-6.105-22.216,0L57.276,76.643
	c-6.201,6.169-6.201,16.206,0,22.364l15.252,15.146c-6.201,10.991-11.161,22.767-14.68,35.157H36.162
	c-8.702,0-15.761,7.049-15.761,15.761v56.642c0,8.702,7.059,15.761,15.761,15.761h21.686c3.519,12.38,8.48,24.166,14.68,35.147
	l-15.252,15.146c-6.201,6.169-6.201,16.206,0,22.364L97.68,350.27c6.147,6.105,16.068,6.105,22.216-0.01l15.38-15.284
	c11.076,6.169,22.916,11.087,35.39,14.595v21.453c0,4.664,2.024,8.85,5.247,11.723c2.788,2.523,6.476,4.038,10.514,4.038h57.235
	c8.702,0,15.761-7.059,15.761-15.761v-21.453c12.454-3.509,24.315-8.427,35.37-14.595l15.326,15.22l0.074,0.074
	c6.147,6.105,16.068,6.105,22.216,0l20.499-20.361l19.895-19.778c6.211-6.159,6.211-16.196,0-22.364l-15.252-15.146
	c6.211-10.981,11.161-22.767,14.669-35.147h21.707c6.995,0,12.931-4.558,14.987-10.875c0.499-1.537,0.774-3.18,0.774-4.886v-56.642
	C409.687,156.358,402.628,149.31,393.926,149.31z M215.045,265.731c-2.745,0-5.459-0.148-8.129-0.455
	c-36.26-4.028-64.453-34.68-64.453-71.884c0-39.959,32.496-72.349,72.583-72.349s72.562,32.391,72.562,72.349
	c0,12.306-3.084,23.901-8.532,34.055C266.864,250.235,242.772,265.731,215.045,265.731z"
        />
        <path
          class="small-gear-shadow"
          d="M402.342,231.58l-2.088,2.078c-1.346-0.583-2.703-1.134-4.07-1.674v-2.671
	c0-17.139-13.937-31.087-31.087-31.087h-43.605c-17.138,0-31.087,13.949-31.087,31.087v2.671c-1.357,0.54-2.724,1.091-4.07,1.674
	l-2.088-2.067c-1.59-1.579-3.329-2.968-5.173-4.144c-12.21,22.788-36.302,38.284-64.029,38.284c-2.745,0-5.459-0.148-8.129-0.455
	c-4.187,5.405-6.444,12.009-6.444,18.951c0,8.341,3.265,16.174,9.179,22.046l1.866,1.854c-0.551,1.283-1.092,2.565-1.611,3.858H207
	c-17.138,0-31.087,13.949-31.087,31.087v39.673c2.788,2.523,6.476,4.038,10.514,4.038h57.235c8.702,0,15.761-7.059,15.761-15.761
	V349.57c12.454-3.509,24.315-8.427,35.37-14.595l15.326,15.22c5.607-12.698,18.368-21.579,33.175-21.579
	c3.328,0,6.55,0.445,9.614,1.293l19.895-19.778c6.211-6.159,6.211-16.196,0-22.364l-15.252-15.146
	c6.211-10.981,11.161-22.767,14.669-35.147h21.707c6.995,0,12.931-4.558,14.987-10.875
	C406.539,227.934,404.334,229.609,402.342,231.58z"
        />
        <path
          class="big-gear-ring"
          d="M215.045,80.532c-62.334,0-112.86,50.526-112.86,112.86c0,60.458,47.547,109.807,107.294,112.701
	c1.844,0.095,3.699,0.138,5.564,0.138c60.701,0,110.22-47.93,112.743-108.005c0.074-1.601,0.106-3.211,0.106-4.834
	C327.894,131.058,277.367,80.532,215.045,80.532z M278.809,227.913c-12.274,22.533-36.228,37.817-63.765,37.817
	c-2.745,0-5.459-0.148-8.119-0.455h-0.01c-36.26-4.028-64.453-34.68-64.453-71.884c0-39.959,32.496-72.349,72.583-72.349
	s72.562,32.391,72.562,72.349c0,12.306-3.084,23.901-8.532,34.055C278.99,227.605,278.894,227.765,278.809,227.913z"
        />
        <path
          class="big-gear-ring-shadow"
          d="M321.491,198.224c-17.138,0-31.087,13.949-31.087,31.087v2.671c-1.357,0.54-2.724,1.091-4.07,1.674
	l-2.088-2.067c-1.59-1.579-3.329-2.968-5.173-4.144c-0.084,0.159-0.18,0.318-0.265,0.467
	c-12.274,22.533-36.228,37.817-63.765,37.817c-2.745,0-5.459-0.148-8.119-0.455h-0.01c-4.187,5.405-6.444,12.009-6.444,18.951
	c0,8.257,3.201,16.015,9.009,21.866c1.844,0.095,3.699,0.138,5.564,0.138c60.701,0,110.22-47.93,112.743-108.005L321.491,198.224
	L321.491,198.224z"
        />
        <path
          class="small-gear-main"
          d="M491.599,386.232v-43.158c0-6.632-5.377-12.009-12.009-12.009h-16.535
	c-2.673-9.437-6.448-18.412-11.178-26.78l11.622-11.544c4.728-4.696,4.728-12.342,0.001-17.038l-30.783-30.587
	c-4.683-4.653-12.244-4.653-16.927-0.001l-11.733,11.655c-8.425-4.696-17.457-8.448-26.949-11.098v-16.355
	c0-6.632-5.377-12.009-12.009-12.009h-43.607c-6.632,0-12.009,5.377-12.009,12.009v16.355c-9.504,2.651-18.524,6.403-26.96,11.098
	l-11.722-11.65c-4.683-4.654-12.246-4.655-16.929-0.001l-30.781,30.585c-4.727,4.697-4.725,12.343,0.001,17.038l11.622,11.544
	c-4.73,8.368-8.503,17.344-11.188,26.78h-16.524c-6.632,0-12.009,5.377-12.009,12.009v43.158c0,6.632,5.377,12.009,12.009,12.009
	h16.524c2.685,9.437,6.459,18.412,11.188,26.78l-11.621,11.543c-4.728,4.696-4.728,12.343,0,17.039l30.779,30.576
	c4.684,4.653,12.246,4.652,16.928-0.002l11.723-11.651c8.436,4.707,17.457,8.448,26.96,11.121v16.344
	c0,6.632,5.377,12.009,12.009,12.009H365.1c6.632,0,12.009-5.377,12.009-12.009v-16.344c9.492-2.673,18.524-6.414,26.949-11.121
	l11.734,11.656c4.683,4.652,12.243,4.651,16.926,0l30.781-30.578c4.728-4.697,4.728-12.343,0-17.039l-11.621-11.543
	c4.73-8.368,8.503-17.344,11.178-26.78h16.535C486.222,398.241,491.599,392.865,491.599,386.232z M343.297,419.775
	c-30.543,0-55.302-24.679-55.302-55.121s24.759-55.121,55.302-55.121s55.29,24.679,55.29,55.121S373.84,419.775,343.297,419.775z"
        />
        <path
          class="small-gear-ring"
          d="M343.297,278.664c-47.494,0-85.991,38.496-85.991,85.99c0,47.483,38.496,85.98,85.991,85.98
	c47.483,0,85.98-38.496,85.98-85.98C429.276,317.16,390.78,278.664,343.297,278.664z M343.297,419.775
	c-30.543,0-55.302-24.679-55.302-55.121s24.759-55.121,55.302-55.121s55.29,24.679,55.29,55.121S373.84,419.775,343.297,419.775z"
        />
      </svg>