<svg width="1080" height="1080" viewBox="0 0 1080 1080" fill="none" xmlns="http://www.w3.org/2000/svg">
<path d="M895.433 67.0405C912.605 63.9191 927.826 67.8203 941.096 78.7488C954.366 89.6774 961 103.727 961 120.899V721.536C961 776.957 945.388 820.277 914.167 851.499C882.945 881.94 840.013 897.161 785.375 897.161C747.908 897.161 717.076 887.404 692.879 867.89C668.683 847.595 656.583 822.228 656.583 791.786C656.583 753.54 671.804 721.536 702.246 695.778C732.688 670.02 772.105 657.141 820.5 657.141C838.454 657.141 857.576 660.262 877.871 666.507C878.651 666.507 879.433 666.116 880.213 665.336C880.992 665.336 881.383 664.945 881.383 664.166V277.791C881.383 275.449 880.213 273.498 877.871 271.936C875.529 269.595 873.188 268.815 870.846 269.595L431.783 353.895C425.538 355.457 422.417 359.358 422.417 365.603V838.62C422.417 894.04 406.805 937.361 375.583 968.582C344.362 999.024 301.43 1014.24 246.792 1014.24C209.325 1014.24 178.492 1004.1 154.296 983.803C130.099 964.29 118 939.311 118 908.87C118 870.623 133.221 838.62 163.662 812.861C194.104 787.103 233.521 774.224 281.917 774.224C299.87 774.224 318.992 777.345 339.287 783.59C340.067 783.59 340.849 783.199 341.629 782.42C342.409 782.42 342.8 782.029 342.8 781.249V237.982C342.8 218.469 348.654 201.295 360.362 186.466C372.851 170.854 388.462 161.487 407.196 158.366L895.433 67.0405Z" fill="url(#paint0_linear)"/>
<defs>
<linearGradient id="paint0_linear" x1="-268.471" y1="-285.38" x2="1361.33" y2="1363.15" gradientUnits="userSpaceOnUse">
<stop offset="0.0635411" stop-color="#FB413E"/>
<stop offset="0.381554" stop-color="#FF3C32"/>
<stop offset="0.520016" stop-color="#AD69E3" stop-opacity="0.75"/>
<stop offset="0.629314" stop-color="#5DC4F9"/>
<stop offset="0.962717" stop-color="#60C2F8"/>
</linearGradient>
</defs>
</svg>
