<?xml version="1.0" encoding="iso-8859-1"?>
<!-- Generator: Adobe Illustrator 19.0.0, SVG Export Plug-In . SVG Version: 6.00 Build 0)  -->
<svg version="1.1" id="Layer_1" xmlns="http://www.w3.org/2000/svg" xmlns:xlink="http://www.w3.org/1999/xlink" x="0px" y="0px"
	 viewBox="0 0 512 512" style="enable-background:new 0 0 512 512;" xml:space="preserve">
<g>
	<g>
		<g>
			<path d="M290.782,444.996c-4.873-0.393-8.789,3.183-9.139,7.876c-0.35,4.702,3.174,8.798,7.868,9.148
				c43.614,3.243,64.154,11.691,68.395,15.872c-6.187,6.545-42.854,17.041-101.905,17.041s-95.718-10.496-101.905-17.041
				c4.215-4.173,24.687-12.595,68.113-15.855c4.702-0.358,8.218-4.454,7.868-9.156c-0.358-4.693-4.395-8.252-9.156-7.868
				c-31.514,2.372-84.386,9.796-84.386,32.853C136.533,511.044,243.772,512,256,512c12.22,0,119.467-0.956,119.467-34.133
				C375.467,454.758,322.406,447.352,290.782,444.996z"/>
			<path d="M294.665,60.442c15.88,8.09,29.124,21.274,37.265,37.12c1.519,2.944,4.506,4.634,7.603,4.634
				c1.306,0,2.637-0.307,3.891-0.947c4.19-2.15,5.837-7.296,3.686-11.486c-9.771-19.012-25.643-34.825-44.698-44.527
				c-4.215-2.15-9.344-0.469-11.477,3.729C288.802,53.163,290.466,58.308,294.665,60.442z"/>
			<path d="M247.467,272.631v196.702c0,4.71,3.823,8.533,8.533,8.533c4.71,0,8.533-3.823,8.533-8.533V272.631
				c71.296-4.437,128-63.693,128-136.098C392.533,61.252,331.281,0,256,0c-75.29,0-136.533,61.252-136.533,136.533
				C119.467,208.939,176.162,268.194,247.467,272.631z M256,17.067c65.869,0,119.467,53.589,119.467,119.467S321.869,256,256,256
				c-65.877,0-119.467-53.589-119.467-119.467S190.123,17.067,256,17.067z"/>
		</g>
	</g>
</g>
<g>
</g>
<g>
</g>
<g>
</g>
<g>
</g>
<g>
</g>
<g>
</g>
<g>
</g>
<g>
</g>
<g>
</g>
<g>
</g>
<g>
</g>
<g>
</g>
<g>
</g>
<g>
</g>
<g>
</g>
</svg>
