<svg width="126" height="108" viewBox="0 0 126 108" fill="none" xmlns="http://www.w3.org/2000/svg">
<path d="M110.97 0.686005C102.682 0.686005 95.962 7.405 95.962 15.694V54.003V92.312C95.962 100.6 102.681 107.32 110.97 107.32C119.258 107.32 125.978 100.601 125.978 92.312V15.694C125.978 7.405 119.258 0.686005 110.97 0.686005Z" fill="#070405"/>
<path d="M91.265 45.866L15.065 1.87201C13.612 1.03301 11.99 0.613007 10.368 0.613007C8.74601 0.613007 7.12401 1.03301 5.67001 1.87201C2.76301 3.55001 0.972992 6.652 0.972992 10.008V97.996C0.972992 101.352 2.76401 104.454 5.67001 106.132C7.12401 106.971 8.74601 107.391 10.368 107.391C11.99 107.391 13.612 106.971 15.065 106.132L91.265 62.138C94.172 60.46 95.962 57.358 95.962 54.002C95.962 50.646 94.171 47.544 91.265 45.866Z" fill="#070405"/>
</svg>
