<svg width="126" height="108" viewBox="0 0 126 108" fill="none" xmlns="http://www.w3.org/2000/svg">
<path d="M15.03 0.686005C6.742 0.686005 0.0220032 7.405 0.0220032 15.694V92.312C0.0220032 100.6 6.741 107.32 15.03 107.32C23.319 107.32 30.038 100.601 30.038 92.312V54.003V15.694C30.038 7.405 23.319 0.686005 15.03 0.686005Z" fill="#070405"/>
<path d="M120.33 1.87201C118.876 1.03301 117.254 0.613007 115.632 0.613007C114.01 0.613007 112.388 1.03301 110.935 1.87201L34.735 45.866C31.828 47.544 30.037 50.646 30.037 54.002C30.037 57.358 31.828 60.46 34.735 62.138L110.935 106.132C112.388 106.971 114.01 107.391 115.632 107.391C117.254 107.391 118.876 106.971 120.33 106.132C123.237 104.454 125.027 101.352 125.027 97.996V10.008C125.028 6.652 123.237 3.55001 120.33 1.87201Z" fill="#070405"/>
</svg>
