<?xml version="1.0" encoding="iso-8859-1"?>
<!-- Generator: Adobe Illustrator 19.0.0, SVG Export Plug-In . SVG Version: 6.00 Build 0)  -->
<svg version="1.1" id="Capa_1" xmlns="http://www.w3.org/2000/svg" xmlns:xlink="http://www.w3.org/1999/xlink" x="0px" y="0px"
	 viewBox="0 0 512.002 512.002" style="enable-background:new 0 0 512.002 512.002;" xml:space="preserve">
<g>
	<g>
		<path d="M156.602,49.698h-24.85c-4.142,0-7.5,3.357-7.5,7.5s3.358,7.5,7.5,7.5h24.85c4.142,0,7.5-3.357,7.5-7.5
			S160.744,49.698,156.602,49.698z"/>
	</g>
</g>
<g>
	<g>
		<path d="M380.254,49.699h-24.851c-4.143,0-7.5,3.357-7.5,7.5s3.357,7.5,7.5,7.5h24.851c4.142,0,7.5-3.357,7.5-7.5
			S384.397,49.699,380.254,49.699z"/>
	</g>
</g>
<g>
	<g>
		<path d="M388.536,16.564h-61.632l-6.21-12.419C319.423,1.605,316.827,0,313.986,0H198.021c-2.841,0-5.438,1.605-6.708,4.146
			l-6.21,12.419h-61.634c-22.406,0-40.634,18.229-40.634,40.634V388.53c0,22.405,18.228,40.633,40.634,40.633h33.135
			c0.822,0,1.611-0.137,2.352-0.382L116.99,500.72c-2.087,3.578-0.878,8.171,2.699,10.258c1.189,0.693,2.489,1.022,3.773,1.022
			c2.58,0,5.091-1.333,6.485-3.722l55.814-95.68h15.769l-51.405,88.121c-2.087,3.578-0.879,8.171,2.699,10.258
			c1.189,0.693,2.489,1.022,3.772,1.022c2.58,0,5.091-1.333,6.485-3.722l12.325-21.129l161.193-0.001l12.322,21.125
			c1.395,2.39,3.905,3.722,6.485,3.722c1.283,0,2.584-0.329,3.772-1.022c3.577-2.087,4.786-6.68,2.699-10.258L310.481,412.6h15.765
			l55.81,95.68c1.394,2.39,3.905,3.722,6.485,3.722c1.283,0,2.584-0.329,3.772-1.022c3.577-2.087,4.786-6.68,2.699-10.258
			l-41.963-71.94c0.741,0.245,1.53,0.382,2.352,0.382h33.133c22.405,0,40.633-18.228,40.633-40.633V57.198
			C429.169,34.793,410.941,16.564,388.536,16.564z M197.237,25.836L202.656,15h45.846v9.064c0,4.143,3.358,7.5,7.5,7.5
			c4.143,0,7.5-3.357,7.5-7.5V15h45.85l5.418,10.835v23.863H197.237V25.836z M164.104,419.956V412.6h4.291L164.104,419.956z
			 M317.273,454.015l10.578,18.134l-143.693,0.001l10.578-18.134L317.273,454.015z M203.486,439.017l15.41-26.417h74.218
			l15.41,26.416L203.486,439.017z M347.903,419.956l-4.291-7.356h4.291V419.956z M414.169,388.531
			c0,14.133-11.5,25.632-25.633,25.632h-25.633V405.1c0-4.143-3.357-7.5-7.5-7.5h-25.014c-0.03,0-0.059-0.001-0.088,0H297.53
			c-0.141-0.002-0.282-0.006-0.424,0H156.604c-4.142,0-7.5,3.357-7.5,7.5v9.063h-25.635c-14.135,0-25.634-11.499-25.634-25.633
			v-9.066l108.467,0.002c2.508,0,4.849-1.253,6.24-3.34l14.34-21.51h58.239l14.341,21.51c1.391,2.087,3.732,3.34,6.24,3.34h108.467
			V388.531z M414.169,364.466H309.715l-14.341-21.51c-1.391-2.087-3.732-3.34-6.24-3.34h-66.266c-2.508,0-4.85,1.253-6.24,3.34
			l-14.34,21.51l-104.454-0.002v-67.832h0.001h316.334V364.466z M414.169,281.632H97.835V97.833h316.334V281.632z M414.169,82.833
			H97.835V57.198c0-14.135,11.499-25.634,25.633-25.634h58.769v25.634c0,4.143,3.358,7.5,7.5,7.5h132.532c4.143,0,7.5-3.357,7.5-7.5
			V31.564h58.767c14.134,0,25.633,11.499,25.633,25.634V82.833z"/>
	</g>
</g>
<g>
	<g>
		<path d="M396.819,107.683H115.186c-4.142,0-7.5,3.357-7.5,7.5v149.101c0,4.143,3.358,7.5,7.5,7.5h281.633
			c4.143,0,7.5-3.357,7.5-7.5V115.183C404.319,111.04,400.962,107.683,396.819,107.683z M389.319,256.783H122.686v-134.1h266.633
			V256.783z"/>
	</g>
</g>
<g>
	<g>
		<path d="M156.602,49.698h-24.85c-4.142,0-7.5,3.357-7.5,7.5s3.358,7.5,7.5,7.5h24.85c4.142,0,7.5-3.357,7.5-7.5
			S160.744,49.698,156.602,49.698z"/>
	</g>
</g>
<g>
	<g>
		<path d="M380.254,49.699h-24.851c-4.143,0-7.5,3.357-7.5,7.5s3.357,7.5,7.5,7.5h24.851c4.143,0,7.5-3.357,7.5-7.5
			S384.397,49.699,380.254,49.699z"/>
	</g>
</g>
<g>
	<g>
		<path d="M173.17,306.48h-33.133c-13.271,0-24.068,10.797-24.068,24.068s10.797,24.067,24.068,24.067h33.133
			c13.271,0,24.068-10.797,24.068-24.067C197.237,317.277,186.44,306.48,173.17,306.48z M173.17,339.616h-33.133
			c-5,0-9.068-4.067-9.068-9.067s4.068-9.068,9.068-9.068h33.133c5,0,9.068,4.068,9.068,9.068S178.17,339.616,173.17,339.616z"/>
	</g>
</g>
<g>
	<g>
		<path d="M371.971,306.481h-33.134c-13.272,0-24.068,10.797-24.068,24.068c-0.001,13.27,10.796,24.067,24.068,24.067h33.134
			c13.271,0,24.067-10.797,24.067-24.067C396.038,317.278,385.241,306.481,371.971,306.481z M371.971,339.615h-33.134
			c-5,0-9.068-4.067-9.068-9.067s4.068-9.068,9.068-9.068h33.134c5,0,9.067,4.068,9.067,9.068S376.971,339.615,371.971,339.615z"/>
	</g>
</g>
<g>
</g>
<g>
</g>
<g>
</g>
<g>
</g>
<g>
</g>
<g>
</g>
<g>
</g>
<g>
</g>
<g>
</g>
<g>
</g>
<g>
</g>
<g>
</g>
<g>
</g>
<g>
</g>
<g>
</g>
</svg>
