<?xml version="1.0" encoding="iso-8859-1"?>
<!-- Generator: Adobe Illustrator 19.0.0, SVG Export Plug-In . SVG Version: 6.00 Build 0)  -->
<svg version="1.1" id="Layer_1" xmlns="http://www.w3.org/2000/svg" xmlns:xlink="http://www.w3.org/1999/xlink" x="0px" y="0px"
	 viewBox="0 0 512 512" style="enable-background:new 0 0 512 512;" xml:space="preserve">
<g>
	<g>
		<path d="M261.02,5.02c-89.059,0-170.814,46.868-215.971,123.044L19.735,33.603c-1.431-5.353-6.941-8.529-12.294-7.098
			c-5.353,1.436-8.529,6.936-7.098,12.294L31.52,155.162c1.431,5.358,6.961,8.549,12.294,7.098l116.373-31.177
			c5.353-1.431,8.529-6.936,7.098-12.294c-1.431-5.353-6.922-8.529-12.294-7.098l-91.392,24.485
			C105.402,67.348,179.922,25.098,261.02,25.098c127.324,0,230.902,103.583,230.902,230.902S388.343,486.902,261.02,486.902
			c-100.794,0-189.176-64.431-219.922-160.323c-1.686-5.284-7.323-8.196-12.627-6.495c-5.274,1.691-8.186,7.343-6.49,12.623
			C55.402,436.946,151.461,506.98,261.02,506.98C399.412,506.98,512,394.392,512,256S399.412,5.02,261.02,5.02z"/>
	</g>
</g>
<g>
</g>
<g>
</g>
<g>
</g>
<g>
</g>
<g>
</g>
<g>
</g>
<g>
</g>
<g>
</g>
<g>
</g>
<g>
</g>
<g>
</g>
<g>
</g>
<g>
</g>
<g>
</g>
<g>
</g>
</svg>
