<?xml version="1.0" encoding="utf-8"?>
<!-- Generator: Adobe Illustrator 19.1.0, SVG Export Plug-In . SVG Version: 6.00 Build 0)  -->
<svg version="1.1" id="Layer_1" xmlns="http://www.w3.org/2000/svg" xmlns:xlink="http://www.w3.org/1999/xlink" x="0px" y="0px"
	 viewBox="0 0 64 64" enable-background="new 0 0 64 64" xml:space="preserve">
<g id="Server">
	<path d="M28,9.0136003h-20c-0.5449004,0-0.9863005,0.4413996-0.9863005,0.9863997
		c0,0.5448999,0.4414001,0.9863005,0.9863005,0.9863005h20c0.5449009,0,0.9862995-0.4414005,0.9862995-0.9863005
		C28.9862995,9.4549999,28.5449009,9.0136003,28,9.0136003z"/>
	<circle cx="52.9991989" cy="9.9990997" r="2.9991"/>
	<path d="M60,0h-56C1.7908008,0,0.0000008,1.7908,0.0000008,4v12c0,2.2091007,1.7908,4,3.9999998,4h56c2.2090988,0,4-1.7908993,4-4
		V4C64,1.7908,62.2090988,0,60,0z M62,16c0,1.1026993-0.8972015,2-2,2h-56c-1.1027997,0-1.9999998-0.8973007-1.9999998-2V4
		c0-1.1029,0.8972001-2,1.9999998-2h56c1.1027985,0,2,0.8971,2,2V16z"/>
	<path d="M28,31.0135994h-20c-0.5449004,0-0.9863005,0.4414005-0.9863005,0.9864006
		c0,0.544899,0.4414001,0.9863014,0.9863005,0.9863014h20c0.5449009,0,0.9862995-0.4414024,0.9862995-0.9863014
		C28.9862995,31.4549999,28.5449009,31.0135994,28,31.0135994z"/>
	<circle cx="52.9991989" cy="31.9990997" r="2.9991"/>
	<path d="M60,22h-56c-2.2091997,0-3.9999998,1.7908001-3.9999998,4v12c0,2.2090988,1.7908,4,3.9999998,4h56
		c2.2090988,0,4-1.7909012,4-4V26C64,23.7908001,62.2090988,22,60,22z M62,38c0,1.1026993-0.8972015,2-2,2h-56
		c-1.1027997,0-1.9999998-0.8973007-1.9999998-2V26c0-1.1028996,0.8972001-2,1.9999998-2h56c1.1027985,0,2,0.8971004,2,2V38z"/>
	<path d="M28,53.0135994h-20c-0.5449004,0-0.9863005,0.4414024-0.9863005,0.9864006
		c0,0.544899,0.4414001,0.9863014,0.9863005,0.9863014h20c0.5449009,0,0.9862995-0.4414024,0.9862995-0.9863014
		C28.9862995,53.4550018,28.5449009,53.0135994,28,53.0135994z"/>
	<circle cx="52.9991989" cy="53.9990997" r="2.9991"/>
	<path d="M60,44h-56c-2.2091997,0-3.9999998,1.7907982-3.9999998,4v12c0,2.2090988,1.7908,4,3.9999998,4h56
		c2.2090988,0,4-1.7909012,4-4V48C64,45.7907982,62.2090988,44,60,44z M62,60c0,1.1026993-0.8972015,2-2,2h-56
		c-1.1027997,0-1.9999998-0.8973007-1.9999998-2V48c0-1.1029015,0.8972001-2,1.9999998-2h56c1.1027985,0,2,0.8970985,2,2V60z"/>
</g>
<g>
</g>
<g>
</g>
<g>
</g>
<g>
</g>
<g>
</g>
<g>
</g>
<g>
</g>
<g>
</g>
<g>
</g>
<g>
</g>
<g>
</g>
<g>
</g>
<g>
</g>
<g>
</g>
<g>
</g>
</svg>
