<svg width="700" height="700" viewBox="0 0 700 700" fill="none" xmlns="http://www.w3.org/2000/svg">
<rect width="700" height="700" rx="80" fill="white"/>
<path d="M142.696 125.891H557.304C566.585 125.891 574.109 133.415 574.109 142.696V557.304C574.109 566.585 566.585 574.109 557.304 574.109H142.696C133.415 574.109 125.891 566.585 125.891 557.304V142.696C125.891 133.415 133.415 125.891 142.696 125.891Z" fill="#EFC08F" stroke="#EFC08F"/>
<path d="M276.492 538.366L276.492 538.366L275.614 401.076C275.614 401.076 275.614 401.076 275.614 401.076C275.606 399.782 276.113 398.537 277.022 397.616C277.931 396.695 279.168 396.173 280.462 396.163H280.498H280.498C281.788 396.163 283.025 396.673 283.94 397.581C284.855 398.49 285.374 399.723 285.383 401.013L286.26 538.303L286.26 538.303C286.265 538.944 286.143 539.58 285.902 540.175C285.66 540.769 285.304 541.31 284.854 541.766C284.404 542.223 283.868 542.587 283.277 542.836C282.686 543.086 282.053 543.216 281.412 543.221C281.412 543.221 281.411 543.221 281.41 543.221L281.376 543.221C280.086 543.221 278.848 542.711 277.932 541.801C277.017 540.891 276.499 539.657 276.492 538.366Z" fill="#2F3A5A" stroke="#EFC08F"/>
<path d="M306.737 439.97L306.737 439.97L281.129 409.416L280.723 408.932L280.345 409.438L258.685 438.435C258.684 438.435 258.684 438.435 258.684 438.435C257.907 439.471 256.75 440.156 255.468 440.339C254.185 440.522 252.883 440.189 251.846 439.412C250.81 438.634 250.125 437.477 249.942 436.195C249.758 434.913 250.092 433.61 250.869 432.574L250.87 432.573L276.591 398.117C277.032 397.528 277.601 397.046 278.255 396.708C278.909 396.369 279.631 396.183 280.366 396.163L280.366 396.163L280.375 396.163C281.111 396.13 281.844 396.27 282.517 396.572C283.189 396.874 283.781 397.329 284.245 397.901L284.245 397.901L284.25 397.907L314.241 433.677L314.241 433.678C314.839 434.39 315.222 435.258 315.343 436.18C315.465 437.102 315.32 438.039 314.928 438.882C314.535 439.725 313.909 440.438 313.125 440.937C312.341 441.437 311.43 441.702 310.5 441.702L310.232 441.702L310.226 441.711C309.601 441.679 308.987 441.526 308.419 441.261C307.77 440.959 307.196 440.518 306.737 439.97Z" fill="#2F3A5A" stroke="#EFC08F"/>
<path d="M200.265 538.366L200.265 538.366L199.387 401.076C199.387 401.076 199.387 401.076 199.387 401.076C199.38 399.782 199.886 398.537 200.795 397.616C201.704 396.695 202.942 396.173 204.236 396.163H204.272H204.272C205.561 396.163 206.798 396.673 207.713 397.581C208.628 398.49 209.147 399.723 209.156 401.013L210.034 538.303L210.034 538.303C210.038 538.945 209.916 539.581 209.675 540.176C209.433 540.77 209.077 541.311 208.626 541.768C208.175 542.225 207.638 542.588 207.047 542.838C206.456 543.087 205.822 543.217 205.181 543.221C205.18 543.221 205.179 543.221 205.179 543.221L205.149 543.221C203.859 543.221 202.621 542.711 201.706 541.801C200.791 540.891 200.273 539.657 200.265 538.366Z" fill="#2F3A5A" stroke="#EFC08F"/>
<path d="M233.801 441.697C233.245 441.645 232.701 441.498 232.192 441.261C231.544 440.959 230.97 440.518 230.511 439.97L230.511 439.969L204.897 409.416L204.491 408.932L204.113 409.438L182.463 438.435C182.463 438.435 182.463 438.435 182.463 438.435C182.078 438.948 181.596 439.38 181.044 439.707C180.492 440.034 179.882 440.249 179.247 440.339C178.612 440.43 177.965 440.395 177.344 440.236C176.722 440.076 176.138 439.796 175.625 439.412C175.112 439.027 174.68 438.545 174.353 437.993C174.026 437.441 173.811 436.83 173.72 436.195C173.63 435.56 173.665 434.914 173.824 434.292C173.983 433.671 174.263 433.087 174.648 432.574L174.649 432.573L200.375 398.117C200.375 398.117 200.375 398.116 200.375 398.116C200.817 397.527 201.385 397.046 202.039 396.708C202.693 396.369 203.415 396.183 204.151 396.163L204.151 396.163L204.158 396.163C204.898 396.132 205.636 396.273 206.313 396.575C206.989 396.877 207.587 397.332 208.059 397.904L208.061 397.906L237.998 433.672L237.999 433.672C238.596 434.384 238.979 435.252 239.1 436.173C239.222 437.095 239.078 438.032 238.686 438.874C238.293 439.717 237.669 440.43 236.885 440.93C236.102 441.43 235.192 441.696 234.262 441.697L233.801 441.697Z" fill="#2F3A5A" stroke="#EFC08F"/>
<path d="M314.833 125.891H386.132V228.037H314.833V125.891Z" fill="#E1E6E9" stroke="#EFC08F"/>
<path d="M513.305 442.043H404.557C403.256 442.043 402.011 441.535 401.094 440.633C400.177 439.732 399.664 438.512 399.664 437.241C399.664 435.97 400.177 434.75 401.094 433.848C402.011 432.947 403.256 432.439 404.557 432.439H513.305C514.606 432.439 515.851 432.947 516.768 433.848C517.685 434.75 518.198 435.97 518.198 437.241C518.198 438.512 517.685 439.732 516.768 440.633C515.851 441.535 514.606 442.043 513.305 442.043Z" fill="#A67F74" stroke="#EFC08F"/>
<path d="M513.305 474.819H404.557C403.271 474.819 402.03 474.271 401.109 473.284C400.187 472.295 399.664 470.947 399.664 469.535C399.664 468.123 400.187 466.775 401.109 465.786C402.03 464.799 403.271 464.251 404.557 464.251H513.305C514.591 464.251 515.832 464.799 516.753 465.786C517.675 466.775 518.198 468.123 518.198 469.535C518.198 470.947 517.675 472.295 516.753 473.284C515.832 474.271 514.591 474.819 513.305 474.819Z" fill="#A67F74" stroke="#EFC08F"/>
<path d="M513.332 507.594H454.657C453.379 507.594 452.145 507.047 451.229 506.06C450.312 505.072 449.791 503.723 449.791 502.31C449.791 500.897 450.312 499.549 451.229 498.56C452.145 497.573 453.379 497.026 454.657 497.026H513.332C514.61 497.026 515.844 497.573 516.76 498.56C517.677 499.549 518.198 500.897 518.198 502.31C518.198 503.723 517.677 505.072 516.76 506.06C515.844 507.047 514.61 507.594 513.332 507.594Z" fill="#A67F74" stroke="#EFC08F"/>
</svg>
