<svg width="700" height="700" viewBox="0 0 700 700" fill="none" xmlns="http://www.w3.org/2000/svg">
<rect width="700" height="700" rx="80" fill="#FFB258"/>
<g clip-path="url(#clip0)">
<mask id="path-2-inside-1" fill="white">
<path d="M166.714 121.125C161.685 126.154 160.009 183.151 160.009 343.526C160.009 585.486 158.332 575.986 201.36 595.544C221.477 604.485 239.358 606.161 350 606.161C460.642 606.161 478.523 604.485 498.64 595.544C541.668 575.986 539.991 585.486 539.991 343.526C539.991 183.151 538.315 126.154 533.286 121.125C523.786 111.625 176.214 111.625 166.714 121.125ZM517.639 153.535V170.299H350H182.361V153.535V136.771H350H517.639V153.535ZM517.639 365.878V539.105H350H182.361V365.878V192.651H350H517.639V365.878ZM506.463 564.81C506.463 566.486 497.523 571.516 486.905 575.986C458.966 587.162 241.034 587.162 213.095 575.986C202.477 571.516 193.537 566.486 193.537 564.81C193.537 562.575 263.945 561.457 350 561.457C436.055 561.457 506.463 562.575 506.463 564.81Z"/>
</mask>
<path d="M166.714 121.125C161.685 126.154 160.009 183.151 160.009 343.526C160.009 585.486 158.332 575.986 201.36 595.544C221.477 604.485 239.358 606.161 350 606.161C460.642 606.161 478.523 604.485 498.64 595.544C541.668 575.986 539.991 585.486 539.991 343.526C539.991 183.151 538.315 126.154 533.286 121.125C523.786 111.625 176.214 111.625 166.714 121.125ZM517.639 153.535V170.299H350H182.361V153.535V136.771H350H517.639V153.535ZM517.639 365.878V539.105H350H182.361V365.878V192.651H350H517.639V365.878ZM506.463 564.81C506.463 566.486 497.523 571.516 486.905 575.986C458.966 587.162 241.034 587.162 213.095 575.986C202.477 571.516 193.537 566.486 193.537 564.81C193.537 562.575 263.945 561.457 350 561.457C436.055 561.457 506.463 562.575 506.463 564.81Z" fill="white"/>
<path d="M201.36 595.544L97.909 823.136L98.8653 823.57L99.8252 823.997L201.36 595.544ZM498.64 595.544L600.175 823.997L601.135 823.57L602.091 823.136L498.64 595.544ZM517.639 170.299V420.299H767.639V170.299H517.639ZM182.361 170.299H-67.6393V420.299H182.361V170.299ZM182.361 136.771V-113.229H-67.6393V136.771H182.361ZM517.639 136.771H767.639V-113.229H517.639V136.771ZM517.639 539.105V789.105H767.639V539.105H517.639ZM182.361 539.105H-67.6393V789.105H182.361V539.105ZM182.361 192.651V-57.3493H-67.6393V192.651H182.361ZM517.639 192.651H767.639V-57.3493H517.639V192.651ZM486.905 575.986L579.753 808.105L581.844 807.269L583.92 806.395L486.905 575.986ZM213.095 575.986L116.08 806.395L118.156 807.269L120.247 808.105L213.095 575.986ZM-10.0624 -55.652C-46.201 -19.5134 -61.781 18.3308 -66.8102 31.1046C-73.529 48.17 -77.1316 62.6849 -78.9709 70.8951C-82.6929 87.5089 -84.3637 102.146 -85.1891 110.317C-86.9731 127.976 -87.8479 147.771 -88.412 166.574C-89.5859 205.707 -89.9912 263.509 -89.9912 343.526H410.009C410.009 263.169 410.442 212.285 411.363 181.567C411.847 165.445 412.334 160.025 412.279 160.571C412.222 161.131 412.029 162.982 411.622 165.775C411.247 168.353 410.441 173.479 408.935 180.199C407.623 186.056 404.572 198.674 398.431 214.274C395.253 222.344 390.218 233.867 382.608 247.012C375.254 259.712 362.858 278.535 343.491 297.901L-10.0624 -55.652ZM-89.9912 343.526C-89.9912 402.499 -90.105 450.133 -89.5512 486.081C-89.049 518.68 -87.9804 557.788 -82.1713 593.298C-75.8861 631.717 -58.6982 702.653 3.89224 762.555C31.3012 788.786 58.3449 803.899 73.3077 811.559C80.7659 815.377 87.2947 818.357 90.7494 819.92C99.2157 823.75 92.2483 820.562 97.909 823.136L304.811 367.952C302.723 367.003 300.826 366.155 299.53 365.575C298.021 364.9 297.419 364.631 296.86 364.378C295.612 363.813 297.765 364.755 301.151 366.489C307.97 369.98 328.085 380.736 349.601 401.327C372.993 423.714 388.957 448.843 398.989 472.144C407.825 492.667 410.584 508.388 411.269 512.574C412.011 517.108 411.753 517.447 411.346 510.28C410.966 503.578 410.623 493.535 410.389 478.379C409.913 447.446 410.009 405.533 410.009 343.526H-89.9912ZM99.8252 823.997C142.784 843.09 182.021 850.477 223.327 853.527C255.104 855.873 296.983 856.161 350 856.161V356.161C322.678 356.161 302.525 356.055 287.155 355.795C271.385 355.528 263.594 355.139 260.139 354.884C256.788 354.636 262.603 354.851 272.829 357.171C278.296 358.412 284.112 360.04 290.04 362.072C295.859 364.066 300.339 365.955 302.894 367.091L99.8252 823.997ZM350 856.161C403.017 856.161 444.896 855.873 476.673 853.527C517.979 850.477 557.216 843.09 600.175 823.997L397.106 367.091C399.661 365.955 404.141 364.066 409.96 362.072C415.888 360.04 421.704 358.412 427.171 357.171C437.397 354.851 443.212 354.636 439.861 354.884C436.406 355.139 428.615 355.528 412.845 355.795C397.475 356.055 377.322 356.161 350 356.161V856.161ZM602.091 823.136C607.752 820.562 600.784 823.75 609.251 819.92C612.705 818.357 619.234 815.377 626.692 811.559C641.655 803.899 668.699 788.786 696.108 762.555C758.698 702.653 775.886 631.717 782.171 593.298C787.98 557.788 789.049 518.68 789.551 486.081C790.105 450.133 789.991 402.499 789.991 343.526H289.991C289.991 405.533 290.087 447.446 289.61 478.38C289.377 493.535 289.034 503.578 288.654 510.28C288.247 517.447 287.989 517.108 288.731 512.574C289.415 508.388 292.174 492.667 301.011 472.144C311.043 448.843 327.007 423.714 350.399 401.327C371.915 380.736 392.03 369.98 398.849 366.489C402.235 364.755 404.388 363.813 403.14 364.378C402.581 364.631 401.979 364.9 400.47 365.575C399.174 366.155 397.277 367.003 395.189 367.952L602.091 823.136ZM789.991 343.526C789.991 263.509 789.586 205.707 788.412 166.574C787.848 147.771 786.973 127.976 785.189 110.317C784.364 102.146 782.693 87.509 778.971 70.8952C777.132 62.685 773.529 48.1701 766.81 31.1046C761.781 18.3308 746.201 -19.5134 710.062 -55.652L356.509 297.901C337.142 278.535 324.746 259.712 317.392 247.012C309.782 233.867 304.747 222.344 301.569 214.274C295.428 198.674 292.377 186.056 291.064 180.199C289.559 173.479 288.753 168.353 288.378 165.775C287.971 162.982 287.778 161.131 287.721 160.571C287.666 160.025 288.153 165.445 288.637 181.567C289.558 212.285 289.991 263.169 289.991 343.526H789.991ZM710.062 -55.652C679.882 -85.8327 649.377 -100.746 637.533 -106.223C622.658 -113.103 610.018 -117.188 602.64 -119.38C587.87 -123.77 575.474 -126.016 569.422 -127.04C556.291 -129.263 544.122 -130.432 536.463 -131.086C519.783 -132.51 500.495 -133.424 482.045 -134.067C444.084 -135.39 396.34 -136 350 -136C303.66 -136 255.916 -135.39 217.955 -134.067C199.505 -133.424 180.217 -132.51 163.537 -131.086C155.878 -130.432 143.709 -129.263 130.578 -127.04C124.526 -126.016 112.13 -123.77 97.3601 -119.38C89.9822 -117.188 77.3417 -113.103 62.4669 -106.223C50.6228 -100.746 20.1183 -85.8327 -10.0624 -55.652L343.491 297.901C335.189 306.204 327.227 312.99 320.231 318.426C313.211 323.88 306.653 328.371 300.919 332.009C289.673 339.143 279.697 344.195 272.342 347.596C264.816 351.077 258.232 353.657 253.137 355.504C247.962 357.38 243.428 358.823 239.789 359.904C232.692 362.013 226.889 363.371 223.18 364.175C219.295 365.017 216.141 365.589 214.006 365.95C209.887 366.647 207.102 366.975 206.377 367.058C205.452 367.165 205.28 367.169 206.069 367.101C207.733 366.959 211.075 366.718 216.432 366.436C221.638 366.161 227.963 365.888 235.371 365.629C250.225 365.112 268.106 364.7 287.904 364.42C307.619 364.142 328.753 364 350 364C371.247 364 392.381 364.142 412.096 364.42C431.894 364.7 449.775 365.112 464.629 365.629C472.037 365.888 478.362 366.161 483.568 366.436C488.925 366.718 492.267 366.959 493.931 367.101C494.72 367.169 494.548 367.165 493.623 367.058C492.898 366.975 490.113 366.647 485.994 365.95C483.859 365.589 480.705 365.017 476.82 364.175C473.111 363.371 467.308 362.013 460.211 359.904C456.572 358.823 452.038 357.38 446.863 355.504C441.768 353.657 435.184 351.077 427.658 347.596C420.303 344.195 410.327 339.143 399.081 332.009C393.347 328.371 386.789 323.88 379.769 318.426C372.773 312.99 364.811 306.204 356.509 297.901L710.062 -55.652ZM267.639 153.535V170.299H767.639V153.535H267.639ZM517.639 -79.7012H350V420.299H517.639V-79.7012ZM350 -79.7012H182.361V420.299H350V-79.7012ZM432.361 170.299V153.535H-67.6393V170.299H432.361ZM432.361 153.535V136.771H-67.6393V153.535H432.361ZM182.361 386.771H350V-113.229H182.361V386.771ZM350 386.771H517.639V-113.229H350V386.771ZM267.639 136.771V153.535H767.639V136.771H267.639ZM267.639 365.878V539.105H767.639V365.878H267.639ZM517.639 289.105H350V789.105H517.639V289.105ZM350 289.105H182.361V789.105H350V289.105ZM432.361 539.105V365.878H-67.6393V539.105H432.361ZM432.361 365.878V192.651H-67.6393V365.878H432.361ZM182.361 442.651H350V-57.3493H182.361V442.651ZM350 442.651H517.639V-57.3493H350V442.651ZM267.639 192.651V365.878H767.639V192.651H267.639ZM256.463 564.81C256.463 510.785 273.839 470.29 284.884 449.196C296.565 426.888 309.231 410.997 316.959 402.061C332.165 384.476 346.339 373.224 351.892 368.927C364.401 359.246 374.548 353.474 377.09 352.028C384.206 347.981 388.62 346.112 389.891 345.577L583.92 806.395C595.808 801.389 610.001 794.77 624.241 786.673C630.346 783.201 643.392 775.578 657.909 764.343C664.466 759.268 679.421 747.314 695.158 729.116C700.56 722.869 756.463 662.168 756.463 564.81H256.463ZM394.058 343.867C405.37 339.342 414.528 336.717 419.558 335.38C425.02 333.929 429.272 333.042 431.736 332.562C436.466 331.641 439.052 331.365 438.33 331.452C436.967 331.616 431.861 332.124 422.202 332.668C403.4 333.728 377.573 334.368 350 334.368C322.427 334.368 296.6 333.728 277.798 332.668C268.139 332.124 263.033 331.616 261.67 331.452C260.948 331.365 263.534 331.641 268.264 332.562C270.728 333.042 274.98 333.929 280.442 335.38C285.472 336.717 294.63 339.342 305.942 343.867L120.247 808.105C157.99 823.202 195.113 827.048 201.802 827.855C217.813 829.786 234.536 831.024 249.673 831.877C280.465 833.611 316.105 834.368 350 834.368C383.895 834.368 419.535 833.611 450.327 831.877C465.464 831.024 482.187 829.786 498.198 827.855C504.887 827.048 542.01 823.202 579.753 808.105L394.058 343.867ZM310.109 345.577C311.38 346.112 315.794 347.981 322.91 352.028C325.452 353.474 335.599 359.246 348.108 368.927C353.661 373.224 367.835 384.476 383.041 402.061C390.769 410.997 403.435 426.888 415.116 449.196C426.161 470.29 443.537 510.785 443.537 564.81H-56.4634C-56.4634 662.168 -0.559957 722.869 4.84174 729.116C20.5787 747.314 35.5343 759.268 42.0909 764.343C56.6084 775.578 69.6536 783.201 75.7586 786.673C89.9993 794.77 104.192 801.389 116.08 806.395L310.109 345.577ZM443.537 564.81C443.537 653.327 398.696 712.98 370.903 740.943C343.954 768.057 317.186 782.412 305.207 788.379C280.236 800.818 259.011 805.961 253.616 807.277C238.774 810.899 227.214 812.163 225.73 812.337C219.675 813.044 216.328 813.14 219.051 812.996C222.783 812.799 230.969 812.512 244.423 812.247C270.443 811.734 307.725 811.457 350 811.457V311.457C306.221 311.457 265.271 311.739 234.573 312.344C219.667 312.638 204.873 313.049 192.714 313.69C187.491 313.966 177.972 314.516 167.73 315.712C164.153 316.13 150.996 317.647 135.081 321.531C129.149 322.978 107.518 328.255 82.2751 340.829C70.1606 346.863 43.2908 361.286 16.2734 388.469C-11.5884 416.501 -56.4634 476.223 -56.4634 564.81H443.537ZM350 811.457C392.275 811.457 429.557 811.734 455.577 812.247C469.031 812.512 477.217 812.799 480.949 812.996C483.672 813.14 480.325 813.044 474.27 812.337C472.786 812.163 461.226 810.899 446.384 807.277C440.989 805.961 419.764 800.818 394.793 788.379C382.814 782.412 356.046 768.057 329.097 740.943C301.304 712.98 256.463 653.327 256.463 564.81H756.463C756.463 476.223 711.588 416.501 683.727 388.469C656.709 361.286 629.839 346.863 617.725 340.829C592.482 328.255 570.851 322.978 564.919 321.531C549.004 317.647 535.847 316.13 532.27 315.712C522.028 314.516 512.509 313.966 507.286 313.69C495.127 313.049 480.333 312.638 465.427 312.344C434.729 311.739 393.779 311.457 350 311.457V811.457Z" fill="white" mask="url(#path-2-inside-1)"/>
</g>
<defs>
<clipPath id="clip0">
<rect width="512" height="512" fill="white" transform="translate(94 94)"/>
</clipPath>
</defs>
</svg>
