<svg width="700" height="700" viewBox="0 0 700 700" fill="none" xmlns="http://www.w3.org/2000/svg">
<rect width="700" height="700" rx="80" fill="white"/>
<path d="M441.227 599.625C432.178 599.625 424.841 592.289 424.841 583.238V253.636H151.536C142.487 253.636 135.15 246.3 135.15 237.25C135.15 228.199 142.486 220.864 151.536 220.864H424.841C442.911 220.864 457.613 235.565 457.613 253.636V583.237C457.613 592.288 450.276 599.625 441.227 599.625V599.625Z" fill="#0AB69F"/>
<path d="M587.859 444.77H441.227C432.178 444.77 424.841 437.435 424.841 428.384C424.841 419.334 432.177 411.998 441.227 411.998H587.859V122.161C587.859 113.112 595.195 105.775 604.245 105.775C613.294 105.775 620.631 113.111 620.631 122.161V411.999C620.631 430.07 605.929 444.77 587.859 444.77V444.77Z" fill="#E53950"/>
<path d="M441.227 553.897H233.633C224.584 553.897 217.247 546.561 217.247 537.511V367.768C217.247 358.719 224.583 351.382 233.633 351.382C242.682 351.382 250.019 358.718 250.019 367.768V521.126H441.227C450.276 521.126 457.613 528.462 457.613 537.512C457.613 546.562 450.276 553.897 441.227 553.897Z" fill="#3692BC"/>
<path d="M604.244 297.429C615.707 297.429 625 288.137 625 276.673C625 265.21 615.707 255.917 604.244 255.917C592.781 255.917 583.488 265.21 583.488 276.673C583.488 288.137 592.781 297.429 604.244 297.429Z" fill="#F8A5AF"/>
<path d="M441.227 449.141C452.69 449.141 461.983 439.848 461.983 428.384C461.983 416.921 452.69 407.628 441.227 407.628C429.764 407.628 420.471 416.921 420.471 428.384C420.471 439.848 429.764 449.141 441.227 449.141Z" fill="#DFF6FD"/>
<path d="M236.73 555.171C248.193 555.171 257.486 545.878 257.486 534.415C257.486 522.952 248.193 513.659 236.73 513.659C225.267 513.659 215.974 522.952 215.974 534.415C215.974 545.878 225.267 555.171 236.73 555.171Z" fill="#8ABBD5"/>
<path d="M604.244 105.775H384.636C377.163 105.775 370.638 110.831 368.77 118.066L308.56 351.382H91.3861C82.3358 351.382 75 358.719 75 367.768C75 376.818 82.3358 384.154 91.3861 384.154H308.56C323.508 384.154 336.556 374.045 340.292 359.571L397.33 138.546H604.244V105.775Z" fill="#FEC165"/>
<path d="M353.562 258.007C365.025 258.007 374.318 248.714 374.318 237.251C374.318 225.787 365.025 216.495 353.562 216.495C342.099 216.495 332.806 225.787 332.806 237.251C332.806 248.714 342.099 258.007 353.562 258.007Z" fill="#FEE8C7"/>
<path d="M385.626 142.916C397.089 142.916 406.382 133.623 406.382 122.16C406.382 110.697 397.089 101.404 385.626 101.404C374.162 101.404 364.87 110.697 364.87 122.16C364.87 133.623 374.162 142.916 385.626 142.916Z" fill="#FEE8C7"/>
<path d="M103.601 389.054C115.065 389.054 124.357 379.761 124.357 368.298C124.357 356.835 115.065 347.542 103.601 347.542C92.138 347.542 82.8452 356.835 82.8452 368.298C82.8452 379.761 92.138 389.054 103.601 389.054Z" fill="#FEE8C7"/>
<path d="M233.633 389.054C245.096 389.054 254.389 379.761 254.389 368.298C254.389 356.835 245.096 347.542 233.633 347.542C222.17 347.542 212.877 356.835 212.877 368.298C212.877 379.761 222.17 389.054 233.633 389.054Z" fill="#DFF6FD"/>
<path d="M604.244 142.512C615.707 142.512 625 133.219 625 121.756C625 110.293 615.707 101 604.244 101C592.781 101 583.488 110.293 583.488 121.756C583.488 133.219 592.781 142.512 604.244 142.512Z" fill="#F8A5AF"/>
</svg>
