<svg width="700" height="700" viewBox="0 0 700 700" fill="none" xmlns="http://www.w3.org/2000/svg">
<rect width="700" height="700" rx="80" fill="white"/>
<g clip-path="url(#clip0)">
<path d="M434.924 575.533C426.5 575.533 419.67 568.704 419.67 560.279V253.449H165.248C156.824 253.449 149.994 246.62 149.994 238.195C149.994 229.77 156.823 222.941 165.248 222.941H419.67C436.492 222.941 450.178 236.627 450.178 253.449V560.278C450.178 568.703 443.348 575.533 434.924 575.533Z" fill="#0AB69F"/>
<path d="M571.425 431.378H434.924C426.5 431.378 419.67 424.549 419.67 416.124C419.67 407.699 426.499 400.87 434.924 400.87H571.425V131.058C571.425 122.634 578.254 115.804 586.679 115.804C595.103 115.804 601.933 122.633 601.933 131.058V400.871C601.933 417.693 588.247 431.378 571.425 431.378Z" fill="#E53950"/>
<path d="M434.924 532.965H241.673C233.249 532.965 226.419 526.136 226.419 517.711V359.696C226.419 351.272 233.248 344.442 241.673 344.442C250.097 344.442 256.927 351.271 256.927 359.696V502.458H434.924C443.348 502.458 450.178 509.287 450.178 517.712C450.178 526.137 443.348 532.965 434.924 532.965Z" fill="#3692BC"/>
<path d="M586.678 294.217C597.349 294.217 606 285.566 606 274.895C606 264.224 597.349 255.573 586.678 255.573C576.007 255.573 567.356 264.224 567.356 274.895C567.356 285.566 576.007 294.217 586.678 294.217Z" fill="#F8A5AF"/>
<path d="M434.924 435.446C445.595 435.446 454.246 426.795 454.246 416.124C454.246 405.453 445.595 396.802 434.924 396.802C424.253 396.802 415.602 405.453 415.602 416.124C415.602 426.795 424.253 435.446 434.924 435.446Z" fill="#DFF6FD"/>
<path d="M244.556 534.151C255.227 534.151 263.878 525.5 263.878 514.829C263.878 504.158 255.227 495.507 244.556 495.507C233.885 495.507 225.234 504.158 225.234 514.829C225.234 525.5 233.885 534.151 244.556 534.151Z" fill="#8ABBD5"/>
<path d="M586.678 115.804H382.243C375.286 115.804 369.212 120.511 367.473 127.246L311.423 344.442H109.254C100.829 344.442 94 351.272 94 359.696C94 368.12 100.829 374.95 109.254 374.95H311.423C325.338 374.95 337.485 365.539 340.963 352.065L394.06 146.311H586.678V115.804Z" fill="#FEC165"/>
<path d="M353.316 257.518C363.987 257.518 372.638 248.867 372.638 238.196C372.638 227.525 363.987 218.874 353.316 218.874C342.645 218.874 333.994 227.525 333.994 238.196C333.994 248.867 342.645 257.518 353.316 257.518Z" fill="#FEE8C7"/>
<path d="M383.164 150.379C393.836 150.379 402.486 141.728 402.486 131.057C402.486 120.386 393.836 111.735 383.164 111.735C372.493 111.735 363.842 120.386 363.842 131.057C363.842 141.728 372.493 150.379 383.164 150.379Z" fill="#FEE8C7"/>
<path d="M120.625 379.511C131.296 379.511 139.947 370.86 139.947 360.189C139.947 349.518 131.296 340.867 120.625 340.867C109.954 340.867 101.303 349.518 101.303 360.189C101.303 370.86 109.954 379.511 120.625 379.511Z" fill="#FEE8C7"/>
<path d="M241.673 379.511C252.344 379.511 260.995 370.86 260.995 360.189C260.995 349.518 252.344 340.867 241.673 340.867C231.002 340.867 222.351 349.518 222.351 360.189C222.351 370.86 231.002 379.511 241.673 379.511Z" fill="#DFF6FD"/>
<path d="M586.678 150.003C597.349 150.003 606 141.352 606 130.681C606 120.01 597.349 111.359 586.678 111.359C576.007 111.359 567.356 120.01 567.356 130.681C567.356 141.352 576.007 150.003 586.678 150.003Z" fill="#F8A5AF"/>
</g>
<defs>
<clipPath id="clip0">
<rect width="512" height="512" fill="white" transform="translate(94 94)"/>
</clipPath>
</defs>
</svg>
