<svg width="700" height="700" viewBox="0 0 700 700" fill="none" xmlns="http://www.w3.org/2000/svg">
<rect width="700" height="700" rx="80" fill="white"/>
<path fill-rule="evenodd" clip-rule="evenodd" d="M350 94C209.2 94 94 209.2 94 350C94 490.8 209.2 606 350 606C490.8 606 606 490.8 606 350C606 209.2 492.08 94 350 94ZM467.76 463.92C462.64 471.6 453.68 474.16 446 469.04C385.84 431.92 310.32 424.24 220.72 444.72C211.76 447.28 204.08 440.88 201.52 433.2C198.96 424.24 205.36 416.56 213.04 414C310.32 392.24 394.8 401.2 461.36 442.16C470.32 446 471.6 456.24 467.76 463.92ZM498.48 393.52C492.08 402.48 480.56 406.32 471.6 399.92C402.48 357.68 297.52 344.88 216.88 370.48C206.64 373.04 195.12 367.92 192.56 357.68C190 347.44 195.12 335.92 205.36 333.36C298.8 305.2 414 319.28 493.36 367.92C501.04 371.76 504.88 384.56 498.48 393.52ZM501.04 321.84C419.12 273.2 282.16 268.08 204.08 292.4C191.28 296.24 178.48 288.56 174.64 277.04C170.8 264.24 178.48 251.44 190 247.6C280.88 220.72 430.64 225.84 525.36 282.16C536.88 288.56 540.72 303.92 534.32 315.44C527.92 324.4 512.56 328.24 501.04 321.84Z" fill="#10BC4C"/>
</svg>
