<svg width="700" height="700" viewBox="0 0 700 700" fill="none" xmlns="http://www.w3.org/2000/svg">
<rect width="700" height="700" rx="80" fill="white"/>
<path d="M263.408 320.983C230.709 300.858 203.907 272.458 185.699 238.653L158.788 188.652C155.068 190.257 153.03 194.298 153.959 198.244L163.346 240.586C178.358 309.696 239.671 358.871 310.384 358.53H315.888C317.83 358.496 319.696 357.792 321.175 356.534L263.408 320.983Z" fill="#589C17"/>
<path d="M445.739 381.568C427.761 394.405 413.549 411.822 404.579 432.01L400.633 440.885C451.856 396.976 514.819 369.042 581.744 360.542L598.002 358.53H517.673C491.878 358.521 466.73 366.58 445.739 381.568V381.568Z" fill="#589C17"/>
<path d="M311.826 575.108L311.655 574.171C294.685 480.819 209.74 415.518 115.17 423.127L111.199 423.444L99.8705 427.223C96.3665 428.377 94 431.644 94 435.331C94 439.019 96.3665 442.286 99.8705 443.436L109.008 446.486C152.805 461.052 193.674 483.278 229.705 512.132L302.022 569.987C302.51 570.329 303.039 570.617 303.593 570.842L303.539 570.954L311.826 575.108Z" fill="#589C17"/>
<path d="M600.289 341.942L529.301 317.1C500.974 307.183 469.842 309.171 443.002 322.604C416.166 336.042 395.917 359.776 386.88 388.397L368.306 447.219L350.019 460.931V338.092C349.999 321.721 358.186 306.425 371.818 297.362L362.348 283.162C343.966 295.391 332.929 316.013 332.954 338.092V354.996L321.921 343.963L309.855 356.03L332.954 379.13V566.591L315.888 558.058V540.503C315.884 497.578 295.247 457.265 260.424 432.164C225.597 407.068 180.833 400.239 140.11 413.818L99.8705 427.231C96.3665 428.385 94 431.652 94 435.339C94 439.027 96.3665 442.294 99.8705 443.448L109.008 446.494C152.805 461.056 193.674 483.282 229.705 512.132L302.022 569.987C302.51 570.329 303.039 570.616 303.593 570.841L303.539 570.954L332.954 585.675V606H350.019V482.265L380.734 459.223L380.643 459.106C380.993 458.902 381.33 458.677 381.651 458.431C435.686 404.568 506.057 370.147 581.744 360.559L598.531 358.463C602.46 357.967 605.531 354.834 605.951 350.896C606.372 346.959 604.027 343.25 600.289 341.942Z" fill="#589C17"/>
<path d="M422.282 166.26L418.282 101.997C418.028 97.9551 414.97 94.6468 410.958 94.0759C406.958 93.5426 403.121 95.8634 401.737 99.6593L374.139 176.902C363.819 205.757 358.544 236.174 358.552 266.82V290.262C358.552 293.712 360.631 296.825 363.819 298.146C367.006 299.462 370.677 298.733 373.118 296.296C407.391 262.008 425.299 214.653 422.282 166.26Z" fill="#5FA819"/>
<path d="M221.451 207.843L164.992 189.072C162.075 188.096 158.859 188.767 156.572 190.826C154.288 192.888 153.288 196.017 153.959 199.022L163.346 241.364C178.374 310.452 239.684 359.607 310.384 359.261H315.888C320.6 359.261 324.421 355.441 324.421 350.728C324.475 285.885 282.977 228.305 221.451 207.843Z" fill="#5FA819"/>
</svg>
