<svg width="700" height="700" viewBox="0 0 700 700" fill="none" xmlns="http://www.w3.org/2000/svg">
<rect width="700" height="700" rx="80" fill="#8ABBD5"/>
<path d="M381.653 354.814C417.869 350.267 453.581 364.842 476.484 393.055C478.165 395.126 481.165 395.579 483.319 394.006C493.694 386.425 502.626 376.954 509.63 366.021C553.278 297.92 504.808 206 422 206C367.964 206 323.426 247.411 318.469 300.167C318.269 302.298 319.446 304.333 321.404 305.198C344.009 315.196 363.321 331.669 376.887 352.612C377.915 354.201 379.776 355.049 381.653 354.814Z" fill="#F6CB43"/>
<path d="M422 190C430.837 190 438 182.836 438 174V142C438 133.164 430.837 126 422 126C413.163 126 406 133.164 406 142V174C406 182.836 413.163 190 422 190Z" fill="#F6CB43"/>
<path d="M590 294H558C549.163 294 542 301.164 542 310C542 318.836 549.163 326 558 326H590C598.837 326 606 318.836 606 310C606 301.164 598.837 294 590 294Z" fill="#F6CB43"/>
<path d="M529.48 394.853C523.233 388.605 513.102 388.605 506.853 394.853C500.604 401.102 500.604 411.232 506.853 417.48L529.48 440.107C532.604 443.232 536.698 444.794 540.793 444.794C554.921 444.794 562.214 427.587 552.106 417.481L529.48 394.853Z" fill="#F6CB43"/>
<path d="M314.52 225.147C320.768 231.396 330.898 231.396 337.147 225.147C343.396 218.898 343.396 208.768 337.147 202.52L314.52 179.893C308.274 173.645 298.143 173.645 291.893 179.893C285.644 186.142 285.644 196.272 291.893 202.52L314.52 225.147Z" fill="#F6CB43"/>
<path d="M518.166 229.833C522.261 229.833 526.355 228.271 529.479 225.146L552.106 202.519C558.355 196.27 558.355 186.14 552.106 179.892C545.858 173.644 535.727 173.643 529.479 179.892L506.853 202.52C496.743 212.629 504.04 229.833 518.166 229.833Z" fill="#F6CB43"/>
<path d="M466.53 474C478.865 413.226 415.219 366.37 361.245 394.066C349.382 354.917 313.022 326.417 270 326.417C214.166 326.417 170.086 374.236 175.05 430.273C129.698 433.816 94 471.738 94 518C94 566.466 133.265 606 182 606H468C504.451 606 534 576.451 534 540C534 505.162 506.587 474 466.53 474Z" fill="#F7F7F7"/>
</svg>
