<svg width="700" height="700" viewBox="0 0 700 700" fill="none" xmlns="http://www.w3.org/2000/svg">
<rect width="700" height="700" rx="80" fill="white"/>
<path d="M575.181 277.919H553.065C550.556 277.919 548.15 276.922 546.376 275.148C544.602 273.374 543.605 270.968 543.605 268.459C543.605 265.951 544.602 263.545 546.376 261.771C548.15 259.997 550.556 259 553.065 259H575.181C577.69 259 580.096 259.997 581.87 261.771C583.644 263.545 584.641 265.951 584.641 268.459C584.641 270.968 583.644 273.374 581.87 275.148C580.096 276.922 577.69 277.919 575.181 277.919Z" fill="black"/>
<path d="M468.28 277.919H446.164C443.655 277.919 441.249 276.922 439.475 275.148C437.701 273.374 436.704 270.968 436.704 268.459C436.704 265.951 437.701 263.545 439.475 261.771C441.249 259.997 443.655 259 446.164 259H468.28C470.789 259 473.195 259.997 474.969 261.771C476.743 263.545 477.739 265.951 477.739 268.459C477.739 270.968 476.743 273.374 474.969 275.148C473.195 276.922 470.789 277.919 468.28 277.919Z" fill="black"/>
<path d="M361.378 277.919H339.262C336.753 277.919 334.347 276.922 332.573 275.148C330.799 273.374 329.803 270.968 329.803 268.459C329.803 265.951 330.799 263.545 332.573 261.771C334.347 259.997 336.753 259 339.262 259H361.378C363.887 259 366.293 259.997 368.067 261.771C369.841 263.545 370.838 265.951 370.838 268.459C370.838 270.968 369.841 273.374 368.067 275.148C366.293 276.922 363.887 277.919 361.378 277.919V277.919Z" fill="black"/>
<path d="M575.181 368.569H553.065C550.556 368.569 548.15 367.573 546.376 365.799C544.602 364.025 543.605 361.619 543.605 359.11C543.605 356.601 544.602 354.195 546.376 352.421C548.15 350.647 550.556 349.65 553.065 349.65H575.181C577.69 349.65 580.096 350.647 581.87 352.421C583.644 354.195 584.641 356.601 584.641 359.11C584.641 361.619 583.644 364.025 581.87 365.799C580.096 367.573 577.69 368.569 575.181 368.569Z" fill="black"/>
<path d="M468.28 368.569H446.164C443.655 368.569 441.249 367.573 439.475 365.799C437.701 364.025 436.704 361.619 436.704 359.11C436.704 356.601 437.701 354.195 439.475 352.421C441.249 350.647 443.655 349.65 446.164 349.65H468.28C470.789 349.65 473.195 350.647 474.969 352.421C476.743 354.195 477.739 356.601 477.739 359.11C477.739 361.619 476.743 364.025 474.969 365.799C473.195 367.573 470.789 368.569 468.28 368.569Z" fill="black"/>
<path d="M361.378 368.569H339.262C336.753 368.569 334.347 367.573 332.573 365.799C330.799 364.025 329.803 361.619 329.803 359.11C329.803 356.601 330.799 354.195 332.573 352.421C334.347 350.647 336.753 349.65 339.262 349.65H361.378C363.887 349.65 366.293 350.647 368.067 352.421C369.841 354.195 370.838 356.601 370.838 359.11C370.838 361.619 369.841 364.025 368.067 365.799C366.293 367.573 363.887 368.569 361.378 368.569V368.569Z" fill="black"/>
<path d="M254.477 368.569H232.361C229.852 368.569 227.446 367.573 225.672 365.799C223.898 364.025 222.901 361.619 222.901 359.11C222.901 356.601 223.898 354.195 225.672 352.421C227.446 350.647 229.852 349.65 232.361 349.65H254.477C256.986 349.65 259.392 350.647 261.166 352.421C262.94 354.195 263.937 356.601 263.937 359.11C263.937 361.619 262.94 364.025 261.166 365.799C259.392 367.573 256.986 368.569 254.477 368.569V368.569Z" fill="black"/>
<path d="M147.576 368.569H125.459C122.951 368.569 120.545 367.573 118.771 365.799C116.997 364.025 116 361.619 116 359.11C116 356.601 116.997 354.195 118.771 352.421C120.545 350.647 122.951 349.65 125.459 349.65H147.576C150.084 349.65 152.491 350.647 154.265 352.421C156.039 354.195 157.035 356.601 157.035 359.11C157.035 361.619 156.039 364.025 154.265 365.799C152.491 367.573 150.084 368.569 147.576 368.569Z" fill="black"/>
<path d="M575.181 459.228H553.065C550.556 459.228 548.15 458.232 546.376 456.458C544.602 454.684 543.605 452.278 543.605 449.769C543.605 447.26 544.602 444.854 546.376 443.08C548.15 441.306 550.556 440.31 553.065 440.31H575.181C577.69 440.31 580.096 441.306 581.87 443.08C583.644 444.854 584.641 447.26 584.641 449.769C584.641 452.278 583.644 454.684 581.87 456.458C580.096 458.232 577.69 459.228 575.181 459.228Z" fill="black"/>
<path d="M468.28 459.228H446.164C443.655 459.228 441.249 458.232 439.475 456.458C437.701 454.684 436.704 452.278 436.704 449.769C436.704 447.26 437.701 444.854 439.475 443.08C441.249 441.306 443.655 440.31 446.164 440.31H468.28C470.789 440.31 473.195 441.306 474.969 443.08C476.743 444.854 477.739 447.26 477.739 449.769C477.739 452.278 476.743 454.684 474.969 456.458C473.195 458.232 470.789 459.228 468.28 459.228Z" fill="black"/>
<path d="M476.462 466.049H437.768C433.379 466.049 429.169 464.305 426.065 461.201C422.961 458.098 421.218 453.888 421.218 449.499C421.218 445.109 422.961 440.899 426.065 437.796C429.169 434.692 433.379 432.948 437.768 432.948H476.462C480.852 432.948 485.061 434.692 488.165 437.796C491.269 440.899 493.013 445.109 493.013 449.499C493.013 453.888 491.269 458.098 488.165 461.201C485.061 464.305 480.852 466.049 476.462 466.049Z" fill="#EF554C"/>
<path d="M361.378 459.228H339.262C336.753 459.228 334.347 458.232 332.573 456.458C330.799 454.684 329.803 452.278 329.803 449.769C329.803 447.26 330.799 444.854 332.573 443.08C334.347 441.306 336.753 440.31 339.262 440.31H361.378C363.887 440.31 366.293 441.306 368.067 443.08C369.841 444.854 370.838 447.26 370.838 449.769C370.838 452.278 369.841 454.684 368.067 456.458C366.293 458.232 363.887 459.228 361.378 459.228V459.228Z" fill="black"/>
<path d="M254.477 459.228H232.361C229.852 459.228 227.446 458.232 225.672 456.458C223.898 454.684 222.901 452.278 222.901 449.769C222.901 447.26 223.898 444.854 225.672 443.08C227.446 441.306 229.852 440.31 232.361 440.31H254.477C256.986 440.31 259.392 441.306 261.166 443.08C262.94 444.854 263.937 447.26 263.937 449.769C263.937 452.278 262.94 454.684 261.166 456.458C259.392 458.232 256.986 459.228 254.477 459.228V459.228Z" fill="black"/>
<path d="M147.576 459.228H125.459C122.951 459.228 120.545 458.232 118.771 456.458C116.997 454.684 116 452.278 116 449.769C116 447.26 116.997 444.854 118.771 443.08C120.545 441.306 122.951 440.31 125.459 440.31H147.576C150.084 440.31 152.491 441.306 154.265 443.08C156.039 444.854 157.035 447.26 157.035 449.769C157.035 452.278 156.039 454.684 154.265 456.458C152.491 458.232 150.084 459.228 147.576 459.228Z" fill="black"/>
<path d="M361.378 549.878H339.262C336.753 549.878 334.347 548.882 332.573 547.108C330.799 545.334 329.803 542.928 329.803 540.419C329.803 537.91 330.799 535.504 332.573 533.73C334.347 531.956 336.753 530.959 339.262 530.959H361.378C363.887 530.959 366.293 531.956 368.067 533.73C369.841 535.504 370.838 537.91 370.838 540.419C370.838 542.928 369.841 545.334 368.067 547.108C366.293 548.882 363.887 549.878 361.378 549.878V549.878Z" fill="black"/>
<path d="M254.477 549.878H232.361C229.852 549.878 227.446 548.882 225.672 547.108C223.898 545.334 222.901 542.928 222.901 540.419C222.901 537.91 223.898 535.504 225.672 533.73C227.446 531.956 229.852 530.959 232.361 530.959H254.477C256.986 530.959 259.392 531.956 261.166 533.73C262.94 535.504 263.937 537.91 263.937 540.419C263.937 542.928 262.94 545.334 261.166 547.108C259.392 548.882 256.986 549.878 254.477 549.878V549.878Z" fill="black"/>
<path d="M147.576 549.878H125.459C122.951 549.878 120.545 548.882 118.771 547.108C116.997 545.334 116 542.928 116 540.419C116 537.91 116.997 535.504 118.771 533.73C120.545 531.956 122.951 530.959 125.459 530.959H147.576C150.084 530.959 152.491 531.956 154.265 533.73C156.039 535.504 157.035 537.91 157.035 540.419C157.035 542.928 156.039 545.334 154.265 547.108C152.491 548.882 150.084 549.878 147.576 549.878Z" fill="black"/>
<path d="M0 80C0 35.8173 35.8172 0 80 0H620C664.183 0 700 35.8172 700 80V162.455H0V80Z" fill="#EF554C"/>
</svg>
