<svg width="700" height="700" viewBox="0 0 700 700" fill="none" xmlns="http://www.w3.org/2000/svg">
<rect width="700" height="700" rx="80" fill="#C0C0C0"/>
<path d="M350 94C208.723 94 94 208.723 94 350C94 491.277 208.723 606 350 606C491.277 606 606 491.277 606 350C606 208.723 491.277 94 350 94ZM350 112.286C481.394 112.286 587.714 218.606 587.714 350C587.714 481.394 481.394 587.714 350 587.714C218.606 587.714 112.286 481.394 112.286 350C112.286 218.606 218.606 112.286 350 112.286ZM349.857 139.589C347.435 139.627 345.128 140.624 343.44 142.362C341.753 144.099 340.824 146.435 340.857 148.857V158.232C335.748 158.472 330.712 158.956 325.714 159.589L324.071 150.321C323.726 148.195 322.641 146.258 321.008 144.853C319.374 143.449 317.297 142.666 315.143 142.643C313.789 142.63 312.45 142.917 311.221 143.484C309.992 144.052 308.904 144.885 308.036 145.923C307.168 146.962 306.542 148.181 306.202 149.491C305.862 150.801 305.818 152.17 306.071 153.5L307.696 162.75C302.729 163.87 297.814 165.127 293 166.625L289.804 157.857C289.197 156.119 288.08 154.604 286.598 153.512C285.117 152.419 283.34 151.799 281.5 151.732C279.992 151.678 278.493 151.997 277.138 152.663C275.784 153.328 274.615 154.319 273.736 155.546C272.857 156.773 272.295 158.199 272.102 159.696C271.908 161.193 272.088 162.714 272.625 164.125L275.821 172.911C271.126 174.883 266.605 177.156 262.107 179.482L257.339 171.232C256.518 169.761 255.306 168.546 253.838 167.721C252.369 166.895 250.701 166.491 249.018 166.554C247.433 166.615 245.891 167.087 244.544 167.925C243.197 168.762 242.09 169.935 241.334 171.33C240.577 172.724 240.196 174.291 240.229 175.877C240.261 177.463 240.705 179.013 241.518 180.375L246.286 188.643C242.022 191.392 237.917 194.342 233.893 197.411L227.714 190.036C226.842 188.969 225.741 188.113 224.491 187.531C223.242 186.95 221.878 186.658 220.5 186.679C218.762 186.706 217.068 187.228 215.617 188.184C214.165 189.14 213.016 190.489 212.304 192.075C211.592 193.66 211.346 195.415 211.596 197.135C211.846 198.855 212.581 200.468 213.714 201.786L219.893 209.161C216.173 212.6 212.6 216.173 209.161 219.893L201.786 213.714C200.157 212.303 198.083 211.513 195.929 211.482C194.031 211.458 192.173 212.024 190.611 213.104C189.05 214.183 187.864 215.721 187.216 217.505C186.568 219.289 186.492 221.23 186.997 223.059C187.502 224.889 188.564 226.516 190.036 227.714L197.411 233.893C194.342 237.917 191.392 242.022 188.643 246.286L180.375 241.518C178.795 240.57 176.965 240.122 175.125 240.232C173.154 240.355 171.276 241.113 169.771 242.392C168.267 243.672 167.217 245.404 166.778 247.329C166.34 249.255 166.537 251.271 167.34 253.075C168.143 254.88 169.508 256.376 171.232 257.339L179.482 262.107C177.156 266.605 174.883 271.126 172.911 275.821L164.125 272.625C162.98 272.19 161.76 271.99 160.536 272.036C158.407 272.115 156.373 272.936 154.785 274.355C153.196 275.774 152.154 277.704 151.836 279.81C151.518 281.916 151.946 284.067 153.046 285.892C154.145 287.716 155.847 289.1 157.857 289.804L166.625 293C165.127 297.814 163.87 302.729 162.75 307.696L153.5 306.071C152.9 305.957 152.29 305.903 151.679 305.911C149.398 305.949 147.214 306.838 145.556 308.403C143.897 309.969 142.883 312.097 142.713 314.372C142.543 316.646 143.229 318.902 144.637 320.697C146.045 322.491 148.072 323.695 150.321 324.071L159.589 325.714C158.956 330.712 158.472 335.748 158.232 340.857H148.857C147.646 340.84 146.443 341.064 145.318 341.516C144.194 341.967 143.171 342.638 142.308 343.489C141.445 344.34 140.76 345.353 140.293 346.471C139.825 347.589 139.584 348.788 139.584 350C139.584 351.212 139.825 352.411 140.293 353.529C140.76 354.647 141.445 355.66 142.308 356.511C143.171 357.362 144.194 358.033 145.318 358.484C146.443 358.936 147.646 359.16 148.857 359.143H158.232C158.472 364.252 158.956 369.288 159.589 374.286L150.321 375.929C149.109 376.104 147.944 376.52 146.896 377.154C145.848 377.788 144.937 378.626 144.219 379.619C143.501 380.611 142.99 381.738 142.716 382.932C142.442 384.126 142.41 385.362 142.623 386.569C142.836 387.775 143.289 388.926 143.956 389.954C144.622 390.982 145.489 391.865 146.503 392.552C147.518 393.238 148.66 393.714 149.862 393.95C151.064 394.187 152.301 394.179 153.5 393.929L162.75 392.304C163.87 397.271 165.127 402.186 166.625 407L157.857 410.196C156.716 410.598 155.666 411.222 154.768 412.032C153.869 412.842 153.141 413.823 152.624 414.916C152.107 416.01 151.813 417.196 151.758 418.404C151.702 419.612 151.887 420.82 152.302 421.956C152.717 423.092 153.353 424.135 154.173 425.024C154.994 425.913 155.982 426.63 157.082 427.134C158.182 427.638 159.37 427.919 160.579 427.96C161.788 428.002 162.993 427.803 164.125 427.375L172.911 424.179C174.883 428.874 177.156 433.395 179.482 437.893L171.232 442.661C170.143 443.234 169.18 444.022 168.402 444.976C167.624 445.93 167.047 447.032 166.705 448.215C166.364 449.398 166.264 450.638 166.413 451.86C166.563 453.082 166.957 454.262 167.573 455.328C168.189 456.394 169.014 457.324 169.999 458.064C170.983 458.803 172.107 459.336 173.302 459.631C174.498 459.926 175.741 459.976 176.956 459.778C178.171 459.581 179.334 459.14 180.375 458.482L188.643 453.714C191.392 457.978 194.342 462.083 197.411 466.107L190.036 472.286C189.071 473.042 188.267 473.986 187.674 475.059C187.081 476.132 186.71 477.314 186.583 478.534C186.456 479.754 186.575 480.987 186.934 482.159C187.293 483.332 187.885 484.421 188.673 485.36C189.462 486.299 190.431 487.071 191.524 487.628C192.616 488.185 193.81 488.516 195.033 488.603C196.257 488.689 197.485 488.529 198.645 488.13C199.805 487.732 200.873 487.105 201.786 486.286L209.161 480.107C212.6 483.828 216.173 487.4 219.893 490.839L213.714 498.214C212.895 499.127 212.268 500.195 211.87 501.355C211.471 502.515 211.311 503.743 211.397 504.967C211.484 506.19 211.815 507.384 212.372 508.476C212.929 509.569 213.701 510.538 214.64 511.327C215.579 512.115 216.668 512.707 217.841 513.066C219.013 513.425 220.246 513.544 221.466 513.417C222.686 513.29 223.868 512.919 224.941 512.326C226.014 511.733 226.958 510.929 227.714 509.964L233.893 502.589C237.917 505.658 242.022 508.608 246.286 511.357L241.518 519.625C240.86 520.666 240.419 521.829 240.222 523.044C240.024 524.259 240.075 525.502 240.369 526.698C240.664 527.893 241.197 529.017 241.936 530.001C242.676 530.986 243.606 531.811 244.672 532.427C245.738 533.043 246.918 533.438 248.14 533.587C249.362 533.736 250.602 533.636 251.785 533.295C252.968 532.953 254.07 532.376 255.024 531.598C255.978 530.82 256.766 529.858 257.339 528.768L262.107 520.518C266.605 522.844 271.126 525.117 275.821 527.089L272.625 535.875C272.197 537.007 271.998 538.212 272.04 539.421C272.081 540.63 272.362 541.818 272.866 542.918C273.37 544.018 274.087 545.006 274.976 545.827C275.865 546.647 276.908 547.283 278.044 547.698C279.18 548.113 280.388 548.298 281.596 548.242C282.804 548.187 283.99 547.893 285.084 547.376C286.177 546.859 287.158 546.131 287.968 545.232C288.778 544.334 289.402 543.284 289.804 542.143L293 533.375C297.814 534.873 302.729 536.13 307.696 537.25L306.071 546.5C305.821 547.699 305.813 548.936 306.05 550.138C306.286 551.34 306.762 552.482 307.448 553.497C308.135 554.511 309.018 555.378 310.046 556.044C311.074 556.711 312.225 557.164 313.431 557.377C314.638 557.59 315.874 557.559 317.068 557.284C318.262 557.01 319.389 556.499 320.381 555.781C321.374 555.063 322.212 554.152 322.846 553.104C323.48 552.056 323.896 550.891 324.071 549.679L325.714 540.411C330.712 541.044 335.748 541.528 340.857 541.768V551.143C340.84 552.354 341.064 553.557 341.516 554.682C341.967 555.806 342.638 556.829 343.489 557.692C344.34 558.555 345.353 559.24 346.471 559.708C347.589 560.175 348.788 560.416 350 560.416C351.212 560.416 352.411 560.175 353.529 559.708C354.647 559.24 355.66 558.555 356.511 557.692C357.362 556.829 358.033 555.806 358.484 554.682C358.936 553.557 359.16 552.354 359.143 551.143V541.768C364.252 541.528 369.288 541.044 374.286 540.411L375.929 549.679C376.104 550.891 376.52 552.056 377.154 553.104C377.788 554.152 378.626 555.063 379.619 555.781C380.611 556.499 381.738 557.01 382.932 557.284C384.126 557.559 385.362 557.59 386.569 557.377C387.775 557.164 388.926 556.711 389.954 556.044C390.982 555.378 391.865 554.511 392.552 553.497C393.238 552.482 393.714 551.34 393.95 550.138C394.187 548.936 394.179 547.699 393.929 546.5L392.304 537.25C397.271 536.13 402.186 534.873 407 533.375L410.196 542.143C410.598 543.284 411.222 544.334 412.032 545.232C412.842 546.131 413.823 546.859 414.916 547.376C416.01 547.893 417.196 548.187 418.404 548.242C419.612 548.298 420.82 548.113 421.956 547.698C423.092 547.283 424.135 546.647 425.024 545.827C425.913 545.006 426.63 544.018 427.134 542.918C427.638 541.818 427.919 540.63 427.96 539.421C428.002 538.212 427.803 537.007 427.375 535.875L424.179 527.089C428.874 525.117 433.395 522.844 437.893 520.518L442.661 528.768C443.234 529.858 444.022 530.82 444.976 531.598C445.93 532.376 447.032 532.953 448.215 533.295C449.398 533.636 450.638 533.736 451.86 533.587C453.082 533.438 454.262 533.043 455.328 532.427C456.394 531.811 457.324 530.986 458.064 530.001C458.803 529.017 459.336 527.893 459.631 526.698C459.926 525.502 459.976 524.259 459.778 523.044C459.581 521.829 459.14 520.666 458.482 519.625L453.714 511.357C457.978 508.608 462.083 505.658 466.107 502.589L472.286 509.964C473.042 510.929 473.986 511.733 475.059 512.326C476.132 512.919 477.314 513.29 478.534 513.417C479.754 513.544 480.987 513.425 482.159 513.066C483.332 512.707 484.421 512.115 485.36 511.327C486.299 510.538 487.071 509.569 487.628 508.476C488.185 507.384 488.516 506.19 488.603 504.967C488.689 503.743 488.529 502.515 488.13 501.355C487.732 500.195 487.105 499.127 486.286 498.214L480.107 490.839C483.828 487.4 487.4 483.828 490.839 480.107L498.214 486.286C499.127 487.105 500.195 487.732 501.355 488.13C502.515 488.529 503.743 488.689 504.967 488.603C506.19 488.516 507.384 488.185 508.476 487.628C509.569 487.071 510.538 486.299 511.327 485.36C512.115 484.421 512.707 483.332 513.066 482.159C513.425 480.987 513.544 479.754 513.417 478.534C513.29 477.314 512.919 476.132 512.326 475.059C511.733 473.986 510.929 473.042 509.964 472.286L502.589 466.107C505.658 462.083 508.608 457.978 511.357 453.714L519.625 458.482C520.666 459.14 521.829 459.581 523.044 459.778C524.259 459.976 525.502 459.926 526.698 459.631C527.893 459.336 529.017 458.803 530.001 458.064C530.986 457.324 531.811 456.394 532.427 455.328C533.043 454.262 533.438 453.082 533.587 451.86C533.736 450.638 533.636 449.398 533.295 448.215C532.953 447.032 532.376 445.93 531.598 444.976C530.82 444.022 529.858 443.234 528.768 442.661L520.518 437.893C522.844 433.395 525.117 428.874 527.089 424.179L535.875 427.375C537.007 427.803 538.212 428.002 539.421 427.96C540.63 427.919 541.818 427.638 542.918 427.134C544.018 426.63 545.006 425.913 545.827 425.024C546.647 424.135 547.283 423.092 547.698 421.956C548.113 420.82 548.298 419.612 548.242 418.404C548.187 417.196 547.893 416.01 547.376 414.916C546.859 413.823 546.131 412.842 545.232 412.032C544.334 411.222 543.284 410.598 542.143 410.196L533.375 407C534.873 402.186 536.13 397.271 537.25 392.304L546.5 393.929C547.699 394.179 548.936 394.187 550.138 393.95C551.34 393.714 552.482 393.238 553.497 392.552C554.511 391.865 555.378 390.982 556.044 389.954C556.711 388.926 557.164 387.775 557.377 386.569C557.59 385.362 557.559 384.126 557.284 382.932C557.01 381.738 556.499 380.611 555.781 379.619C555.063 378.626 554.152 377.788 553.104 377.154C552.056 376.52 550.891 376.104 549.679 375.929L540.411 374.286C541.044 369.288 541.528 364.252 541.768 359.143H551.143C552.354 359.16 553.557 358.936 554.682 358.484C555.806 358.033 556.829 357.362 557.692 356.511C558.555 355.66 559.24 354.647 559.708 353.529C560.175 352.411 560.416 351.212 560.416 350C560.416 348.788 560.175 347.589 559.708 346.471C559.24 345.353 558.555 344.34 557.692 343.489C556.829 342.638 555.806 341.967 554.682 341.516C553.557 341.064 552.354 340.84 551.143 340.857H541.768C541.528 335.748 541.044 330.712 540.411 325.714L549.679 324.071C551.95 323.69 553.994 322.466 555.402 320.643C556.81 318.82 557.478 316.533 557.272 314.239C557.067 311.945 556.004 309.813 554.295 308.269C552.585 306.725 550.357 305.883 548.054 305.911C547.532 305.92 547.012 305.974 546.5 306.071L537.25 307.696C536.13 302.729 534.873 297.814 533.375 293L542.143 289.804C544.183 289.098 545.909 287.694 547.013 285.838C548.117 283.983 548.529 281.797 548.176 279.667C547.824 277.537 546.728 275.601 545.085 274.201C543.441 272.801 541.355 272.028 539.196 272.018C538.061 272.012 536.935 272.218 535.875 272.625L527.089 275.821C525.117 271.126 522.844 266.605 520.518 262.107L528.768 257.339C530.506 256.362 531.876 254.843 532.671 253.014C533.465 251.185 533.64 249.147 533.169 247.209C532.698 245.272 531.606 243.542 530.061 242.282C528.515 241.022 526.6 240.303 524.607 240.232C522.858 240.175 521.128 240.621 519.625 241.518L511.357 246.286C508.608 242.022 505.658 237.917 502.589 233.893L509.964 227.714C511.449 226.5 512.514 224.85 513.01 222.996C513.505 221.143 513.404 219.182 512.723 217.389C512.042 215.595 510.814 214.062 509.213 213.005C507.613 211.949 505.72 211.422 503.804 211.5C501.744 211.587 499.775 212.367 498.214 213.714L490.839 219.893C487.4 216.173 483.828 212.6 480.107 209.161L486.286 201.786C487.435 200.45 488.174 198.811 488.414 197.065C488.654 195.319 488.384 193.541 487.636 191.945C486.889 190.349 485.697 189.003 484.203 188.068C482.709 187.134 480.976 186.651 479.214 186.679C477.885 186.701 476.576 187.013 475.379 187.592C474.183 188.172 473.127 189.006 472.286 190.036L466.107 197.411C462.083 194.342 457.978 191.392 453.714 188.643L458.482 180.375C459.305 178.993 459.749 177.419 459.769 175.811C459.789 174.204 459.385 172.619 458.597 171.217C457.809 169.815 456.665 168.646 455.282 167.827C453.898 167.008 452.322 166.569 450.714 166.554C449.076 166.54 447.464 166.968 446.047 167.791C444.63 168.614 443.461 169.802 442.661 171.232L437.893 179.482C433.395 177.156 428.874 174.883 424.179 172.911L427.375 164.125C427.893 162.765 428.079 161.302 427.917 159.856C427.756 158.41 427.252 157.023 426.447 155.811C425.641 154.599 424.559 153.597 423.289 152.887C422.018 152.178 420.597 151.782 419.143 151.732C417.193 151.665 415.274 152.224 413.664 153.326C412.054 154.428 410.839 156.015 410.196 157.857L407 166.625C402.186 165.127 397.271 163.87 392.304 162.75L393.929 153.5C394.188 152.146 394.138 150.751 393.782 149.419C393.427 148.088 392.775 146.854 391.875 145.809C390.975 144.765 389.85 143.938 388.586 143.39C387.321 142.841 385.949 142.586 384.571 142.643C382.467 142.731 380.457 143.544 378.882 144.943C377.308 146.342 376.264 148.242 375.929 150.321L374.286 159.589C369.288 158.956 364.252 158.472 359.143 158.232V148.857C359.16 147.634 358.931 146.42 358.47 145.287C358.009 144.153 357.325 143.124 356.459 142.26C355.593 141.396 354.563 140.714 353.429 140.255C352.295 139.797 351.08 139.57 349.857 139.589V139.589ZM348.929 176.339C349.664 176.429 350.407 176.429 351.143 176.339C360.48 176.4 369.588 177.33 378.518 178.804C379.686 179.242 380.932 179.436 382.179 179.375C400.953 182.886 418.654 189.375 434.768 198.393C435.814 199.448 437.101 200.233 438.518 200.679C446.467 205.396 454.079 210.58 461.143 216.464C461.202 216.519 461.261 216.572 461.321 216.625C469.22 223.223 476.529 230.526 483.143 238.411C483.219 238.501 483.296 238.591 483.375 238.679C489.312 245.785 494.55 253.441 499.304 261.446C499.752 262.872 500.543 264.165 501.607 265.214C510.626 281.327 517.112 299.031 520.625 317.804C520.552 319.093 520.753 320.383 521.214 321.589C522.681 330.508 523.604 339.604 523.661 348.929C523.571 349.664 523.571 350.407 523.661 351.143C523.46 382.01 515.178 410.896 500.911 435.929C500.599 436.351 500.324 436.799 500.089 437.268C495.367 445.382 490.146 453.149 484.214 460.357C483.461 460.97 482.81 461.7 482.286 462.518C476.227 469.635 469.601 476.265 462.482 482.321C461.701 482.831 461.002 483.458 460.411 484.179C453.232 490.091 445.49 495.287 437.411 500C436.889 500.256 436.393 500.561 435.929 500.911C410.867 515.194 381.944 523.479 351.036 523.661C350.645 523.612 350.251 523.588 349.857 523.589C349.523 523.595 349.189 523.619 348.857 523.661C317.889 523.46 288.928 515.103 263.839 500.75C263.513 500.526 263.173 500.323 262.821 500.143C254.67 495.405 246.863 490.171 239.625 484.214C239.025 483.478 238.314 482.839 237.518 482.321C230.405 476.271 223.786 469.646 217.732 462.536C217.197 461.694 216.527 460.947 215.75 460.321C209.779 453.061 204.53 445.232 199.786 437.054C199.628 436.765 199.455 436.485 199.268 436.214C184.887 411.095 176.528 382.086 176.339 351.071C176.429 350.336 176.429 349.593 176.339 348.857C176.4 339.52 177.33 330.412 178.804 321.482C179.242 320.314 179.436 319.068 179.375 317.821C182.886 299.047 189.375 281.346 198.393 265.232C199.448 264.186 200.233 262.899 200.679 261.482C205.404 253.518 210.603 245.896 216.5 238.821C216.542 238.774 216.584 238.727 216.625 238.679C223.256 230.741 230.606 223.408 238.536 216.768C238.584 216.721 238.631 216.673 238.679 216.625C245.785 210.688 253.441 205.45 261.446 200.696C262.872 200.248 264.165 199.457 265.214 198.393C281.327 189.374 299.031 182.888 317.804 179.375C319.093 179.448 320.383 179.247 321.589 178.786C330.508 177.319 339.604 176.396 348.929 176.339ZM350 203.714C338.818 203.714 327.933 204.953 317.464 207.321C299.115 211.463 290.023 232.184 299.696 248.321L347.214 327.554C352.17 335.81 361.113 340.857 370.75 340.857H463.089C481.412 340.857 494.987 323.106 489.446 305.643C470.649 246.489 415.335 203.714 350 203.714ZM350 222C406.037 222 455.067 257.839 472.018 311.179C473.115 314.635 471.656 317.362 470.696 318.679C469.837 319.858 467.386 322.571 463.089 322.571H427.536C426.872 320.695 426.133 318.864 425.339 317.054L433.75 312.196C435.488 311.219 436.858 309.7 437.653 307.871C438.447 306.042 438.622 304.004 438.151 302.066C437.68 300.129 436.588 298.399 435.043 297.139C433.497 295.88 431.582 295.16 429.589 295.089C427.84 295.032 426.111 295.478 424.607 296.375L416.232 301.214C414.17 298.423 411.909 295.792 409.518 293.286L415.768 285.839C416.917 284.504 417.656 282.864 417.896 281.118C418.136 279.372 417.866 277.594 417.119 275.998C416.372 274.402 415.179 273.056 413.685 272.122C412.191 271.188 410.458 270.705 408.696 270.732C407.367 270.754 406.058 271.066 404.862 271.646C403.665 272.226 402.609 273.06 401.768 274.089L395.518 281.536C392.644 279.622 389.647 277.886 386.536 276.339L389.857 267.214C390.375 265.855 390.561 264.391 390.399 262.945C390.238 261.499 389.734 260.112 388.929 258.9C388.124 257.689 387.041 256.686 385.771 255.977C384.5 255.267 383.079 254.871 381.625 254.821C379.673 254.756 377.752 255.317 376.142 256.422C374.532 257.528 373.318 259.119 372.679 260.964L369.357 270.089C366.025 269.284 362.617 268.672 359.143 268.286V258.571C359.16 257.348 358.931 256.134 358.47 255.001C358.009 253.868 357.325 252.839 356.459 251.974C355.593 251.11 354.563 250.429 353.429 249.97C352.295 249.511 351.08 249.284 349.857 249.304C347.435 249.341 345.128 250.339 343.44 252.076C341.753 253.814 340.824 256.15 340.857 258.571V268.286C338.433 268.556 336.041 268.932 333.679 269.411L315.375 238.893C313.3 235.437 314.127 232.252 314.804 230.661C315.37 229.326 317.175 226.13 321.5 225.161C330.789 223.067 340.373 222 350 222ZM260.518 244.464C252.829 244.464 245.051 247.66 239.429 254.161C217.175 279.861 203.714 313.328 203.714 350C203.714 386.672 217.175 420.147 239.429 445.857C245.061 452.358 252.829 455.536 260.518 455.536C269.67 455.536 278.716 451.036 283.982 442.268L330.839 364.107C336.051 355.421 336.051 344.579 330.839 335.893L283.982 257.732C278.716 248.964 269.67 244.464 260.518 244.464ZM260.518 262.75C262.063 262.75 265.926 263.184 268.304 267.143L286.607 297.679C285.649 298.838 284.716 300.02 283.821 301.232L275.393 296.375C273.812 295.427 271.982 294.979 270.143 295.089C268.172 295.212 266.293 295.97 264.789 297.249C263.284 298.529 262.234 300.261 261.796 302.186C261.358 304.112 261.555 306.128 262.358 307.932C263.161 309.737 264.526 311.233 266.25 312.196L274.607 317.018C273.223 320.177 272.11 323.47 271.125 326.821L261.554 325.125C260.953 325.011 260.343 324.957 259.732 324.964C257.452 325.002 255.268 325.891 253.609 327.457C251.95 329.022 250.937 331.151 250.767 333.425C250.597 335.7 251.283 337.956 252.691 339.75C254.098 341.545 256.126 342.748 258.375 343.125L267.982 344.821C267.874 346.542 267.714 348.253 267.714 350C267.714 351.747 267.874 353.458 267.982 355.179L258.375 356.875C257.163 357.05 255.998 357.467 254.949 358.101C253.901 358.735 252.991 359.573 252.273 360.565C251.555 361.558 251.044 362.684 250.769 363.878C250.495 365.072 250.464 366.309 250.677 367.515C250.89 368.721 251.343 369.873 252.009 370.9C252.676 371.928 253.542 372.812 254.557 373.498C255.571 374.185 256.713 374.66 257.915 374.897C259.117 375.133 260.355 375.126 261.554 374.875L271.125 373.179C272.11 376.53 273.223 379.823 274.607 382.982L266.25 387.804C265.16 388.377 264.198 389.164 263.42 390.119C262.642 391.073 262.065 392.175 261.723 393.358C261.381 394.541 261.282 395.781 261.431 397.003C261.58 398.225 261.975 399.405 262.591 400.471C263.207 401.537 264.032 402.467 265.016 403.207C266.001 403.946 267.125 404.479 268.32 404.774C269.516 405.068 270.758 405.118 271.974 404.921C273.189 404.724 274.352 404.283 275.393 403.625L283.821 398.768C284.716 399.98 285.649 401.162 286.607 402.321L268.304 432.857C265.926 436.825 262.063 437.25 260.518 437.25C258.9 437.25 255.8 436.819 253.268 433.893C233.099 410.606 222 380.811 222 350C222 319.189 233.108 289.394 253.268 266.107C255.8 263.191 258.89 262.75 260.518 262.75ZM351.179 286.054C357.778 286.173 364.114 287.309 370.071 289.268C371.179 289.957 372.421 290.402 373.714 290.571C379.897 293.031 385.609 296.383 390.661 300.536C390.958 300.825 391.274 301.093 391.607 301.339C396.514 305.536 400.747 310.474 404.196 315.964C404.611 317.51 405.424 318.92 406.554 320.054C406.996 320.888 407.451 321.715 407.857 322.571H370.75C367.559 322.571 364.539 320.868 362.893 318.125L343.911 286.482C345.629 286.318 347.334 286.096 349.089 286.071C349.784 286.145 350.485 286.139 351.179 286.054V286.054ZM296.75 314.589L315.161 345.304C316.898 348.202 316.898 351.807 315.161 354.714L296.75 385.411C296.173 384.547 295.625 383.66 295.089 382.768C294.798 382.121 294.433 381.509 294 380.946C290.743 375.08 288.415 368.646 287.143 361.804C287.143 361.798 287.143 361.792 287.143 361.786C287.108 361.444 287.055 361.104 286.982 360.768C286.39 357.266 286 353.685 286 350C286 346.908 286.294 343.895 286.714 340.929C287.287 339.564 287.52 338.081 287.393 336.607C287.393 336.607 287.393 336.589 287.393 336.589C288.648 330.68 290.776 325.129 293.536 319.964C294.559 318.909 295.312 317.623 295.732 316.214C296.071 315.673 296.395 315.12 296.75 314.589ZM350 340.857C347.575 340.857 345.25 341.82 343.535 343.535C341.82 345.25 340.857 347.575 340.857 350C340.857 352.425 341.82 354.75 343.535 356.465C345.25 358.18 347.575 359.143 350 359.143C352.425 359.143 354.75 358.18 356.465 356.465C358.18 354.75 359.143 352.425 359.143 350C359.143 347.575 358.18 345.25 356.465 343.535C354.75 341.82 352.425 340.857 350 340.857ZM370.75 359.143C361.113 359.143 352.17 364.199 347.214 372.464L299.696 451.696C290.023 467.824 299.115 488.528 317.464 492.679C327.933 495.037 338.818 496.286 350 496.286C415.335 496.286 470.649 453.511 489.446 394.357C494.987 376.894 481.412 359.143 463.089 359.143H370.75ZM370.75 377.429H407.857C407.306 378.592 406.69 379.716 406.071 380.839C405.492 381.574 405.028 382.393 404.696 383.268C401.303 388.842 397.079 393.844 392.196 398.125C391.395 398.607 390.672 399.209 390.054 399.911C385 403.967 379.33 407.278 373.179 409.661C372.313 409.831 371.477 410.126 370.696 410.536C364.528 412.636 357.939 413.833 351.071 413.946C350.669 413.896 350.263 413.872 349.857 413.875C349.583 413.881 349.309 413.898 349.036 413.929C347.299 413.903 345.612 413.68 343.911 413.518L362.893 381.857C364.539 379.123 367.559 377.429 370.75 377.429ZM427.536 377.429H463.089C467.386 377.429 469.837 380.151 470.696 381.321C471.656 382.638 473.115 385.348 472.018 388.804C455.067 442.152 406.037 478 350 478C340.373 478 330.789 476.942 321.5 474.839C317.185 473.861 315.38 470.647 314.804 469.321C314.127 467.731 313.3 464.554 315.375 461.089L333.661 430.589C336.029 431.07 338.427 431.443 340.857 431.714V441.429C340.84 442.64 341.064 443.843 341.516 444.967C341.967 446.092 342.638 447.115 343.489 447.978C344.34 448.84 345.353 449.526 346.471 449.993C347.589 450.461 348.788 450.702 350 450.702C351.212 450.702 352.411 450.461 353.529 449.993C354.647 449.526 355.66 448.84 356.511 447.978C357.362 447.115 358.033 446.092 358.484 444.967C358.936 443.843 359.16 442.64 359.143 441.429V431.714C362.617 431.328 366.025 430.717 369.357 429.911L372.679 439.036C373.064 440.196 373.678 441.267 374.484 442.186C375.291 443.105 376.273 443.853 377.374 444.385C378.475 444.918 379.671 445.224 380.892 445.286C382.113 445.348 383.334 445.165 384.483 444.747C385.632 444.329 386.685 443.685 387.581 442.853C388.476 442.02 389.196 441.017 389.697 439.902C390.198 438.787 390.47 437.582 390.498 436.36C390.525 435.138 390.308 433.922 389.857 432.786L386.536 423.661C389.647 422.114 392.644 420.379 395.518 418.464L401.768 425.911C402.525 426.876 403.468 427.679 404.541 428.272C405.615 428.865 406.796 429.237 408.016 429.364C409.236 429.491 410.469 429.371 411.642 429.012C412.814 428.653 413.903 428.062 414.842 427.273C415.782 426.485 416.553 425.515 417.11 424.423C417.667 423.33 417.999 422.137 418.085 420.913C418.171 419.69 418.011 418.462 417.613 417.301C417.215 416.141 416.587 415.073 415.768 414.161L409.518 406.714C411.909 404.208 414.17 401.578 416.232 398.786L424.607 403.625C425.648 404.283 426.811 404.724 428.026 404.921C429.242 405.118 430.484 405.068 431.68 404.774C432.875 404.479 433.999 403.946 434.984 403.207C435.968 402.467 436.793 401.537 437.409 400.471C438.025 399.405 438.42 398.225 438.569 397.003C438.718 395.781 438.619 394.541 438.277 393.358C437.935 392.175 437.358 391.073 436.58 390.119C435.802 389.164 434.84 388.377 433.75 387.804L425.339 382.946C426.133 381.136 426.872 379.305 427.536 377.429Z" fill="white"/>
</svg>
