<svg width="780" height="725" viewBox="0 0 780 725" fill="none" xmlns="http://www.w3.org/2000/svg">
<rect x="40" width="700" height="700" rx="80" fill="white"/>
<path d="M640.559 329.434H615.915C613.12 329.434 610.439 328.402 608.462 326.564C606.485 324.727 605.375 322.235 605.375 319.637C605.375 317.038 606.485 314.546 608.462 312.709C610.439 310.872 613.12 309.839 615.915 309.839H640.559C643.354 309.839 646.035 310.872 648.012 312.709C649.989 314.546 651.099 317.038 651.099 319.637C651.099 322.235 649.989 324.727 648.012 326.564C646.035 328.402 643.354 329.434 640.559 329.434Z" fill="black"/>
<path d="M521.441 329.434H496.797C494.001 329.434 491.32 328.402 489.344 326.564C487.367 324.727 486.256 322.235 486.256 319.637C486.256 317.038 487.367 314.546 489.344 312.709C491.32 310.872 494.001 309.839 496.797 309.839H521.441C524.236 309.839 526.917 310.872 528.894 312.709C530.871 314.546 531.981 317.038 531.981 319.637C531.981 322.235 530.871 324.727 528.894 326.564C526.917 328.402 524.236 329.434 521.441 329.434Z" fill="black"/>
<path d="M402.322 329.434H377.678C374.883 329.434 372.202 328.402 370.225 326.564C368.248 324.727 367.138 322.235 367.138 319.637C367.138 317.038 368.248 314.546 370.225 312.709C372.202 310.872 374.883 309.839 377.678 309.839H402.322C405.118 309.839 407.799 310.872 409.775 312.709C411.752 314.546 412.863 317.038 412.863 319.637C412.863 322.235 411.752 324.727 409.775 326.564C407.799 328.402 405.118 329.434 402.322 329.434V329.434Z" fill="black"/>
<path d="M640.559 423.322H615.915C613.12 423.322 610.439 422.289 608.462 420.452C606.485 418.615 605.375 416.123 605.375 413.524C605.375 410.926 606.485 408.434 608.462 406.597C610.439 404.759 613.12 403.727 615.915 403.727H640.559C643.354 403.727 646.035 404.759 648.012 406.597C649.989 408.434 651.099 410.926 651.099 413.524C651.099 416.123 649.989 418.615 648.012 420.452C646.035 422.289 643.354 423.322 640.559 423.322Z" fill="black"/>
<path d="M521.441 423.322H496.797C494.001 423.322 491.32 422.289 489.344 420.452C487.367 418.615 486.256 416.123 486.256 413.524C486.256 410.926 487.367 408.434 489.344 406.597C491.32 404.759 494.001 403.727 496.797 403.727H521.441C524.236 403.727 526.917 404.759 528.894 406.597C530.871 408.434 531.981 410.926 531.981 413.524C531.981 416.123 530.871 418.615 528.894 420.452C526.917 422.289 524.236 423.322 521.441 423.322Z" fill="black"/>
<path d="M402.322 423.322H377.678C374.883 423.322 372.202 422.289 370.225 420.452C368.248 418.615 367.138 416.123 367.138 413.524C367.138 410.926 368.248 408.434 370.225 406.597C372.202 404.759 374.883 403.727 377.678 403.727H402.322C405.118 403.727 407.799 404.759 409.775 406.597C411.752 408.434 412.863 410.926 412.863 413.524C412.863 416.123 411.752 418.615 409.775 420.452C407.799 422.289 405.118 423.322 402.322 423.322V423.322Z" fill="black"/>
<path d="M283.203 423.322H258.56C255.764 423.322 253.083 422.289 251.106 420.452C249.13 418.615 248.019 416.123 248.019 413.524C248.019 410.926 249.13 408.434 251.106 406.597C253.083 404.759 255.764 403.727 258.56 403.727H283.203C285.999 403.727 288.68 404.759 290.657 406.597C292.633 408.434 293.744 410.926 293.744 413.524C293.744 416.123 292.633 418.615 290.657 420.452C288.68 422.289 285.999 423.322 283.203 423.322V423.322Z" fill="black"/>
<path d="M164.085 423.322H139.441C136.645 423.322 133.964 422.289 131.988 420.452C130.011 418.615 128.9 416.123 128.9 413.524C128.9 410.926 130.011 408.434 131.988 406.597C133.964 404.759 136.645 403.727 139.441 403.727H164.085C166.88 403.727 169.561 404.759 171.538 406.597C173.515 408.434 174.625 410.926 174.625 413.524C174.625 416.123 173.515 418.615 171.538 420.452C169.561 422.289 166.88 423.322 164.085 423.322Z" fill="black"/>
<path d="M640.559 517.219H615.915C613.12 517.219 610.439 516.187 608.462 514.35C606.485 512.512 605.375 510.02 605.375 507.422C605.375 504.823 606.485 502.331 608.462 500.494C610.439 498.657 613.12 497.625 615.915 497.625H640.559C643.354 497.625 646.035 498.657 648.012 500.494C649.989 502.331 651.099 504.823 651.099 507.422C651.099 510.02 649.989 512.512 648.012 514.35C646.035 516.187 643.354 517.219 640.559 517.219Z" fill="black"/>
<path d="M521.441 517.219H496.797C494.001 517.219 491.32 516.187 489.344 514.35C487.367 512.512 486.256 510.02 486.256 507.422C486.256 504.823 487.367 502.331 489.344 500.494C491.32 498.657 494.001 497.625 496.797 497.625H521.441C524.236 497.625 526.917 498.657 528.894 500.494C530.871 502.331 531.981 504.823 531.981 507.422C531.981 510.02 530.871 512.512 528.894 514.35C526.917 516.187 524.236 517.219 521.441 517.219Z" fill="black"/>
<path d="M530.558 524.283H487.442C482.551 524.283 477.86 522.477 474.401 519.262C470.943 516.047 469 511.688 469 507.141C469 502.595 470.943 498.235 474.401 495.021C477.86 491.806 482.551 490 487.442 490H530.558C535.449 490 540.14 491.806 543.599 495.021C547.057 498.235 549 502.595 549 507.141C549 511.688 547.057 516.047 543.599 519.262C540.14 522.477 535.449 524.283 530.558 524.283Z" fill="#EF554C"/>
<path d="M402.322 517.219H377.678C374.883 517.219 372.202 516.187 370.225 514.35C368.248 512.512 367.138 510.02 367.138 507.422C367.138 504.823 368.248 502.331 370.225 500.494C372.202 498.657 374.883 497.625 377.678 497.625H402.322C405.118 497.625 407.799 498.657 409.775 500.494C411.752 502.331 412.863 504.823 412.863 507.422C412.863 510.02 411.752 512.512 409.775 514.35C407.799 516.187 405.118 517.219 402.322 517.219V517.219Z" fill="black"/>
<path d="M283.203 517.219H258.56C255.764 517.219 253.083 516.187 251.106 514.35C249.13 512.512 248.019 510.02 248.019 507.422C248.019 504.823 249.13 502.331 251.106 500.494C253.083 498.657 255.764 497.625 258.56 497.625H283.203C285.999 497.625 288.68 498.657 290.657 500.494C292.633 502.331 293.744 504.823 293.744 507.422C293.744 510.02 292.633 512.512 290.657 514.35C288.68 516.187 285.999 517.219 283.203 517.219V517.219Z" fill="black"/>
<path d="M164.085 517.219H139.441C136.645 517.219 133.964 516.187 131.988 514.35C130.011 512.512 128.9 510.02 128.9 507.422C128.9 504.823 130.011 502.331 131.988 500.494C133.964 498.657 136.645 497.625 139.441 497.625H164.085C166.88 497.625 169.561 498.657 171.538 500.494C173.515 502.331 174.625 504.823 174.625 507.422C174.625 510.02 173.515 512.512 171.538 514.35C169.561 516.187 166.88 517.219 164.085 517.219Z" fill="black"/>
<path d="M402.322 611.106H377.678C374.883 611.106 372.202 610.074 370.225 608.237C368.248 606.399 367.138 603.907 367.138 601.309C367.138 598.711 368.248 596.219 370.225 594.381C372.202 592.544 374.883 591.512 377.678 591.512H402.322C405.118 591.512 407.799 592.544 409.775 594.381C411.752 596.219 412.863 598.711 412.863 601.309C412.863 603.907 411.752 606.399 409.775 608.237C407.799 610.074 405.118 611.106 402.322 611.106V611.106Z" fill="black"/>
<path d="M283.203 611.106H258.56C255.764 611.106 253.083 610.074 251.106 608.237C249.13 606.399 248.019 603.907 248.019 601.309C248.019 598.711 249.13 596.219 251.106 594.381C253.083 592.544 255.764 591.512 258.56 591.512H283.203C285.999 591.512 288.68 592.544 290.657 594.381C292.633 596.219 293.744 598.711 293.744 601.309C293.744 603.907 292.633 606.399 290.657 608.237C288.68 610.074 285.999 611.106 283.203 611.106V611.106Z" fill="black"/>
<path d="M164.085 611.106H139.441C136.645 611.106 133.964 610.074 131.988 608.237C130.011 606.399 128.9 603.907 128.9 601.309C128.9 598.711 130.011 596.219 131.988 594.381C133.964 592.544 136.645 591.512 139.441 591.512H164.085C166.88 591.512 169.561 592.544 171.538 594.381C173.515 596.219 174.625 598.711 174.625 601.309C174.625 603.907 173.515 606.399 171.538 608.237C169.561 610.074 166.88 611.106 164.085 611.106Z" fill="black"/>
<path d="M40 80C40 35.8172 75.8172 0 120 0H660C704.183 0 740 35.8172 740 80V151H40V80Z" fill="#EF554C"/>
</svg>
