<svg width="700" height="700" viewBox="0 0 700 700" fill="none" xmlns="http://www.w3.org/2000/svg">
<rect width="700" height="700" rx="80" fill="#EF554C"/>
<path d="M279.344 482.362V283.556C279.344 276.101 283.486 271.545 291.769 269.889L463.239 235.098C472.351 233.441 477.321 237.583 478.149 247.523V399.112C478.149 411.537 459.511 419.821 422.235 423.963C351.411 435.146 362.594 554.429 459.511 522.123C496.787 508.455 503 472.422 503 436.388V145.635C503 145.635 503 120.784 481.877 126.997L270.646 170.486C270.646 170.486 254.493 172.971 254.493 192.851V445.086C254.493 457.511 235.855 465.795 198.579 469.937C127.755 481.119 138.937 600.403 235.855 568.097C273.131 554.429 279.344 518.395 279.344 482.362Z" fill="white"/>
</svg>
