<?xml version="1.0" encoding="iso-8859-1"?>
<!-- Generator: Adobe Illustrator 19.0.0, SVG Export Plug-In . SVG Version: 6.00 Build 0)  -->
<svg version="1.1" id="Layer_1" xmlns="http://www.w3.org/2000/svg" xmlns:xlink="http://www.w3.org/1999/xlink" x="0px" y="0px"
	 viewBox="0 0 512 512" style="enable-background:new 0 0 512 512;" xml:space="preserve">
<g>
	<g>
		<g>
			<path d="M256,136.533c-65.877,0-119.467,53.589-119.467,119.467S190.123,375.467,256,375.467c4.71,0,8.533-3.823,8.533-8.533
				S260.71,358.4,256,358.4c-56.465,0-102.4-45.935-102.4-102.4S199.535,153.6,256,153.6S358.4,199.535,358.4,256
				c0,44.604-28.484,83.763-70.895,97.459c-4.48,1.451-6.946,6.263-5.495,10.752c1.451,4.48,6.238,6.921,10.752,5.495
				c49.468-15.983,82.705-61.679,82.705-113.707C375.467,190.123,321.877,136.533,256,136.533z"/>
			<path d="M256,221.867c-18.825,0-34.133,15.309-34.133,34.133c0,18.825,15.309,34.133,34.133,34.133
				c18.825,0,34.133-15.309,34.133-34.133C290.133,237.175,274.825,221.867,256,221.867z M256,273.067
				c-9.412,0-17.067-7.654-17.067-17.067c0-9.412,7.654-17.067,17.067-17.067c9.412,0,17.067,7.654,17.067,17.067
				C273.067,265.412,265.412,273.067,256,273.067z"/>
			<path d="M496.785,205.005l-45.312-10.061c-3.661-11.759-8.38-23.151-14.063-33.997l25.114-39.501
				c5.06-8.841,4.599-16.358-1.374-22.332l-48.273-48.273c-3.917-3.917-8.166-4.736-11.034-4.736c-4.147,0-7.851,1.604-11.639,3.576
				l-39.151,24.917c-10.846-5.692-22.246-10.411-33.997-14.08l-10.163-45.696C304.222,4.992,298.581,0.009,290.133,0h-68.267
				c-11.947,0-15.36,10.479-16.862,15.215l-10.061,45.304c-11.768,3.669-23.159,8.388-33.997,14.08l-39.501-25.122
				c-2.628-1.502-6.639-3.507-11.136-3.507c-4.181,0-7.945,1.638-11.196,4.873L50.85,99.115c-8.465,8.448-3.465,18.27-1.178,22.682
				l24.926,39.151c-5.692,10.846-10.411,22.246-14.071,33.988l-45.705,10.163C4.983,207.787,0,213.427,0,221.867v68.267
				c0,11.947,10.479,15.36,15.215,16.862l45.312,10.069c3.661,11.733,8.38,23.134,14.071,33.988l-25.122,39.492
				c-5.069,8.841-4.608,16.358,1.374,22.34l48.265,48.273c3.925,3.917,8.166,4.736,11.042,4.736c4.139,0,7.851-1.596,11.639-3.575
				l39.151-24.917c10.846,5.692,22.238,10.411,33.997,14.071l10.155,45.705c2.679,9.83,8.32,14.822,16.768,14.822h68.267
				c11.938,0,15.36-10.479,16.862-15.215l10.061-45.303c11.75-3.661,23.151-8.388,33.997-14.071l39.492,25.122
				c2.637,1.502,6.656,3.507,11.145,3.507c4.19,0,7.962-1.647,11.196-4.89l48.265-48.265c8.457-8.456,3.456-18.278,1.169-22.682
				l-24.917-39.151c5.692-10.854,10.411-22.246,14.071-33.988l45.705-10.172c9.839-2.671,14.822-8.311,14.822-16.759v-68.267
				C512,209.92,501.513,206.507,496.785,205.005z M494.925,289.698c-0.393,0.171-0.99,0.401-1.843,0.631l-50.202,11.162
				c-3.055,0.683-5.495,2.978-6.357,5.99c-3.942,13.858-9.489,27.247-16.461,39.774c-1.527,2.739-1.425,6.093,0.256,8.73
				l27.196,42.675c0.649,1.271,0.981,2.082,1.143,2.586l-47.548,47.522c-0.401-0.154-0.973-0.41-1.749-0.845l-43.383-27.605
				c-2.637-1.681-5.99-1.775-8.73-0.256c-12.518,6.98-25.89,12.518-39.765,16.461c-3.012,0.862-5.316,3.302-5.99,6.357
				l-10.94,49.399c-0.444,1.374-0.785,2.185-1.024,2.654l-67.226-0.017c-0.179-0.393-0.401-0.981-0.64-1.835l-11.153-50.202
				c-0.674-3.055-2.978-5.495-5.99-6.357c-13.875-3.951-27.255-9.489-39.765-16.461c-2.739-1.527-6.084-1.425-8.738,0.247
				l-42.667,27.204c-1.28,0.657-2.099,0.981-2.586,1.152l-47.531-47.556c0.154-0.393,0.41-0.973,0.853-1.749l27.597-43.375
				c1.681-2.645,1.783-5.99,0.256-8.73c-6.98-12.535-12.518-25.916-16.461-39.774c-0.862-3.012-3.302-5.308-6.357-5.99
				l-49.408-10.94c-1.365-0.444-2.176-0.785-2.645-1.015l0.009-67.234c0.393-0.171,0.981-0.401,1.843-0.64l50.202-11.153
				c3.055-0.683,5.495-2.978,6.357-5.99c3.942-13.867,9.489-27.247,16.469-39.774c1.527-2.739,1.425-6.093-0.256-8.738
				L64.478,113.34c-0.648-1.271-0.973-2.074-1.143-2.577l47.548-47.531c0.401,0.154,0.973,0.41,1.749,0.845l43.392,27.614
				c2.645,1.681,5.999,1.783,8.738,0.247c12.493-6.972,25.865-12.51,39.757-16.469c3.012-0.853,5.316-3.294,5.99-6.357l10.94-49.408
				c0.444-1.357,0.785-2.167,1.015-2.637l67.226,0.009c0.179,0.393,0.401,0.981,0.64,1.835l11.162,50.21
				c0.674,3.055,2.978,5.495,5.99,6.357c13.867,3.951,27.255,9.489,39.774,16.461c2.748,1.527,6.084,1.434,8.738-0.247
				l42.658-27.204c1.289-0.657,2.099-0.981,2.594-1.152l47.514,47.548c-0.145,0.401-0.401,0.973-0.845,1.749l-27.597,43.392
				c-1.681,2.637-1.783,5.99-0.256,8.73c6.972,12.501,12.51,25.882,16.461,39.765c0.862,3.012,3.302,5.316,6.357,5.99l49.417,10.948
				c1.357,0.435,2.167,0.776,2.637,1.015L494.925,289.698z"/>
		</g>
	</g>
</g>
<g>
</g>
<g>
</g>
<g>
</g>
<g>
</g>
<g>
</g>
<g>
</g>
<g>
</g>
<g>
</g>
<g>
</g>
<g>
</g>
<g>
</g>
<g>
</g>
<g>
</g>
<g>
</g>
<g>
</g>
</svg>
