<svg width="700" height="700" viewBox="0 0 700 700" fill="none" xmlns="http://www.w3.org/2000/svg">
<rect width="700" height="700" rx="80" fill="#C0C0C0"/>
<path d="M318 166.109H158C153.641 166.109 150.109 169.641 150.109 174.001C150.109 178.36 153.641 181.891 158 181.891H318C322.359 181.891 325.89 178.36 325.89 174.001C325.89 169.641 322.359 166.109 318 166.109Z" fill="white"/>
<path d="M517.994 197.986C531.245 197.986 541.987 187.244 541.987 173.993C541.987 160.742 531.245 150 517.994 150C504.743 150 494.001 160.742 494.001 173.993C494.001 187.244 504.743 197.986 517.994 197.986Z" fill="white"/>
<path d="M574 94H126C108.326 94 94 108.326 94 126V222C94 239.673 108.326 254 126 254H574C591.673 254 606 239.673 606 222V126C606 108.326 591.673 94 574 94ZM590 222C590 230.822 582.822 238 574 238H126C117.178 238 110 230.822 110 222V126C110 117.177 117.178 110 126 110H574C582.822 110 590 117.177 590 126V222Z" fill="white"/>
<path d="M318 342.109H158C153.641 342.109 150.109 345.641 150.109 350.001C150.109 354.36 153.641 357.891 158 357.891H318C322.359 357.891 325.89 354.36 325.89 350.001C325.89 345.641 322.359 342.109 318 342.109Z" fill="white"/>
<path d="M517.994 373.986C531.245 373.986 541.987 363.244 541.987 349.993C541.987 336.742 531.245 326 517.994 326C504.743 326 494.001 336.742 494.001 349.993C494.001 363.244 504.743 373.986 517.994 373.986Z" fill="white"/>
<path d="M574 270H126C108.326 270 94 284.326 94 302V398C94 415.673 108.326 430 126 430H574C591.673 430 606 415.673 606 398V302C606 284.326 591.673 270 574 270ZM590 398C590 406.822 582.822 414 574 414H126C117.178 414 110 406.822 110 398V302C110 293.177 117.178 286 126 286H574C582.822 286 590 293.177 590 302V398Z" fill="white"/>
<path d="M318 518.109H158C153.641 518.109 150.109 521.641 150.109 526.001C150.109 530.36 153.641 533.891 158 533.891H318C322.359 533.891 325.89 530.36 325.89 526.001C325.89 521.641 322.359 518.109 318 518.109Z" fill="white"/>
<path d="M517.994 549.986C531.245 549.986 541.987 539.244 541.987 525.993C541.987 512.742 531.245 502 517.994 502C504.743 502 494.001 512.742 494.001 525.993C494.001 539.244 504.743 549.986 517.994 549.986Z" fill="white"/>
<path d="M126 446.5H574C591.397 446.5 605.5 460.603 605.5 478V574C605.5 591.397 591.397 605.5 574 605.5H126C108.603 605.5 94.5 591.397 94.5 574V478C94.5 460.603 108.603 446.5 126 446.5ZM574 590.5C583.099 590.5 590.5 583.098 590.5 574V478C590.5 468.901 583.099 461.5 574 461.5H126C116.901 461.5 109.5 468.901 109.5 478V574C109.5 583.098 116.901 590.5 126 590.5H574Z" fill="white" stroke="white"/>
</svg>
