<svg width="700" height="700" viewBox="0 0 700 700" fill="none" xmlns="http://www.w3.org/2000/svg">
<rect width="700" height="700" rx="80" fill="#FFB258"/>
<mask id="path-2-inside-1" fill="white">
<path d="M133.898 82.9475C127.982 88.5575 126.01 152.137 126.01 331.034C126.01 600.937 124.038 590.34 174.652 612.157C198.316 622.13 219.35 624 349.5 624C479.65 624 500.684 622.13 524.348 612.157C574.962 590.34 572.99 600.937 572.99 331.034C572.99 152.137 571.018 88.5575 565.102 82.9475C553.927 72.3508 145.073 72.3508 133.898 82.9475ZM546.697 119.101V137.801H349.5H152.303V119.101V100.401H349.5H546.697V119.101ZM546.697 355.967V549.2H349.5H152.303V355.967V162.734H349.5H546.697V355.967ZM533.55 577.873C533.55 579.743 523.033 585.353 510.544 590.34C477.678 602.807 221.322 602.807 188.456 590.34C175.967 585.353 165.45 579.743 165.45 577.873C165.45 575.38 248.272 574.133 349.5 574.133C450.728 574.133 533.55 575.38 533.55 577.873Z"/>
</mask>
<path d="M133.898 82.9475C127.982 88.5575 126.01 152.137 126.01 331.034C126.01 600.937 124.038 590.34 174.652 612.157C198.316 622.13 219.35 624 349.5 624C479.65 624 500.684 622.13 524.348 612.157C574.962 590.34 572.99 600.937 572.99 331.034C572.99 152.137 571.018 88.5575 565.102 82.9475C553.927 72.3508 145.073 72.3508 133.898 82.9475ZM546.697 119.101V137.801H349.5H152.303V119.101V100.401H349.5H546.697V119.101ZM546.697 355.967V549.2H349.5H152.303V355.967V162.734H349.5H546.697V355.967ZM533.55 577.873C533.55 579.743 523.033 585.353 510.544 590.34C477.678 602.807 221.322 602.807 188.456 590.34C175.967 585.353 165.45 579.743 165.45 577.873C165.45 575.38 248.272 574.133 349.5 574.133C450.728 574.133 533.55 575.38 533.55 577.873Z" fill="white"/>
<path d="M174.652 612.157L75.6936 841.737L76.6241 842.138L77.5578 842.532L174.652 612.157ZM524.348 612.157L621.442 842.532L622.376 842.138L623.306 841.737L524.348 612.157ZM546.697 137.801V387.801H796.697V137.801H546.697ZM152.303 137.801H-97.6968V387.801H152.303V137.801ZM152.303 100.401V-149.599H-97.6968V100.401H152.303ZM546.697 100.401H796.697V-149.599H546.697V100.401ZM546.697 549.2V799.2H796.697V549.2H546.697ZM152.303 549.2H-97.6968V799.2H152.303V549.2ZM152.303 162.734V-87.266H-97.6968V162.734H152.303ZM546.697 162.734H796.697V-87.266H546.697V162.734ZM510.544 590.34L599.209 824.089L601.235 823.32L603.248 822.517L510.544 590.34ZM188.456 590.34L95.7524 822.517L97.765 823.32L99.7912 824.089L188.456 590.34ZM-38.1261 -98.4572C-75.6469 -62.8765 -92.3456 -24.9233 -98.0565 -11.168C-105.406 6.53485 -109.385 21.6936 -111.442 30.4022C-115.592 47.9677 -117.477 63.5512 -118.423 72.4379C-120.462 91.57 -121.478 113.208 -122.139 134.103C-123.512 177.498 -123.99 241.765 -123.99 331.034H376.01C376.01 241.406 376.519 184.435 377.611 149.913C378.182 131.85 378.768 125.36 378.763 125.403C378.715 125.859 378.515 127.686 378.081 130.516C377.681 133.123 376.806 138.406 375.163 145.359C373.726 151.443 370.397 164.486 363.726 180.553C360.271 188.875 354.851 200.618 346.73 213.918C338.834 226.851 325.839 245.465 305.922 264.352L-38.1261 -98.4572ZM-123.99 331.034C-123.99 396.91 -124.123 449.871 -123.474 489.817C-122.882 526.25 -121.619 568.817 -115.01 607.129C-107.676 649.64 -88.1949 722.318 -22.3126 782.109C5.95178 807.761 33.6058 822.382 48.8515 829.784C56.5478 833.52 63.3577 836.471 67.1913 838.115C75.9064 841.855 69.6395 839.128 75.6936 841.737L273.611 382.576C271.306 381.583 269.196 380.687 267.679 380.044C265.954 379.312 265.122 378.96 264.339 378.623C262.641 377.895 264.303 378.573 267.209 379.984C272.875 382.734 292.379 392.496 313.711 411.855C337.215 433.186 353.917 457.782 364.655 481.433C374.093 502.219 377.024 518.138 377.712 522.127C378.449 526.402 378.103 526.172 377.609 517.912C377.144 510.134 376.736 498.697 376.46 481.696C375.897 447.037 376.01 400.109 376.01 331.034H-123.99ZM77.5578 842.532C159.444 877.044 244.028 874 349.5 874V374C317.283 374 293.187 373.882 274.61 373.584C255.654 373.28 245.248 372.824 239.603 372.429C234.042 372.039 237.869 372.007 246.239 373.808C256.906 376.103 266.155 379.425 271.747 381.782L77.5578 842.532ZM349.5 874C454.972 874 539.556 877.044 621.442 842.532L427.253 381.782C432.845 379.425 442.094 376.103 452.761 373.808C461.131 372.007 464.958 372.039 459.397 372.429C453.752 372.824 443.346 373.28 424.39 373.584C405.813 373.882 381.717 374 349.5 374V874ZM623.306 841.737C629.361 839.128 623.094 841.855 631.809 838.115C635.642 836.471 642.452 833.52 650.148 829.784C665.394 822.382 693.048 807.761 721.313 782.109C787.195 722.318 806.676 649.64 814.01 607.129C820.619 568.817 821.882 526.25 822.474 489.817C823.123 449.871 822.99 396.91 822.99 331.034H322.99C322.99 400.109 323.103 447.037 322.54 481.696C322.264 498.697 321.856 510.134 321.391 517.912C320.897 526.172 320.551 526.402 321.288 522.127C321.976 518.138 324.907 502.219 334.345 481.433C345.083 457.782 361.785 433.186 385.289 411.855C406.621 392.496 426.125 382.734 431.791 379.984C434.697 378.573 436.359 377.895 434.661 378.623C433.878 378.96 433.046 379.312 431.321 380.044C429.804 380.687 427.694 381.583 425.389 382.576L623.306 841.737ZM822.99 331.034C822.99 241.765 822.512 177.498 821.139 134.103C820.478 113.208 819.462 91.5701 817.423 72.438C816.477 63.5512 814.592 47.9677 810.442 30.4022C808.385 21.6937 804.406 6.5349 797.056 -11.168C791.346 -24.9233 774.647 -62.8765 737.126 -98.4572L393.078 264.352C373.161 245.465 360.166 226.851 352.27 213.918C344.149 200.618 338.729 188.875 335.274 180.553C328.603 164.486 325.274 151.443 323.836 145.359C322.194 138.406 321.319 133.123 320.919 130.516C320.485 127.686 320.285 125.859 320.237 125.403C320.232 125.36 320.818 131.85 321.389 149.913C322.481 184.435 322.99 241.406 322.99 331.034H822.99ZM737.126 -98.4572C706.473 -127.525 675.957 -141.554 664.696 -146.492C650.177 -152.86 637.877 -156.627 630.723 -158.643C616.364 -162.69 604.242 -164.78 598.153 -165.757C584.968 -167.873 572.447 -169.03 563.997 -169.714C545.797 -171.188 524.221 -172.17 502.842 -172.877C459.074 -174.323 403.621 -175 349.5 -175C295.379 -175 239.926 -174.323 196.158 -172.877C174.779 -172.17 153.203 -171.188 135.003 -169.714C126.553 -169.03 114.032 -167.873 100.847 -165.757C94.758 -164.78 82.6365 -162.69 68.2768 -158.643C61.1228 -156.627 48.8229 -152.86 34.3037 -146.492C23.0432 -141.554 -7.47302 -127.525 -38.1261 -98.4572L305.922 264.352C289.416 280.005 273.827 290.475 263.104 296.926C252.002 303.604 242.228 308.291 235.117 311.409C221.329 317.456 209.949 320.908 203.896 322.613C191.74 326.039 182.55 327.529 180.072 327.926C174.11 328.883 171.529 328.965 175.35 328.655C181.691 328.142 193.978 327.468 212.675 326.85C249.06 325.648 298.614 325 349.5 325C400.386 325 449.94 325.648 486.325 326.85C505.022 327.468 517.309 328.142 523.65 328.655C527.471 328.965 524.89 328.883 518.928 327.926C516.45 327.529 507.26 326.039 495.104 322.613C489.051 320.908 477.671 317.456 463.883 311.409C456.772 308.291 446.998 303.604 435.896 296.926C425.173 290.475 409.584 280.005 393.078 264.352L737.126 -98.4572ZM296.697 119.101V137.801H796.697V119.101H296.697ZM546.697 -112.199H349.5V387.801H546.697V-112.199ZM349.5 -112.199H152.303V387.801H349.5V-112.199ZM402.303 137.801V119.101H-97.6968V137.801H402.303ZM402.303 119.101V100.401H-97.6968V119.101H402.303ZM152.303 350.401H349.5V-149.599H152.303V350.401ZM349.5 350.401H546.697V-149.599H349.5V350.401ZM296.697 100.401V119.101H796.697V100.401H296.697ZM296.697 355.967V549.2H796.697V355.967H296.697ZM546.697 299.2H349.5V799.2H546.697V299.2ZM349.5 299.2H152.303V799.2H349.5V299.2ZM402.303 549.2V355.967H-97.6968V549.2H402.303ZM402.303 355.967V162.734H-97.6968V355.967H402.303ZM152.303 412.734H349.5V-87.266H152.303V412.734ZM349.5 412.734H546.697V-87.266H349.5V412.734ZM296.697 162.734V355.967H796.697V162.734H296.697ZM283.55 577.873C283.55 520.873 302.863 478.636 314.575 457.424C327.051 434.829 340.437 418.964 348.35 410.287C363.992 393.134 378.406 382.319 383.798 378.362C396.142 369.302 405.966 364.028 408.076 362.89C414.379 359.491 417.718 358.212 417.841 358.163L603.248 822.517C615.859 817.481 630.701 810.904 645.386 802.986C651.685 799.589 664.92 792.249 679.626 781.456C686.199 776.632 701.532 765.033 717.798 747.196C726.023 738.177 739.647 721.994 752.283 699.11C764.156 677.607 783.55 635.107 783.55 577.873H283.55ZM421.879 356.591C440.778 349.423 455.121 346.938 456.462 346.69C460.27 345.987 461.88 345.859 460.21 346.05C456.948 346.423 449.624 347.068 437.637 347.709C414.155 348.963 382.656 349.69 349.5 349.69C316.344 349.69 284.845 348.963 261.363 347.709C249.376 347.068 242.052 346.423 238.79 346.05C237.12 345.859 238.73 345.987 242.538 346.69C243.879 346.938 258.222 349.423 277.121 356.591L99.7912 824.089C136.864 838.151 173.796 841.876 181.977 842.812C199.154 844.776 217.507 846.079 234.689 846.997C269.544 848.859 310.35 849.69 349.5 849.69C388.65 849.69 429.456 848.859 464.311 846.997C481.493 846.079 499.846 844.776 517.023 842.812C525.204 841.876 562.136 838.151 599.209 824.089L421.879 356.591ZM281.159 358.163C281.282 358.212 284.621 359.491 290.924 362.89C293.034 364.028 302.858 369.302 315.202 378.362C320.594 382.319 335.008 393.134 350.65 410.287C358.563 418.964 371.949 434.829 384.425 457.424C396.137 478.636 415.45 520.873 415.45 577.873H-84.5503C-84.5503 635.107 -65.1558 677.607 -53.2831 699.11C-40.6469 721.994 -27.0234 738.177 -18.7983 747.196C-2.53245 765.033 12.8007 776.632 19.3737 781.456C34.0801 792.249 47.3148 799.589 53.6144 802.986C68.2988 810.904 83.1409 817.481 95.7524 822.517L281.159 358.163ZM415.45 577.873C415.45 671.342 365.72 732.272 338.086 758.638C310.692 784.773 283.896 798.295 272.467 803.693C248.21 815.152 227.761 819.829 222.767 820.984C208.715 824.236 197.88 825.35 196.725 825.478C191.448 826.062 188.972 826.1 192.462 825.925C197.812 825.657 208.194 825.324 224.185 825.025C255.326 824.443 299.599 824.133 349.5 824.133V324.133C298.173 324.133 250.421 324.447 214.844 325.112C197.476 325.437 180.826 325.882 167.483 326.549C161.627 326.842 151.889 327.386 141.687 328.516C138.07 328.917 125.357 330.313 110.042 333.857C104.417 335.159 83.4902 339.984 58.9134 351.593C47.3249 357.067 20.4081 370.665 -7.06548 396.877C-34.7803 423.32 -84.5503 484.327 -84.5503 577.873H415.45ZM349.5 824.133C399.401 824.133 443.674 824.443 474.815 825.025C490.806 825.324 501.188 825.657 506.538 825.925C510.028 826.1 507.552 826.062 502.275 825.478C501.12 825.35 490.285 824.236 476.233 820.984C471.239 819.829 450.79 815.152 426.533 803.693C415.104 798.295 388.308 784.773 360.914 758.638C333.28 732.272 283.55 671.342 283.55 577.873H783.55C783.55 484.327 733.78 423.32 706.065 396.877C678.592 370.665 651.675 357.067 640.087 351.593C615.51 339.984 594.583 335.159 588.958 333.857C573.643 330.313 560.93 328.917 557.313 328.516C547.111 327.386 537.373 326.842 531.517 326.549C518.174 325.882 501.524 325.437 484.156 325.112C448.579 324.447 400.827 324.133 349.5 324.133V824.133Z" fill="white" mask="url(#path-2-inside-1)"/>
</svg>
