<svg id="Capa_1" enable-background="new 0 0 492.001 492.001" height="512" viewBox="0 0 492.001 492.001" width="512" xmlns="http://www.w3.org/2000/svg"><path d="m388.286 492.001c3.314 0 6-2.686 6-6v-385.715c0-55.386-44.899-100.286-100.286-100.286s-100.286 44.9-100.286 100.286v14.915h-75c-11.592.013-20.987 9.408-21 21v6c.013 11.592 9.408 20.987 21 21h162c11.592-.013 20.987-9.408 21-21v-6c-.013-11.592-9.408-20.987-21-21h-75v-14.915c0-48.759 39.527-88.286 88.286-88.286s88.286 39.527 88.286 88.286v385.715c0 3.314 2.687 6 6 6zm-98.572-355.8v6c-.006 4.968-4.032 8.995-9 9h-162c-4.968-.005-8.994-4.032-9-9v-6c.006-4.968 4.032-8.994 9-9h162c4.969.006 8.995 4.032 9 9z"/><path d="m205.714 183.848c0-3.314-2.686-6-6-6s-6 2.686-6 6v12c0 3.314 2.686 6 6 6s6-2.686 6-6z"/><path d="m241.714 183.848c0-3.314-2.686-6-6-6s-6 2.686-6 6v36c0 3.314 2.686 6 6 6s6-2.686 6-6z"/><path d="m277.714 183.848c0-3.314-2.686-6-6-6s-6 2.686-6 6v12c0 3.314 2.686 6 6 6s6-2.686 6-6z"/><path d="m133.714 183.848c0-3.314-2.686-6-6-6s-6 2.686-6 6v12c0 3.314 2.686 6 6 6s6-2.686 6-6z"/><path d="m169.714 183.848c0-3.314-2.686-6-6-6s-6 2.686-6 6v36c0 3.314 2.686 6 6 6s6-2.686 6-6z"/><path d="m205.714 219.848c0-3.314-2.686-6-6-6s-6 2.686-6 6v72c0 3.314 2.686 6 6 6s6-2.686 6-6z"/><path d="m241.714 243.848c0-3.314-2.686-6-6-6s-6 2.686-6 6v24c0 3.314 2.686 6 6 6s6-2.686 6-6z"/><path d="m277.714 219.848c0-3.314-2.686-6-6-6s-6 2.686-6 6v72c0 3.314 2.686 6 6 6s6-2.686 6-6z"/><path d="m133.714 219.848c0-3.314-2.686-6-6-6s-6 2.686-6 6v72c0 3.314 2.686 6 6 6s6-2.686 6-6z"/><path d="m169.714 243.848c0-3.314-2.686-6-6-6s-6 2.686-6 6v24c0 3.314 2.686 6 6 6s6-2.686 6-6z"/><path d="m199.714 321.848c-3.314 0-6 2.686-6 6v12c0 3.314 2.686 6 6 6s6-2.686 6-6v-12c0-3.314-2.686-6-6-6z"/><path d="m235.714 285.848c-3.314 0-6 2.686-6 6v48c0 3.314 2.686 6 6 6s6-2.686 6-6v-48c0-3.314-2.686-6-6-6z"/><path d="m271.714 321.848c-3.314 0-6 2.686-6 6v12c0 3.314 2.686 6 6 6s6-2.686 6-6v-12c0-3.314-2.686-6-6-6z"/><path d="m127.714 321.848c-3.314 0-6 2.686-6 6v12c0 3.314 2.686 6 6 6s6-2.686 6-6v-12c0-3.314-2.686-6-6-6z"/><path d="m163.714 285.848c-3.314 0-6 2.686-6 6v48c0 3.314 2.686 6 6 6s6-2.686 6-6v-48c0-3.314-2.686-6-6-6z"/></svg>