<svg width="100" height="100" viewBox="0 0 100 100" fill="none" xmlns="http://www.w3.org/2000/svg">
<path d="M17.2 7.20001C16.3 8.10001 16 18.3 16 47C16 90.3 15.7 88.6 23.4 92.1C27 93.7 30.2 94 50 94C69.8 94 73 93.7 76.6 92.1C84.3 88.6 84 90.3 84 47C84 18.3 83.7 8.10001 82.8 7.20001C81.1 5.50001 18.9 5.50001 17.2 7.20001ZM80 13V16H50H20V13V10H50H80V13ZM80 51V82H50H20V51V20H50H80V51ZM78 86.6C78 86.9 76.4 87.8 74.5 88.6C69.5 90.6 30.5 90.6 25.5 88.6C23.6 87.8 22 86.9 22 86.6C22 86.2 34.6 86 50 86C65.4 86 78 86.2 78 86.6Z" fill="black"/>
</svg>
