<svg width="482" height="482" viewBox="0 0 482 482" fill="none" xmlns="http://www.w3.org/2000/svg">
<path class="light-bulb-body" fill-rule="evenodd" clip-rule="evenodd" d="M384.274 338.074C372.601 371.603 348.622 393.594 330.727 387.193C312.848 380.806 307.817 348.437 319.506 314.938C331.194 281.409 355.159 259.418 373.053 265.804C390.932 272.206 395.963 304.545 384.274 338.074ZM395.541 242.246L225.937 184.678V156.285C259.903 155.321 292.966 151.133 318.753 143.708C343.154 136.643 356.981 127.892 360.566 118.854C361.229 117.348 361.5 115.752 361.5 114.155V102.647C361.5 101.051 361.229 99.5292 360.566 97.9477C356.891 88.5336 341.919 79.481 316.041 72.3264C257.569 56.2245 164 56.2245 105.633 72.3264C79.7409 79.481 64.8742 88.5336 61.1989 97.9477C60.5362 99.5292 60.25 101.051 60.25 102.647V114.155C60.25 115.752 60.5362 117.348 61.1989 118.854C64.7688 127.892 78.6112 136.643 103.088 143.708C128.875 151.133 161.877 155.306 195.812 156.27V184.979C177.918 194.092 158.036 217.243 146.528 246.057C129.733 288.082 132.55 328.63 152.854 336.628L332.309 420.135C359.03 429.503 394.863 397.285 412.336 348.151C429.793 299.017 422.277 251.615 395.541 242.246Z" fill="#101010"/>
<ellipse class="light-bulb" cx="352.5" cy="326.5" rx="36.8214" ry="65.3199" transform="rotate(17.2108 352.5 326.5)"/>
</svg>
