
<svg x="0px" y="0px"
	 viewBox="0 0 512 512" xml:space="preserve">
	<g>
		<g>
			<g>
				<path class="light-bulb" d="M371.563,173.404l-40-162C329.909,4.706,323.899,0,317,0H195c-6.899,0-12.909,4.706-14.563,11.404l-40,162
					c-1.105,4.477-0.09,9.214,2.753,12.844c2.843,3.631,7.198,5.752,11.81,5.752h202c4.611,0,8.967-2.121,11.81-5.752
					C371.652,182.618,372.668,177.881,371.563,173.404z"/>
			</g>
		</g>
		<g>
			<g>
				<path class="light-stand-body" d="M316,482h-45V222h-30v260h-45c-8.284,0-15,6.716-15,15s6.716,15,15,15h120c8.284,0,15-6.716,15-15S324.284,482,316,482z"
					/>
			</g>
		</g>
	</g>
</svg>
