<svg width="470" height="470" viewBox="0 0 470 470" fill="none" xmlns="http://www.w3.org/2000/svg">
<path d="M245 61V10C245 4.47656 240.523 0 235 0C229.477 0 225 4.47656 225 10V61C225 66.5234 229.477 71 235 71C240.523 71 245 66.5234 245 61Z" fill="black"/>
<path d="M235 399C229.477 399 225 403.477 225 409V460C225 465.523 229.477 470 235 470C240.523 470 245 465.523 245 460V409C245 403.477 240.523 399 235 399Z" fill="black"/>
<path d="M460 225H409C403.477 225 399 229.477 399 235C399 240.523 403.477 245 409 245H460C465.523 245 470 240.523 470 235C470 229.477 465.523 225 460 225Z" fill="black"/>
<path d="M71 235C71 229.477 66.5234 225 61 225H10C4.47656 225 0 229.477 0 235C0 240.523 4.47656 245 10 245H61C66.5234 245 71 240.523 71 235Z" fill="black"/>
<path d="M365.258 118.883L400.73 83.4102C404.609 79.5 404.594 73.1914 400.699 69.3008C396.809 65.4062 390.5 65.3906 386.59 69.2695L351.117 104.742C348.574 107.262 347.57 110.953 348.492 114.418C349.418 117.879 352.121 120.582 355.582 121.508C359.047 122.43 362.738 121.426 365.258 118.883Z" fill="black"/>
<path d="M104.742 351.117L69.2695 386.59C66.7227 389.113 65.7227 392.805 66.6445 396.266C67.5664 399.727 70.2734 402.434 73.7344 403.355C77.1953 404.277 80.8867 403.277 83.4102 400.73L118.883 365.258C121.426 362.738 122.43 359.047 121.508 355.582C120.582 352.121 117.879 349.418 114.418 348.492C110.953 347.57 107.262 348.574 104.742 351.117Z" fill="black"/>
<path d="M365.258 351.117C362.738 348.574 359.047 347.57 355.582 348.492C352.121 349.418 349.418 352.121 348.492 355.582C347.57 359.047 348.574 362.738 351.117 365.258L386.59 400.73C390.5 404.609 396.809 404.594 400.699 400.699C404.594 396.809 404.609 390.5 400.73 386.59L365.258 351.117Z" fill="black"/>
<path d="M104.742 118.883C107.262 121.426 110.953 122.43 114.418 121.508C117.879 120.582 120.582 117.879 121.508 114.418C122.43 110.953 121.426 107.262 118.883 104.742L83.4102 69.2695C79.5 65.3906 73.1914 65.4062 69.3008 69.3008C65.4062 73.1914 65.3906 79.5 69.2695 83.4102L104.742 118.883Z" fill="black"/>
<ellipse cx="235.5" cy="235.5" rx="109.5" ry="105.5" fill="black"/>
</svg>
