<?xml version="1.0" encoding="iso-8859-1"?>
<!-- Generator: Adobe Illustrator 19.0.0, SVG Export Plug-In . SVG Version: 6.00 Build 0)  -->
<svg version="1.1" id="Layer_1" xmlns="http://www.w3.org/2000/svg" xmlns:xlink="http://www.w3.org/1999/xlink" x="0px" y="0px"
	 viewBox="0 0 492.501 492.501" style="enable-background:new 0 0 492.501 492.501;" xml:space="preserve">
<g id="XMLID_691_">
	<g>
		<g>
			<path d="M246.251,446.328c80.621,0,146.211-65.59,146.211-146.211s-65.59-146.211-146.211-146.211S100.04,219.496,100.04,300.117
				S165.63,446.328,246.251,446.328z M246.251,169.297c72.135,0,130.82,58.686,130.82,130.82c0,72.135-58.685,130.82-130.82,130.82
				s-130.82-58.685-130.82-130.82S174.116,169.297,246.251,169.297z"/>
			<path d="M246.251,411.699c61.526,0,111.582-50.055,111.582-111.582s-50.055-111.582-111.582-111.582
				c-61.526,0-111.582,50.056-111.582,111.582S184.724,411.699,246.251,411.699z M246.251,203.926
				c53.04,0,96.191,43.151,96.191,96.191c0,53.04-43.151,96.191-96.191,96.191c-53.04,0-96.191-43.151-96.191-96.191
				C150.06,247.077,193.211,203.926,246.251,203.926z"/>
			<path d="M402.07,0H90.431c-20.16,0-36.563,16.402-36.563,36.564v419.373c0,20.161,16.402,36.564,36.563,36.564H402.07
				c20.161,0,36.563-16.402,36.563-36.564V36.564C438.634,16.402,422.232,0,402.07,0z M423.243,455.936
				c0,11.675-9.498,21.173-21.173,21.173H90.431c-11.675,0-21.172-9.498-21.172-21.173V123.125h353.984V455.936z M423.243,107.735
				H69.259V36.564c0-11.675,9.498-21.173,21.172-21.173H402.07c11.675,0,21.173,9.498,21.173,21.173V107.735z"/>
			<path d="M115.431,30.781c-16.972,0-30.781,13.809-30.781,30.782c0,16.972,13.808,30.781,30.781,30.781
				c14.316,0,26.38-9.825,29.807-23.085h16.364V53.868h-16.364C141.813,40.606,129.748,30.781,115.431,30.781z M115.431,76.953
				c-8.486,0-15.39-6.904-15.39-15.39c0-8.487,6.903-15.391,15.39-15.391c8.486,0,15.39,6.904,15.39,15.391
				C130.821,70.049,123.917,76.953,115.431,76.953z"/>
			<rect x="169.298" y="53.868" width="15.391" height="15.391"/>
			<rect x="169.298" y="30.781" width="15.391" height="15.391"/>
			<rect x="169.298" y="76.953" width="15.391" height="15.391"/>
			<path d="M315.509,92.344h92.344V30.781h-92.344V92.344z M330.899,46.172h61.562v30.781h-61.562V46.172z"/>
			
				<rect x="191.839" y="284.724" transform="matrix(-0.7071 0.7071 -0.7071 -0.7071 627.1506 325.063)" width="108.827" height="15.39"/>
			
				<rect x="203.925" y="249.161" transform="matrix(0.7071 0.7071 -0.7071 0.7071 249.7084 -71.8794)" width="15.39" height="32.649"/>
			
				<rect x="265.488" y="310.722" transform="matrix(-0.7071 -0.7071 0.7071 -0.7071 235.095 751.472)" width="15.39" height="32.648"/>
		</g>
	</g>
</g>
<g>
</g>
<g>
</g>
<g>
</g>
<g>
</g>
<g>
</g>
<g>
</g>
<g>
</g>
<g>
</g>
<g>
</g>
<g>
</g>
<g>
</g>
<g>
</g>
<g>
</g>
<g>
</g>
<g>
</g>
</svg>
