<svg viewBox="0 0 500 500" fill="none" xmlns="http://www.w3.org/2000/svg">
<g clip-path="url(#clip0)">
<path d="M494.423 242.126L425.099 217.868C397.436 208.184 367.034 210.125 340.822 223.242C314.615 236.364 294.841 259.54 286.016 287.489L267.877 344.928L250.019 358.318V238.366C249.999 222.38 257.994 207.443 271.307 198.594L262.059 184.727C244.107 196.669 233.329 216.806 233.353 238.366V254.873L222.579 244.099L210.796 255.882L233.353 278.44V461.495L216.688 453.162V436.02C216.684 394.103 196.531 354.738 162.524 330.227C128.513 305.721 84.7977 299.052 45.0293 312.312L5.73293 325.41C2.31107 326.537 0 329.727 0 333.328C0 336.929 2.31107 340.119 5.73293 341.246L14.6558 344.22C57.4269 358.44 97.3377 380.143 132.525 408.316L203.147 464.811C203.623 465.144 204.14 465.425 204.681 465.645L204.628 465.755L233.353 480.13V499.977H250.019V379.151L280.014 356.65L279.925 356.536C280.267 356.337 280.596 356.117 280.909 355.877C333.678 303.28 402.4 269.667 476.313 260.305L492.706 258.259C496.543 257.774 499.542 254.715 499.953 250.87C500.364 247.025 498.073 243.403 494.423 242.126Z" fill="#589C17"/>
<path d="M320.588 70.5733L316.682 7.82026C316.434 3.87353 313.448 0.642904 309.529 0.0854788C305.623 -0.435327 301.876 1.83099 300.525 5.53766L273.573 80.965C263.495 109.141 258.344 138.844 258.352 168.77V191.661C258.352 195.03 260.382 198.069 263.495 199.359C266.608 200.644 270.192 199.932 272.577 197.552C306.047 164.07 323.534 117.828 320.588 70.5733Z" fill="#5FA819"/>
<path d="M124.464 110.464L69.3281 92.1338C66.48 91.1817 63.3388 91.8368 61.1051 93.8468C58.8754 95.8608 57.8989 98.9165 58.5539 101.85L67.7209 143.197C82.3971 210.662 142.269 258.661 211.313 258.324H216.688C221.289 258.324 225.021 254.593 225.021 249.991C225.073 186.672 184.548 130.446 124.464 110.464Z" fill="#5FA819"/>
<path d="M165.437 221.66C133.505 202.008 107.331 174.275 89.5501 141.264L63.2698 92.439C59.6363 94.0055 57.6467 97.9522 58.554 101.805L67.721 143.152C82.3809 210.637 142.257 258.657 211.313 258.324H216.688C218.584 258.291 220.407 257.604 221.851 256.375L165.437 221.66Z" fill="#589C17"/>
<path d="M343.496 280.82C325.939 293.356 312.06 310.364 303.3 330.077L299.447 338.743C349.469 295.866 410.956 268.589 476.313 260.289L492.19 258.324H413.743C388.553 258.316 363.994 266.185 343.496 280.82V280.82Z" fill="#589C17"/>
<path d="M212.721 469.811L212.554 468.896C195.982 377.739 113.027 313.973 20.6735 321.402L16.796 321.711L5.73293 325.402C2.31107 326.529 0 329.719 0 333.32C0 336.921 2.31107 340.111 5.73293 341.233L14.6558 344.212C57.427 358.436 97.3378 380.139 132.525 408.316L203.147 464.811C203.623 465.145 204.14 465.425 204.681 465.645L204.628 465.755L212.721 469.811Z" fill="#589C17"/>
</g>
<defs>
<clipPath id="clip0">
<rect width="500" height="499.973" fill="white"/>
</clipPath>
</defs>
</svg>
