<?xml version="1.0" encoding="iso-8859-1"?>
<!-- Generator: Adobe Illustrator 19.0.0, SVG Export Plug-In . SVG Version: 6.00 Build 0)  -->
<svg version="1.1" id="Layer_1" xmlns="http://www.w3.org/2000/svg" xmlns:xlink="http://www.w3.org/1999/xlink" x="0px" y="0px"
	 viewBox="0 0 512 512" style="enable-background:new 0 0 512 512;" xml:space="preserve">
<g>
	<g>
		<g>
			<path d="M291.273,220.481c-0.122-0.326-0.263-0.645-0.423-0.953l-20.002-38.549c-2.188-4.218-7.38-5.866-11.604-3.675
				c-4.22,2.188-5.865,7.384-3.675,11.604l19.757,38.078c10.501,28.5,9.348,59.39-3.264,87.039
				c-12.683,27.804-35.439,49.005-64.071,59.699c-11.642,4.348-23.844,6.758-36.269,7.166c-12.425-0.408-24.627-2.818-36.271-7.166
				c-28.632-10.693-51.386-31.894-64.07-59.699c-12.612-27.649-13.766-58.54-3.262-87.039L171.721,27.298L241.919,162.6
				c2.19,4.219,7.383,5.865,11.605,3.677c4.22-2.19,5.865-7.385,3.677-11.605L179.363,4.643C177.882,1.79,174.935,0,171.721,0
				c-3.215,0-6.161,1.79-7.641,4.643L52.591,219.528c-0.159,0.309-0.3,0.627-0.422,0.953c-12.303,32.94-11.044,68.698,3.55,100.688
				c14.592,31.988,40.769,56.38,73.709,68.681c13.491,5.039,27.633,7.816,42.031,8.255c0.087,0.003,0.175,0.004,0.263,0.004
				c0.087,0,0.175-0.001,0.261-0.004c14.399-0.439,28.541-3.216,42.03-8.255c32.94-12.301,59.118-36.693,73.71-68.681
				C302.316,289.182,303.577,253.423,291.273,220.481z"/>
			<path d="M463.842,278.136c-0.122-0.326-0.264-0.645-0.423-0.953l-19.609-37.795c-2.188-4.218-7.381-5.864-11.605-3.677
				c-4.22,2.19-5.865,7.385-3.677,11.605l19.36,37.314c9.705,26.766-3.997,56.52-30.726,66.501
				c-5.254,1.961-10.755,3.056-16.357,3.256c-5.602-0.199-11.105-1.294-16.358-3.255c-13.027-4.864-23.378-14.51-29.147-27.159
				c-5.7-12.496-6.256-26.448-1.577-39.342l47.082-90.747l15.599,30.066c2.191,4.22,7.384,5.865,11.605,3.677
				c4.22-2.19,5.865-7.385,3.676-11.605l-23.24-44.793c-1.48-2.852-4.427-4.643-7.641-4.643c-3.215,0-6.161,1.79-7.641,4.643
				l-54.972,105.954c-0.16,0.309-0.301,0.627-0.423,0.953c-6.474,17.333-5.811,36.149,1.867,52.982
				c7.679,16.833,21.454,29.667,38.789,36.142c7.1,2.65,14.541,4.111,22.116,4.343c0.088,0.003,0.176,0.004,0.264,0.004
				c0.088,0,0.175-0.001,0.267-0.005c7.574-0.231,15.014-1.692,22.115-4.344C458.965,353.897,477.204,313.917,463.842,278.136z"/>
			<path d="M353.97,444.884l-36.629-70.601c-1.48-2.852-4.427-4.643-7.641-4.643c-3.215,0-6.161,1.79-7.64,4.643l-36.633,70.601
				c-0.161,0.309-0.303,0.627-0.425,0.954c-9.455,25.326,3.455,53.625,28.782,63.084c5.025,1.874,10.29,2.908,15.651,3.073
				c0.088,0.003,0.176,0.004,0.265,0.004c0.088,0,0.176-0.001,0.266-0.004c5.357-0.165,10.622-1.199,15.652-3.074
				c25.325-9.459,38.234-37.758,28.775-63.084C354.271,445.512,354.129,445.193,353.97,444.884z M319.596,492.793
				c-3.182,1.187-6.512,1.855-9.898,1.987c-3.389-0.132-6.718-0.799-9.896-1.985c-16.279-6.08-24.652-24.157-18.842-40.473
				l28.738-55.383l28.733,55.383C344.243,468.637,335.871,486.714,319.596,492.793z"/>
		</g>
	</g>
</g>
<g>
</g>
<g>
</g>
<g>
</g>
<g>
</g>
<g>
</g>
<g>
</g>
<g>
</g>
<g>
</g>
<g>
</g>
<g>
</g>
<g>
</g>
<g>
</g>
<g>
</g>
<g>
</g>
<g>
</g>
</svg>
