<svg id="Capa_1" enable-background="new 0 0 512 512" height="512" viewBox="0 0 512 512" width="512" xmlns="http://www.w3.org/2000/svg"><g><circle cx="288" cy="455.001" r="10"/><path d="m181 512c26.742 0 53.276-7.01 76.734-20.273 4.808-2.718 6.501-8.819 3.783-13.627-2.719-4.809-8.822-6.5-13.627-3.783-20.46 11.568-43.59 17.683-66.89 17.683-75.888 0-140-65.486-140-143 0-34.3 12.378-72.18 33.961-103.928 38.532-56.686 74.153-126.309 106.048-207.23 20.755 52.48 50.821 119.471 89.122 181.169-71.284.47-129.131 58.598-129.131 129.989 0 5.523 4.478 10 10 10s10-4.477 10-10c0-60.654 49.346-110 110-110 3.85 0 7.696-.246 11.505-.684 14.309 21.558 25.734 40.262 33.318 70.684h-14.823c-38.599 0-70 31.402-70 70 0 5.523 4.478 10 10 10s10-4.477 10-10c0-27.57 22.43-50 50-50h18.654c.889 6.763 1.346 13.462 1.346 20 0 22.406-5.4 44.873-15.618 64.971-2.503 4.923-.541 10.943 4.383 13.446 4.922 2.504 10.943.542 13.445-4.382 11.639-22.893 17.79-48.494 17.79-74.035 0-6.662-.415-13.458-1.226-20.303 67.606-4.528 121.226-60.964 121.226-129.697v-5.858l12.929 12.929c3.906 3.905 10.236 3.905 14.143 0 3.905-3.905 3.905-10.237 0-14.143l-30-30c-3.906-3.905-10.236-3.905-14.143 0l-30 30c-3.905 3.905-3.905 10.237 0 14.143 3.906 3.905 10.236 3.905 14.143 0l12.928-12.929v5.858c0 58.864-46.476 107.073-104.659 109.868-5.891-26.245-17.123-52.038-32.777-75.064-.045-.067-.088-.13-.133-.197 39.895-13.611 67.569-51.318 67.569-94.607v-65.858l12.929 12.929c3.906 3.905 10.236 3.905 14.143 0 3.905-3.905 3.905-10.237 0-14.143l-30-30c-3.906-3.905-10.236-3.905-14.143 0l-30 30c-3.905 3.905-3.905 10.237 0 14.143 3.906 3.905 10.236 3.905 14.143 0l12.928-12.929v65.858c0 36.403-24.447 67.876-59.007 77.208-46.003-72.178-80.484-153.341-101.522-209.438-.078-.1-2.153-6.731-9.418-6.77-.018 0-.035 0-.054 0-4.104 0-7.794 2.509-9.302 6.331-5.336 12.332-45.05 127.126-113.276 227.497-23.781 34.983-37.421 76.961-37.421 115.172 0 88.557 71.646 163 160 163z"/></g></svg>