<?xml version="1.0" encoding="iso-8859-1"?>
<!-- Generator: Adobe Illustrator 19.0.0, SVG Export Plug-In . SVG Version: 6.00 Build 0)  -->
<svg version="1.1" id="Capa_1" xmlns="http://www.w3.org/2000/svg" xmlns:xlink="http://www.w3.org/1999/xlink" x="0px" y="0px"
	 viewBox="0 0 512 512" style="enable-background:new 0 0 512 512;" xml:space="preserve">
<g>
	<g>
		<path d="M379.169,140.697c-23.499,0-43.369-16.463-48.32-38.708h22.128c12.335,0,22.37-10.035,22.37-22.37V22.37
			c0-12.335-10.035-22.37-22.37-22.37H159.024c-12.335,0-22.37,10.035-22.37,22.37v57.249c0,12.334,10.035,22.37,22.37,22.37h22.128
			c-4.951,22.245-24.821,38.708-48.32,38.708c-21.124,0-38.309,17.185-38.309,38.309V457.51c0,30.046,24.444,54.49,54.49,54.49
			h213.973c30.046,0,54.49-24.444,54.49-54.49V179.006C417.477,157.882,400.292,140.697,379.169,140.697z M159.024,87.005
			c-4.073,0-7.386-3.314-7.386-7.386V22.37c0-4.073,3.314-7.387,7.386-7.387h193.952c4.073,0,7.386,3.314,7.386,7.387v57.249
			c0,4.073-3.314,7.386-7.386,7.386H159.024z M402.495,457.51L402.495,457.51c-0.001,21.784-17.723,39.507-39.508,39.507H149.015
			c-21.784,0-39.507-17.722-39.507-39.507V179.006c0-12.862,10.464-23.326,23.326-23.326c31.748,0,58.428-23.071,63.595-53.691
			h119.145c5.167,30.621,31.847,53.691,63.595,53.691c12.862,0,23.326,10.464,23.326,23.326V457.51z"/>
	</g>
</g>
<g>
	<g>
		<path d="M333.028,380.658c-3.902-14.995-10.156-25.487-14.043-30.982c2.352-4.679,5.377-12.375,6.038-21.959
			c1.803-26.112-14.776-45.551-29-57.26c-17.244-14.195-41.087-23.474-70.867-27.578c-21.887-3.017-38.708-1.988-39.411-1.941
			c-2.068,0.133-3.988,1.115-5.304,2.715c-1.317,1.599-1.913,3.672-1.646,5.726c0.091,0.701,2.312,17.405,9.477,38.305
			c9.749,28.437,23.436,50.053,40.68,64.249c18.14,14.933,34.429,19.348,47.355,19.348c5.435,0,10.279-0.782,14.41-1.891
			c7.6-2.04,13.651-5.394,17.869-8.303c3.072,4.874,7.188,12.761,9.943,23.344c0.877,3.372,3.916,5.607,7.245,5.607
			c0.624,0,1.259-0.079,1.891-0.243C331.669,388.753,334.07,384.662,333.028,380.658z M238.474,340.365
			c-25.079-20.644-36.884-57.025-41.795-77.607c23.795,14.675,73.648,49.348,102.975,86.34
			C290.245,355.439,268.067,364.725,238.474,340.365z M308.38,336.07c-26.535-31.953-66.389-61.835-93.006-79.252
			c21.481,2.146,50.581,8.293,71.126,25.206C312.542,303.462,311.909,324.273,308.38,336.07z"/>
	</g>
</g>
<g>
	<g>
		<path d="M356.052,211.636H155.95c-14.045,0-25.472,11.427-25.472,25.472v51.894c0,4.137,3.354,7.492,7.492,7.492
			s7.492-3.354,7.492-7.492v-51.894c0-5.783,4.705-10.488,10.488-10.488h200.102c5.784,0,10.488,4.705,10.488,10.488v51.894
			c0,4.137,3.354,7.492,7.492,7.492s7.492-3.354,7.492-7.492v-51.894C381.523,223.063,370.096,211.636,356.052,211.636z"/>
	</g>
</g>
<g>
	<g>
		<path d="M374.031,334.466c-4.138,0-7.492,3.354-7.492,7.492v48.744c0,5.783-4.705,10.488-10.488,10.488H155.95
			c-5.784,0-10.488-4.705-10.488-10.488v-48.744c0-4.137-3.354-7.492-7.492-7.492s-7.492,3.354-7.492,7.492v48.744
			c0,14.045,11.427,25.471,25.472,25.471h200.102c14.045,0,25.472-11.426,25.472-25.471v-48.744
			C381.523,337.82,378.169,334.466,374.031,334.466z"/>
	</g>
</g>
<g>
	<g>
		<path d="M181.484,20.113c-4.138,0-7.492,3.354-7.492,7.492V69.6c0,4.137,3.354,7.492,7.492,7.492s7.492-3.354,7.492-7.492V27.605
			C188.976,23.467,185.622,20.113,181.484,20.113z"/>
	</g>
</g>
<g>
	<g>
		<path d="M231.161,20.113c-4.138,0-7.492,3.354-7.492,7.492V69.6c0.001,4.138,3.354,7.492,7.492,7.492s7.492-3.354,7.492-7.492
			V27.605C238.653,23.468,235.299,20.113,231.161,20.113z"/>
	</g>
</g>
<g>
	<g>
		<path d="M280.839,20.113c-4.138,0-7.492,3.354-7.492,7.492V69.6c0,4.138,3.354,7.492,7.492,7.492s7.492-3.354,7.492-7.492V27.605
			C288.331,23.468,284.977,20.113,280.839,20.113z"/>
	</g>
</g>
<g>
	<g>
		<path d="M330.518,20.113c-4.138,0-7.492,3.354-7.492,7.492V69.6c0,4.138,3.354,7.492,7.492,7.492s7.492-3.354,7.492-7.492V27.605
			C338.01,23.468,334.656,20.113,330.518,20.113z"/>
	</g>
</g>
<g>
</g>
<g>
</g>
<g>
</g>
<g>
</g>
<g>
</g>
<g>
</g>
<g>
</g>
<g>
</g>
<g>
</g>
<g>
</g>
<g>
</g>
<g>
</g>
<g>
</g>
<g>
</g>
<g>
</g>
</svg>
