<svg width="513" height="513" viewBox="0 0 513 513" fill="rgba(250,250,250,0.8)" xmlns="http://www.w3.org/2000/svg">

<path d="M325.069 299.932C323.21 298.072 320.63 297.002 318 297.002C315.37 297.002 312.79 298.072 310.93 299.932C309.069 301.792 308 304.372 308 307.002C308 309.632 309.07 312.212 310.93 314.072C312.79 315.932 315.37 317.002 318 317.002C320.63 317.002 323.21 315.932 325.069 314.072C326.93 312.212 328 309.632 328 307.002C328 304.372 326.929 301.792 325.069 299.932Z" fill="black"/>
<path d="M380 252.002H355.525C369.841 220.073 379.33 186.345 383.761 151.515L387.92 118.825C388.451 114.65 386.312 110.59 382.568 108.667C378.822 106.743 374.277 107.372 371.194 110.235L367.848 113.342C353.927 126.273 341.504 140.439 330.669 155.634C339.45 113.479 350.74 70.869 363.013 44.12L363.064 44.009C364.959 39.875 363.825 34.983 360.304 32.104C356.785 29.225 351.766 29.083 348.088 31.759C328.222 46.22 310.348 63.404 295.023 82.618C297.814 58.989 304.298 35.717 314.211 14.182C315.986 10.324 315.132 5.76598 312.08 2.81298C309.027 -0.13902 304.445 -0.843021 300.646 1.05998L282.155 10.327C253.374 24.75 233.47 51.007 227.063 81.607C213.288 65.755 196.39 52.831 177.26 43.689L150.339 30.822C146.423 28.95 141.739 29.82 138.757 32.978C135.774 36.136 135.171 40.858 137.265 44.664L139.063 47.933C157.504 81.453 171.439 116.998 180.697 153.942C173.905 148.877 166.616 144.445 158.889 140.752L136.312 129.962C132.393 128.088 127.711 128.96 124.73 132.119C121.748 135.277 121.145 140 123.24 143.806L124.747 146.546C142.945 179.623 155.901 215.059 163.343 252.002H132C126.478 252.002 122 256.479 122 262.002V427.502C122 474.096 159.907 512.002 206.5 512.002H305.5C352.094 512.002 390 474.095 390 427.502V262.002C390 256.479 385.523 252.002 380 252.002ZM364.375 145.425L363.921 148.991C359.359 184.851 349.116 219.472 333.473 252.002H307.583C317.801 212.227 337.167 175.925 364.375 145.425ZM331.121 72.332C314.779 123.981 303.767 188.479 300.249 210.621C300.24 210.678 300.239 210.735 300.23 210.792C294.783 224.078 290.354 237.843 286.992 252.003H255.159C255.614 184.176 283.412 119.398 331.121 72.332ZM244.84 103.165C244.838 73.131 260.526 45.938 286.145 30.909C277.796 56.029 273.448 82.576 273.448 108.953V111.74C273.448 112.367 273.513 112.979 273.624 113.574C270.585 118.683 267.697 123.881 265.001 129.178C262.966 133.176 261.037 137.228 259.204 141.322C255.78 129.029 250.831 117.168 244.424 106.006C244.691 105.105 244.84 104.152 244.84 103.165ZM168.633 61.732L168.636 61.734C214.593 83.698 244.396 130.617 244.841 181.496C238.59 204.452 235.3 228.216 235.152 252.002H233.079C231.931 229.659 225.104 208.005 213.125 189.002C211.117 185.816 208.963 182.741 206.703 179.757C199.323 138.762 186.557 99.177 168.633 61.732ZM154.415 160.89C188.335 178.914 210.685 213.746 213.051 252.002H183.733C177.713 220.455 167.89 189.928 154.415 160.89ZM370 427.502C370 463.067 341.065 492.002 305.5 492.002H206.5C170.935 492.002 142 463.068 142 427.502V317.002H279.5C285.022 317.002 289.5 312.525 289.5 307.002C289.5 301.479 285.022 297.002 279.5 297.002H142V272.002H294.933C294.972 272.002 295.011 272.002 295.05 272.002H339.665C339.676 272.002 339.688 272.004 339.699 272.004C339.709 272.004 339.718 272.002 339.727 272.002H370V427.502V427.502Z"/>
</svg>
