<svg fill="rgba(250,250,250,0.8)" height="512" viewBox="0 0 512 512" width="512" xmlns="http://www.w3.org/2000/svg"><g id="Smart_Farm-2" data-name="Smart Farm"><g id="Outline"><path d="m472 496h-104v-128h24a24.028 24.028 0 0 0 24-24v-224a24.028 24.028 0 0 0 -24-24h-96a24.028 24.028 0 0 0 -24 24v224a24.028 24.028 0 0 0 24 24h24v128h-119.382a80.182 80.182 0 0 0 -64.618-47.513v-43.948c13.687 6.206 31.484 3.105 45.674-1.85 28.832-10.069 54.946-44.98 56.044-46.46a8.006 8.006 0 0 0 -4.363-12.493c-32.773-8.763-70.435-9.562-97.355 11.311v-30.508c13.687 6.206 31.484 3.105 45.674-1.85 28.832-10.069 54.946-44.98 56.044-46.46a8.006 8.006 0 0 0 -4.363-12.493c-32.773-8.763-70.435-9.562-97.355 11.311v-26.247c29.6 7.318 63.438-16.911 83.213-40.746a8 8 0 0 0 -4.519-12.938c-26.471-5.53-55.7-5.077-78.694 9.543v-14.6c16.509-7.832 24.72-39.732-2.8-74.982a8 8 0 0 0 -12.69.1c-26.671 35.325-18.723 68.4-.512 75.452v16.1c-22.455-17.687-55.47-18.322-83.3-12.1a8 8 0 0 0 -4.482 12.835c18.043 22.338 44.357 42.4 72.971 42.394a35.555 35.555 0 0 0 14.813-2.883v28.639c-26.884-21.514-65.247-20.631-98.065-11.878a8.005 8.005 0 0 0 -4.363 12.493c38.006 51.277 81.9 57.9 102.428 47.977v31.408c-26.761-21.415-65.038-20.7-98.065-11.878a8 8 0 0 0 -4.363 12.493c38.006 51.277 81.9 57.9 102.428 47.977v44.14a80.181 80.181 0 0 0 -66.039 47.654h-13.961a8 8 0 0 0 0 16h432a8 8 0 0 0 0-16zm-306.152-138.627c14.782-5.163 35.4-3.474 50.828-.8-9.135 10.262-24.687 25.569-40.278 31.014-45.441 15.868-55.957-14.357-10.55-30.214zm0-80c14.782-5.163 35.4-3.474 50.828-.8-9.135 10.262-24.687 25.569-40.278 31.014-45.441 15.868-55.957-14.357-10.55-30.214zm-29.848-51.313c4.186-6.89 15.68-12.135 23.258-14.781 11.344-3.961 26.356-3.642 37.358-2.595-7.962 7.67-19.509 17.265-30.851 21.226-7.583 2.648-24.13 6.648-29.765 1.585zm-19.576 3.61c-1.383 3.961-12.153 6.778-30.871.24-11.513-4.021-23.2-14.029-31.109-21.886 11.086-1.222 26.458-1.781 37.97 2.24 18.719 6.536 25.393 15.444 24.01 19.406zm-37.532 77.913c-15.592-5.445-31.143-20.753-40.278-31.014 13.536-2.343 35.236-4.642 50.828.8 45.436 15.871 34.896 46.086-10.55 30.214zm0 80c-15.592-5.445-31.143-20.753-40.278-31.014 13.536-2.343 35.236-4.641 50.828.8 45.458 15.88 34.867 46.077-10.55 30.214zm40.225-229.7c.1-.43-.821-7.8 7.9-23.3 4.083 6.993 8.214 15.962 8.271 23.169.052 6.42-1.854 18.2-7.937 18.249-.103-.074-8.089-.144-8.234-18.115zm-47.256 338.117c24.646-42.607 86.215-42.6 110.857 0zm216.139-352h56a8 8 0 0 0 0-16h-56v-8a8.009 8.009 0 0 1 8-8h96a8.009 8.009 0 0 1 8 8v200h-112zm8 208a8.009 8.009 0 0 1 -8-8v-8h112v8a8.009 8.009 0 0 1 -8 8zm56 144h-16v-128h16z"/><circle cx="8" cy="504" r="8"/><circle cx="504" cy="504" r="8"/><circle cx="376" cy="136" r="8"/><path d="m392 16a104.118 104.118 0 0 1 104 104 8 8 0 0 0 16 0 120.136 120.136 0 0 0 -120-120 8 8 0 0 0 0 16z"/><path d="m392 32a8 8 0 0 0 0 16 72.081 72.081 0 0 1 72 72 8 8 0 0 0 16 0 88.1 88.1 0 0 0 -88-88z"/><path d="m432 120a8 8 0 0 0 16 0 56.063 56.063 0 0 0 -56-56 8 8 0 0 0 0 16 40.045 40.045 0 0 1 40 40z"/><path d="m328 288h-16a8 8 0 0 0 0 16h16a8 8 0 0 0 0-16z"/><path d="m328 256h-16a8 8 0 0 0 0 16h16a8 8 0 0 0 0-16z"/><path d="m328 224h-16a8 8 0 0 0 0 16h16a8 8 0 0 0 0-16z"/><path d="m328 192h-16a8 8 0 0 0 0 16h16a8 8 0 0 0 0-16z"/><path d="m328 160h-16a8 8 0 0 0 0 16h16a8 8 0 0 0 0-16z"/><path d="m376 192h-16a8 8 0 0 0 0 16h16a8 8 0 0 0 0-16z"/><path d="m376 160h-16a8 8 0 0 0 0 16h16a8 8 0 0 0 0-16z"/><path d="m376 288h-16a8 8 0 0 0 0 16h16a8 8 0 0 0 0-16z"/><path d="m376 256h-16a8 8 0 0 0 0 16h16a8 8 0 0 0 0-16z"/><path d="m376 224h-16a8 8 0 0 0 0 16h16a8 8 0 0 0 0-16z"/></g></g></svg>