<svg height="512" viewBox="0 0 128 128" width="512" xmlns="http://www.w3.org/2000/svg"><g><path d="m121.25 21.065h-114.5a6.758 6.758 0 0 0 -6.75 6.75v72.37a6.758 6.758 0 0 0 6.75 6.75h114.5a6.758 6.758 0 0 0 6.75-6.75v-72.37a6.758 6.758 0 0 0 -6.75-6.75zm-114.5 3.5h114.5a3.254 3.254 0 0 1 3.25 3.25v7.253h-121v-7.253a3.254 3.254 0 0 1 3.25-3.25zm117.75 22.722h-121v-8.719h121zm-3.25 56.148h-114.5a3.254 3.254 0 0 1 -3.25-3.25v-49.4h121v49.4a3.254 3.254 0 0 1 -3.25 3.25z"/><path d="m107.322 72.153a6.749 6.749 0 0 0 -9.545 0l-3.077 3.081-3.08-3.081a6.75 6.75 0 0 0 -9.546 0l-6.629 6.63a6.758 6.758 0 0 0 0 9.545l6.629 6.63a6.75 6.75 0 0 0 9.546 0l3.08-3.081 3.08 3.081a6.749 6.749 0 0 0 9.545 0l6.63-6.63a6.758 6.758 0 0 0 0-9.545zm-18.18 20.33a3.331 3.331 0 0 1 -4.6 0l-6.629-6.629a3.255 3.255 0 0 1 0-4.6l6.629-6.629a3.329 3.329 0 0 1 4.6 0l6.628 6.63a3.247 3.247 0 0 1 0 4.6l-2.311 2.311zm22.335-6.629-6.629 6.629a3.329 3.329 0 0 1 -4.6 0l-3.077-3.083 1.074-1.074a6.748 6.748 0 0 0 0-9.546l-1.074-1.075 3.081-3.08a3.327 3.327 0 0 1 4.6 0l6.629 6.629a3.255 3.255 0 0 1 -.004 4.6z"/><path d="m58.508 93.435h-46.758a1.75 1.75 0 0 0 0 3.5h46.758a1.75 1.75 0 1 0 0-3.5z"/><path d="m58.508 84.878h-46.758a1.75 1.75 0 0 0 0 3.5h46.758a1.75 1.75 0 0 0 0-3.5z"/><path d="m58.508 76.321h-46.758a1.75 1.75 0 0 0 0 3.5h46.758a1.75 1.75 0 1 0 0-3.5z"/></g></svg>