<svg id="Capa_1" enable-background="new 0 0 511.993 511.993" height="512" viewBox="0 0 511.993 511.993" width="512" xmlns="http://www.w3.org/2000/svg"><g><path d="m467.537 159.173-10.701-53.485-29.796 11.928c-26.143 10.465-54.025 20.268-83.065 29.209-12.826-34.907-32.205-69.601-57.737-103.333l-32.918-43.492-21.632 23.71c-34.48 37.794-73.39 74.532-118.953 112.313-35.96 29.818-61.419 71.481-71.688 117.315-10.586 47.252-5.016 95.319 16.109 139.002l57.864 119.652h63.29c55.325 0 104.264-8.484 145.455-25.218 39.054-15.866 71.373-39.179 96.06-69.292 51.519-62.847 68.463-154.583 47.712-258.309zm-51.072-5.322c-19.736 39.773-44.423 79.234-73.709 117.704-30.104 39.543-65.078 78.129-103.951 114.687-40.547 38.133-77.008 66.134-99.377 82.236v-94.987c0-41.682 13.663-80.93 39.513-113.501 25.092-31.617 60.357-54.319 99.299-63.925 15.797-3.897 31.323-8.001 46.339-12.243l.026.081 13.714-4.043c.13-.038.261-.076.391-.114v-.001c26.915-7.938 52.962-16.625 77.755-25.894zm-346.144 106.046c8.824-39.388 30.688-75.179 61.563-100.78 45.469-37.703 84.526-74.458 119.281-112.255l11.153 14.735c23.284 30.763 40.994 62.223 52.8 93.722-14.288 4.021-29.047 7.915-44.064 11.619-45.354 11.188-86.413 37.612-115.612 74.403-30.103 37.931-46.014 83.627-46.014 132.151v58.031l-25.265-52.243c-18.147-37.524-22.933-78.806-13.842-119.383zm326.302 138.567c-21.476 26.197-49.787 46.558-84.149 60.517-37.589 15.27-82.728 23.012-134.164 23.012h-6.549c22.67-17.036 53.314-41.699 87.069-73.4 40.169-37.725 76.346-77.598 107.526-118.512 28.848-37.854 53.449-76.695 73.483-115.928 16.254 90.951 1.03 170.337-43.216 224.311z"/></g></svg>