<svg height="581pt" viewBox="-184 0 581 581.55153" width="581pt" xmlns="http://www.w3.org/2000/svg"><path d="m107.15625 0c-37.46875.0429688-67.832031 30.40625-67.875 67.875v325.101562c-28.816406 23.519532-43.148438 60.460938-37.734375 97.261719 8.230469 58.328125 62.191406 98.9375 120.515625 90.703125 52.707031-7.441406 91.859375-52.601562 91.75-105.828125.097656-31.824219-14.148438-61.992187-38.785156-82.136719v-325.101562c-.039063-37.46875-30.402344-67.8320312-67.871094-67.875zm87.265625 475.113281c.0625 48.191407-38.953125 87.316407-87.148437 87.378907-48.195313.066406-87.320313-38.953126-87.382813-87.148438-.035156-27.507812 12.898437-53.421875 34.90625-69.925781 2.441406-1.832031 3.878906-4.707031 3.878906-7.757813v-29.207031h19.390625v-19.390625h-19.390625v-29.089844h19.390625v-19.390625h-19.390625v-29.089843h19.390625v-19.390626h-19.390625v-29.089843h19.390625v-19.390625h-19.390625v-29.089844h19.390625v-19.390625h-19.390625v-29.089844h19.390625v-19.390625h-19.390625v-38.785156c0-26.777344 21.703125-48.480469 48.480469-48.480469 26.773438 0 48.480469 21.703125 48.480469 48.480469v329.804688c0 3.050781 1.4375 5.925781 3.878906 7.753906 22.019531 16.382812 34.96875 42.234375 34.90625 69.679687zm0 0"/><path d="m116.851562 427.601562v-340.335937h-19.390624v340.335937c-26.234376 5.355469-43.160157 30.960938-37.804688 57.195313s30.960938 43.160156 57.195312 37.804687c26.234376-5.355468 43.160157-30.960937 37.804688-57.195312-3.886719-19.042969-18.765625-33.917969-37.804688-37.804688zm-9.695312 76.597657c-16.066406 0-29.089844-13.023438-29.089844-29.085938 0-16.066406 13.023438-29.089843 29.089844-29.089843s29.089844 13.023437 29.089844 29.089843c0 16.0625-13.023438 29.085938-29.089844 29.085938zm0 0"/></svg>