<svg id="Layer_1" enable-background="new 0 0 513 513" viewBox="0 0 513 513" width="512" xmlns="http://www.w3.org/2000/svg"><g><path d="m440.512 162.44c1.339-64.193-61.276-112.059-123.38-93.47-19.189-40.597-60.254-68.97-108.61-68.97-64.68 0-117.58 51.45-119.92 115.57-85.041 18.472-118.608 125.323-55.28 188.62 21.15 21.16 49.27 32.81 79.2 32.81h16.541c1.83 0 3.514-1.001 4.39-2.607 20.947-38.413 5.106-9.369 80.928-148.373 10.606-19.402 32.922-28.944 54.02-23.52 21.24 5.39 36.12 24.52 36.12 46.5v59c0 2.761 2.239 5 5 5h43c30.761 0 53.247 28.519 46.958 57.938-.667 3.119 1.689 6.062 4.878 6.062h19.131c48.832 0 89.451-39.956 89.029-88.786-.378-43.883-32.442-78.552-72.005-85.774z"/><path d="m366.572 328.66-96 176c-2.86 5.23-8.3 8.34-14.05 8.34-8.815 0-16-7.154-16-16v-96h-80c-12.107 0-19.864-12.979-14.05-23.66l96-176c3.51-6.42 10.92-9.65 18-7.84 7.09 1.8 12.05 8.19 12.05 15.5v96h80c12.107 0 19.864 12.979 14.05 23.66z"/></g></svg>