<svg id="Layer_1" enable-background="new 0 0 512 512" viewBox="0 0 512 512" width="512" xmlns="http://www.w3.org/2000/svg"><g><path d="m112 337h312c48.52 0 88-39.48 88-88 0-43.06-31.09-79-72.01-86.54 1.293-63.285-60.26-112.244-123.37-93.46-19.108-40.448-60.069-69-108.62-69-64.68 0-117.58 51.44-119.92 115.56-51.031 11.108-88.08 56.453-88.08 109.44 0 61.76 50.24 112 112 112z"/><path d="m496 352c-43.113 0-44.698 16-80 16-35.166 0-36.902-16-80.01-16-43.114 0-44.697 16-80 16-34.771 0-37.212-16-79.99-16-18.92 0-30.469 3.314-39.27 6.556-8.292 3.054-12.539 12.252-9.484 20.544s12.251 12.538 20.544 9.484c7.47-2.751 15.126-4.584 28.21-4.584 35.168 0 36.832 16 79.99 16 43.114 0 44.697-16 80-16 35.174 0 36.844 16 80.01 16 43.114 0 44.697-16 80-16 8.836 0 16-7.164 16-16s-7.164-16-16-16z"/><path d="m16 384c30.5 0 33.564 10.824 61.781 14.813 8.77 1.235 16.847-4.871 18.082-13.604 1.236-8.75-4.854-16.845-13.604-18.082-21.738-3.071-29.269-15.127-66.259-15.127-8.836 0-16 7.164-16 16s7.164 16 16 16z"/><path d="m496 408c-6.932 0-13.181.431-19.105 1.316-8.739 1.306-14.765 9.45-13.459 18.189 1.308 8.751 9.459 14.762 18.189 13.459 4.341-.649 9.043-.964 14.375-.964 8.836 0 16-7.164 16-16s-7.164-16-16-16z"/><path d="m416 456c11.078 0 17.248-8.201 17.003-16.483-.262-8.833-7.618-15.755-16.467-15.52-30.924.948-36.291-13.569-71.559-15.727-8.823-.542-16.408 6.173-16.947 14.993s6.173 16.408 14.993 16.947c27.859 1.704 32.866 15.79 72.977 15.79z"/><path d="m16 440c35.166 0 36.887 16 80 16 43.114 0 44.697-16 80-16 35.168 0 36.832 16 79.99 16 11.765 0 21.604-1.221 30.965-3.843 8.509-2.383 13.476-11.213 11.092-19.722-2.383-8.51-11.214-13.474-19.722-11.092-6.473 1.813-13.57 2.657-22.335 2.657-34.771 0-37.212-16-79.99-16-43.114 0-44.697 16-80 16-35.166 0-36.887-16-80-16-8.836 0-16 7.164-16 16s7.164 16 16 16z"/><path d="m496 464c-43.114 0-44.697 16-80 16-35.166 0-36.902-16-80.01-16-40.48 0-45.018 14.271-73.654 15.834-8.514.363-15.301 7.381-15.301 15.985 0 9.162 7.695 16.468 16.854 15.978 35.746-1.9 39.184-15.797 72.101-15.797 35.174 0 36.844 16 80.01 16 43.114 0 44.697-16 80-16 8.836 0 16-7.164 16-16s-7.164-16-16-16z"/><path d="m204.326 467.159c-8.49-2.126-17.755-3.159-28.326-3.159-43.114 0-44.697 16-80 16-35.165 0-36.887-16-80-16-8.836 0-16 7.164-16 16s7.164 16 16 16c35.166 0 36.887 16 80 16s44.698-16 80-16c8.026 0 14.557.699 20.554 2.201 8.569 2.147 17.261-3.062 19.407-11.635 2.146-8.571-3.063-17.26-11.635-19.407z"/></g></svg>