<svg id="Layer_1" enable-background="new 0 0 513.003 513.003" height="512" viewBox="0 0 513.003 513.003" width="512" xmlns="http://www.w3.org/2000/svg"><g><path d="m512.502 249c0-43.06-31.09-79-72.01-86.54 1.293-63.285-60.26-112.244-123.37-93.46-19.108-40.448-60.069-69-108.62-69-64.68 0-117.58 51.44-119.92 115.56-51.031 11.108-88.08 56.453-88.08 109.44 0 61.76 50.24 112 112 112h312c48.52 0 88-39.48 88-88z"/><path d="m351.657 362.689c-7.902-3.951-17.515-.749-21.466 7.156l-32 64c-5.356 10.712 2.54 23.159 14.299 23.159 5.869 0 11.52-3.242 14.323-8.848l32-64c3.951-7.904.748-17.515-7.156-21.467z"/><path d="m495.657 362.689c-7.903-3.951-17.515-.749-21.466 7.156l-32 64c-5.356 10.712 2.54 23.159 14.299 23.159 5.869 0 11.52-3.242 14.323-8.848l32-64c3.951-7.904.748-17.515-7.156-21.467z"/><path d="m207.657 362.689c-7.902-3.951-17.515-.749-21.466 7.156l-32 64c-5.356 10.712 2.54 23.159 14.299 23.159 5.869 0 11.52-3.242 14.323-8.848l32-64c3.951-7.904.748-17.515-7.156-21.467z"/><path d="m63.657 362.689c-7.902-3.951-17.515-.749-21.466 7.156l-32 64c-5.356 10.712 2.54 23.159 14.299 23.159 5.869 0 11.52-3.242 14.323-8.848l32-64c3.951-7.904.748-17.515-7.156-21.467z"/><path d="m255.657 418.689c-7.903-3.951-17.515-.748-21.466 7.156l-32 64c-5.356 10.712 2.54 23.159 14.299 23.159 5.869 0 11.52-3.242 14.323-8.848l32-64c3.951-7.904.748-17.515-7.156-21.467z"/><path d="m399.657 418.689c-7.903-3.951-17.515-.748-21.466 7.156l-32 64c-5.356 10.712 2.54 23.159 14.299 23.159 5.869 0 11.52-3.242 14.323-8.848l32-64c3.951-7.904.748-17.515-7.156-21.467z"/><path d="m111.657 418.689c-7.903-3.951-17.515-.748-21.466 7.156l-32 64c-5.356 10.712 2.54 23.159 14.299 23.159 5.869 0 11.52-3.242 14.323-8.848l32-64c3.951-7.904.748-17.515-7.156-21.467z"/></g></svg>