<svg id="Layer_1" enable-background="new 0 0 512 512" viewBox="0 0 512 512" width="512" xmlns="http://www.w3.org/2000/svg"><g><path d="m446 197.13c0-59.753-57.124-102.292-113.73-86.18-18.129-37.341-56.103-62.95-100.27-62.95-59.66 0-108.52 47.18-111.21 106.19-55.263 12.6-90.284 67.546-78.626 122.735.805 3.809 5.417 5.306 8.287 2.677 18.306-16.769 42.879-25.547 68.323-23.59 1.721.132 3.395-.651 4.39-2.061 6.488-9.189 14.399-17.397 23.417-24.181 63.659-47.887 156.005-12.625 171.578 65.186.322 1.611 1.437 2.961 2.959 3.581 25.729 10.47 46.661 31.34 56.951 57.868.743 1.917 2.592 3.175 4.648 3.175h46.389c44.913 0 82.17-35.751 82.884-80.658.648-40.766-28.296-74.373-65.99-81.792z"/><path d="m287.976 323.208c3.99-44.956-31.448-83.208-76.176-83.208-34.515 0-63.687 22.834-73.203 54.2-43.5-22.291-94.324 15.546-84.468 64.043-32.262 0-54.129 25.084-54.129 52.878 0 29.228 23.73 52.879 52.95 52.879h229.45c38.972 0 70.6-31.547 70.6-70.505 0-37.065-28.64-67.448-65.024-70.287z"/></g></svg>