<svg id="Layer_1" enable-background="new 0 0 513 513" viewBox="0 0 513 513" width="512" xmlns="http://www.w3.org/2000/svg"><g><path d="m440.49 162.46c1.292-63.268-60.259-112.244-123.37-93.46-19.108-40.448-60.069-69-108.62-69-64.68 0-117.58 51.44-119.92 115.56-51.03 11.108-88.08 56.453-88.08 109.44 0 61.76 50.24 112 112 112h312c48.52 0 88-39.48 88-88 0-43.06-31.09-79-72.01-86.54z"/><circle cx="256.5" cy="385" r="16"/><circle cx="192.5" cy="441" r="16"/><circle cx="64.5" cy="441" r="16"/><circle cx="320.5" cy="441" r="16"/><circle cx="448.5" cy="441" r="16"/><circle cx="384.5" cy="385" r="16"/><circle cx="128.5" cy="385" r="16"/><circle cx="256.5" cy="497" r="16"/><circle cx="384.5" cy="497" r="16"/><circle cx="128.5" cy="497" r="16"/></g></svg>