<svg id="Layer_1" enable-background="new 0 0 511.998 511.998" viewBox="0 0 511.998 511.998" width="512" xmlns="http://www.w3.org/2000/svg"><g><path d="m255.999 96.23c-70.52 0-127.89 57.37-127.89 127.88 0 70.52 57.37 127.89 127.89 127.89s127.89-57.37 127.89-127.89c0-70.51-57.37-127.88-127.89-127.88z"/><path d="m255.999 72c8.837 0 16-7.164 16-16v-40c0-8.836-7.163-16-16-16-8.836 0-16 7.164-16 16v40c0 8.836 7.163 16 16 16z"/><path d="m463.999 208h-40c-8.837 0-16 7.164-16 16s7.163 16 16 16h40c8.837 0 16-7.164 16-16s-7.163-16-16-16z"/><path d="m103.999 224c0-8.836-7.164-16-16-16h-40c-8.836 0-16 7.164-16 16s7.164 16 16 16h40c8.836 0 16-7.164 16-16z"/><path d="m386.106 331.48c-6.248-6.248-16.379-6.248-22.627 0-6.249 6.249-6.249 16.379 0 22.628l28.284 28.284c3.124 3.124 7.219 4.686 11.313 4.686 14.127 0 21.422-17.206 11.313-27.314z"/><path d="m125.891 116.52c6.249 6.248 16.379 6.248 22.628 0 6.248-6.249 6.248-16.379 0-22.628l-28.284-28.284c-6.249-6.248-16.379-6.248-22.628 0-6.248 6.249-6.248 16.379 0 22.628z"/><path d="m374.793 121.206c4.095 0 8.189-1.562 11.313-4.686l28.284-28.284c6.249-6.249 6.249-16.379 0-22.628-6.248-6.248-16.379-6.248-22.627 0l-28.284 28.284c-10.109 10.109-2.812 27.314 11.314 27.314z"/><path d="m125.891 331.48-28.284 28.284c-6.248 6.249-6.248 16.379 0 22.628 6.249 6.248 16.379 6.248 22.628 0l28.284-28.284c6.248-6.249 6.248-16.379 0-22.628-6.249-6.248-16.379-6.248-22.628 0z"/><path d="m284.685 444.687-12.687 12.686v-65.373c0-8.836-7.163-16-16-16-8.836 0-16 7.164-16 16v65.373l-12.687-12.686c-6.248-6.249-16.379-6.249-22.627 0-6.249 6.248-6.249 16.379 0 22.627 42.997 42.997 41.136 41.789 45.191 43.468 4.419 1.83 9.438 1.587 13.663-.67 2.976-1.595.207.769 43.773-42.797 6.249-6.248 6.249-16.379 0-22.627-6.247-6.25-16.378-6.25-22.626-.001z"/></g></svg>