<?xml version="1.0" encoding="iso-8859-1"?>
<!-- Generator: Adobe Illustrator 19.0.0, SVG Export Plug-In . SVG Version: 6.00 Build 0)  -->
<svg version="1.1" id="Capa_1" xmlns="http://www.w3.org/2000/svg" xmlns:xlink="http://www.w3.org/1999/xlink" x="0px" y="0px"
	 viewBox="0 0 512 512" style="enable-background:new 0 0 512 512;" xml:space="preserve">
<g>
	<g>
		<path d="M433.342,253.443c18.736-11.952,30.621-32.912,30.621-55.711c0-36.398-29.612-66.009-66.009-66.009
			c-26.224,0-49.586,15.652-60.102,38.761c-5.569-6.403-11.672-12.373-18.267-17.826c-27.79-22.975-62.988-35.629-99.107-35.629
			c-49.865,0-97.076,24.171-126.292,64.658c-2.425,3.359-1.667,8.05,1.694,10.475c3.359,2.426,8.05,1.668,10.475-1.694
			c26.403-36.588,69.065-58.432,114.123-58.432c66.641,0,124.604,47.326,137.826,112.53c0.777,3.834,4.365,6.431,8.255,5.957
			c3.301-0.399,6.645-0.602,9.934-0.602c45.046,0,81.694,36.647,81.694,81.693c0,45.046-36.648,81.693-81.694,81.693h-35.457
			c-4.145,0-7.503,3.358-7.503,7.503s3.358,7.503,7.503,7.503h35.457c53.321,0,96.7-43.379,96.7-96.699
			C473.192,299.526,457.477,271.043,433.342,253.443z M376.492,234.916c-1.646,0-3.301,0.043-4.958,0.128
			c-4.508-18.11-12.292-35.253-22.833-50.568c5.918-22.044,26.155-37.747,49.253-37.747c28.124,0,51.003,22.88,51.003,51.003
			c0,20.278-12.161,38.68-30.563,46.741C405.71,238.35,391.494,234.916,376.492,234.916z"/>
	</g>
</g>
<g>
	<g>
		<path d="M297.268,413.308H77.237c-34.314,0-62.231-27.917-62.231-62.232c0-17.248,8.275-35.193,21.238-46.535
			C46.488,295.579,59.529,290.07,73.099,289c0.013-0.001,0.025-0.003,0.037-0.004c1.357-0.089,2.721-0.15,4.1-0.15
			c15.309,0,30.022,5.608,41.429,15.793c3.092,2.76,7.835,2.49,10.594-0.6c2.76-3.091,2.491-7.834-0.6-10.594
			c-13.509-12.062-30.754-18.938-48.809-19.546c-0.004-0.409-0.01-0.82-0.01-1.227c0-15.307,2.441-30.354,7.258-44.72
			c1.317-3.93-0.801-8.182-4.73-9.499c-3.933-1.316-8.182,0.8-9.499,4.73c-5.332,15.908-8.035,32.559-8.035,49.49
			c0,0.722,0.005,1.446,0.016,2.174c-21.811,3.531-43.347,18.59-54.47,37.887C3.687,324.347,0,337.657,0,351.077
			c0,42.589,34.648,77.238,77.237,77.238h220.03c4.145,0,7.503-3.358,7.503-7.503S301.411,413.308,297.268,413.308z"/>
	</g>
</g>
<g>
	<g>
		<path d="M397.953,83.685c-4.145,0-7.503,3.358-7.503,7.503v25.01c0,4.145,3.358,7.503,7.503,7.503s7.503-3.358,7.503-7.503v-25.01
			C405.456,87.044,402.098,83.685,397.953,83.685z"/>
	</g>
</g>
<g>
	<g>
		<path d="M345.606,134.775l-17.685-17.685c-2.931-2.929-7.681-2.929-10.611,0c-2.93,2.931-2.93,7.681,0,10.611l17.684,17.685
			c1.466,1.465,3.386,2.197,5.306,2.197c1.92,0,3.841-0.732,5.306-2.197C348.537,142.455,348.537,137.705,345.606,134.775z"/>
	</g>
</g>
<g>
	<g>
		<path d="M478.599,267.765l-17.686-17.685c-2.931-2.929-7.681-2.929-10.611,0c-2.93,2.931-2.93,7.681,0,10.611l17.685,17.685
			c1.466,1.465,3.386,2.197,5.306,2.197s3.841-0.732,5.306-2.197C481.529,275.446,481.529,270.696,478.599,267.765z"/>
	</g>
</g>
<g>
	<g>
		<path d="M504.497,190.229h-25.01c-4.145,0-7.503,3.358-7.503,7.503s3.358,7.503,7.503,7.503h25.01
			c4.145,0,7.503-3.358,7.503-7.503S508.642,190.229,504.497,190.229z"/>
	</g>
</g>
<g>
	<g>
		<path d="M478.598,117.089c-2.931-2.929-7.681-2.929-10.611,0l-17.685,17.685c-2.93,2.931-2.93,7.681,0,10.611
			c1.465,1.465,3.385,2.197,5.305,2.197s3.841-0.732,5.306-2.197l17.685-17.685C481.528,124.769,481.528,120.019,478.598,117.089z"
			/>
	</g>
</g>
<g>
</g>
<g>
</g>
<g>
</g>
<g>
</g>
<g>
</g>
<g>
</g>
<g>
</g>
<g>
</g>
<g>
</g>
<g>
</g>
<g>
</g>
<g>
</g>
<g>
</g>
<g>
</g>
<g>
</g>
</svg>
