<?xml version="1.0" encoding="iso-8859-1"?>
<!-- Generator: Adobe Illustrator 19.0.0, SVG Export Plug-In . SVG Version: 6.00 Build 0)  -->
<svg version="1.1" id="Capa_1" xmlns="http://www.w3.org/2000/svg" xmlns:xlink="http://www.w3.org/1999/xlink" x="0px" y="0px"
	 viewBox="0 0 512 512" style="enable-background:new 0 0 512 512;" xml:space="preserve">
<g>
	<g>
		<path d="M332.316,358.614c-78.138-38.858-126.678-117.171-126.678-204.379c0-50.054,15.902-97.556,45.985-137.373
			c2.563-3.392,2.841-7.96,0.709-11.637c-2.122-3.66-6.205-5.673-10.398-5.14C184.47,7.439,130.544,34.536,90.091,76.383
			c-40.548,41.946-65.805,96.932-71.119,154.831c-0.378,4.129,2.662,7.783,6.79,8.162c4.13,0.379,7.783-2.662,8.162-6.79
			C43.863,124.29,126.953,35.049,233.325,16.563c-27.971,40.575-42.7,87.945-42.7,137.671c0,46.115,12.968,90.993,37.502,129.785
			c23.871,37.744,57.588,68.186,97.505,88.037c1.074,0.534,2.214,0.787,3.337,0.787c2.76,0,5.416-1.527,6.726-4.165
			C337.542,364.966,336.028,360.46,332.316,358.614z"/>
	</g>
</g>
<g>
	<g>
		<path d="M491.206,381.919c-2.411-3.503-6.662-5.209-10.826-4.341c-15.214,3.165-30.902,4.77-46.628,4.77
			c-18.724,0-37.343-2.273-55.336-6.755c-4.022-1.003-8.097,1.445-9.099,5.469c-1.002,4.023,1.447,8.097,5.47,9.099
			c19.18,4.778,39.019,7.201,58.966,7.201c13.124,0,26.228-1.05,39.086-3.127c-45.395,64.539-118.617,102.751-197.945,102.751
			c-123.921,0-227.353-92.771-240.592-215.794c-0.444-4.123-4.148-7.1-8.267-6.661c-4.122,0.444-7.104,4.145-6.661,8.267
			c6.741,62.638,36.307,120.5,83.254,162.927C149.919,488.463,211.097,512,274.894,512c88.015,0,168.951-44.29,216.503-118.475
			C493.681,389.962,493.606,385.406,491.206,381.919z"/>
	</g>
</g>
<g>
</g>
<g>
</g>
<g>
</g>
<g>
</g>
<g>
</g>
<g>
</g>
<g>
</g>
<g>
</g>
<g>
</g>
<g>
</g>
<g>
</g>
<g>
</g>
<g>
</g>
<g>
</g>
<g>
</g>
</svg>
