<?xml version="1.0" encoding="iso-8859-1"?>
<!-- Generator: Adobe Illustrator 17.1.0, SVG Export Plug-In . SVG Version: 6.00 Build 0)  -->
<!DOCTYPE svg PUBLIC "-//W3C//DTD SVG 1.1//EN" "http://www.w3.org/Graphics/SVG/1.1/DTD/svg11.dtd">
<svg version="1.1" id="Capa_1" xmlns="http://www.w3.org/2000/svg" xmlns:xlink="http://www.w3.org/1999/xlink" x="0px" y="0px"
	 viewBox="0 0 192.333 192.333" style="enable-background:new 0 0 192.333 192.333;" xml:space="preserve">
<path d="M189.833,174.75H2.5c-1.381,0-2.5-1.119-2.5-2.5v-10.667c0-1.381,1.119-2.5,2.5-2.5h3.042V90.417H2.5
	c-1.381,0-2.5-1.119-2.5-2.5s1.119-2.5,2.5-2.5h49.727V20.083c0-1.381,1.119-2.5,2.5-2.5h82.231c1.381,0,2.5,1.119,2.5,2.5v65.333
	h50.375c1.381,0,2.5,1.119,2.5,2.5s-1.119,2.5-2.5,2.5h-2.958v68.667h2.958c1.381,0,2.5,1.119,2.5,2.5v10.667
	C192.333,173.631,191.214,174.75,189.833,174.75z M5,169.75h182.333v-5.667H5V169.75z M173.375,159.083h8.5V90.417h-8.5V159.083z
	 M156.782,159.083h11.593V90.417h-11.593V159.083z M140.189,159.083h11.593V90.417h-11.593V159.083z M123.597,159.083h10.861V90.417
	h-10.861V159.083z M107.004,159.083h11.593V90.417h-11.593V159.083z M90.412,159.083h11.592V90.417H90.412V159.083z M73.819,159.083
	h11.593V90.417H73.819V159.083z M57.227,159.083h11.593V90.417H57.227V159.083z M40.634,159.083h11.592V90.417H40.634V159.083z
	 M24.042,159.083h11.593V90.417H24.042V159.083z M10.542,159.083h8.5V90.417h-8.5V159.083z M128.676,85.417h5.782V22.583H57.227
	v62.833h5.783v-54.5c0-1.381,1.119-2.5,2.5-2.5h25.667c1.381,0,2.5,1.119,2.5,2.5v54.5h4.333v-54.5c0-1.381,1.119-2.5,2.5-2.5
	h25.667c1.381,0,2.5,1.119,2.5,2.5V85.417z M103.009,85.388h20.667V33.417h-20.667V85.388z M68.009,85.388h20.667V33.417H68.009
	V85.388z"/>
<g>
</g>
<g>
</g>
<g>
</g>
<g>
</g>
<g>
</g>
<g>
</g>
<g>
</g>
<g>
</g>
<g>
</g>
<g>
</g>
<g>
</g>
<g>
</g>
<g>
</g>
<g>
</g>
<g>
</g>
</svg>
