<svg width="500" height="500" viewBox="0 0 500 500" fill="none" xmlns="http://www.w3.org/2000/svg">
<path d="M42.696 25.8906H457.304C466.585 25.8906 474.109 33.4147 474.109 42.696V457.304C474.109 466.585 466.585 474.109 457.304 474.109H42.696C33.4146 474.109 25.8906 466.585 25.8906 457.304V42.696C25.8906 33.4147 33.4146 25.8906 42.696 25.8906Z" fill="#EFC08F" stroke="#EFC08F"/>
<path d="M176.492 438.367L176.492 438.367L175.614 301.077C175.614 301.077 175.614 301.077 175.614 301.077C175.606 299.782 176.113 298.538 177.022 297.616C177.931 296.696 179.168 296.173 180.462 296.164H180.498H180.498C181.788 296.164 183.025 296.673 183.94 297.582C184.855 298.49 185.374 299.724 185.383 301.013L186.26 438.303L186.26 438.303C186.265 438.945 186.143 439.581 185.902 440.175C185.66 440.769 185.304 441.31 184.854 441.767C184.404 442.224 183.868 442.587 183.277 442.837C182.687 443.086 182.053 443.217 181.412 443.222C181.412 443.222 181.411 443.222 181.41 443.222L181.376 443.222C180.086 443.222 178.848 442.711 177.933 441.801C177.017 440.892 176.499 439.657 176.492 438.367Z" fill="#2F3A5A" stroke="#EFC08F"/>
<path d="M206.737 339.97L206.737 339.97L181.129 309.416L180.723 308.932L180.345 309.438L158.685 338.435C158.685 338.435 158.684 338.435 158.684 338.436C157.907 339.472 156.75 340.156 155.468 340.339C154.186 340.523 152.883 340.189 151.847 339.412C150.81 338.635 150.125 337.478 149.942 336.195C149.759 334.913 150.092 333.611 150.87 332.574L150.87 332.573L176.591 298.117C177.032 297.528 177.601 297.046 178.255 296.708C178.909 296.37 179.631 296.183 180.367 296.163L180.367 296.163L180.375 296.163C181.111 296.13 181.845 296.271 182.517 296.572C183.189 296.874 183.781 297.329 184.246 297.901L184.245 297.901L184.25 297.907L214.241 333.678L214.242 333.678C214.84 334.39 215.222 335.258 215.343 336.18C215.465 337.102 215.321 338.039 214.928 338.882C214.535 339.725 213.909 340.438 213.125 340.937C212.341 341.437 211.43 341.702 210.5 341.702L210.233 341.702L210.226 341.712C209.601 341.679 208.987 341.526 208.419 341.261C207.771 340.959 207.197 340.518 206.737 339.97Z" fill="#2F3A5A" stroke="#EFC08F"/>
<path d="M100.265 438.367L100.265 438.367L99.3874 301.077C99.3874 301.077 99.3874 301.077 99.3874 301.077C99.3797 299.782 99.8861 298.538 100.796 297.616C101.705 296.696 102.942 296.173 104.236 296.164H104.272H104.272C105.561 296.164 106.799 296.673 107.714 297.582C108.629 298.49 109.147 299.724 109.156 301.013L110.034 438.303L110.034 438.303C110.038 438.945 109.916 439.582 109.675 440.176C109.433 440.771 109.077 441.312 108.626 441.769C108.175 442.225 107.638 442.589 107.047 442.838C106.456 443.087 105.822 443.217 105.181 443.222C105.18 443.222 105.18 443.222 105.179 443.222L105.149 443.222C103.859 443.222 102.621 442.711 101.706 441.801C100.791 440.892 100.273 439.657 100.265 438.367Z" fill="#2F3A5A" stroke="#EFC08F"/>
<path d="M133.802 341.697C133.245 341.645 132.701 341.498 132.192 341.261C131.544 340.959 130.97 340.518 130.511 339.97L130.511 339.97L104.897 309.416L104.491 308.932L104.113 309.438L82.4633 338.435C82.4632 338.435 82.463 338.435 82.4629 338.436C82.0781 338.948 81.5961 339.38 81.0444 339.707C80.4925 340.034 79.8816 340.249 79.2466 340.339C78.6116 340.43 77.965 340.395 77.3436 340.236C76.7222 340.077 76.1383 339.797 75.6252 339.412C75.112 339.027 74.6797 338.545 74.3529 337.993C74.0261 337.441 73.8112 336.83 73.7205 336.195C73.6298 335.56 73.6651 334.914 73.8243 334.293C73.9834 333.671 74.2635 333.087 74.6483 332.574L74.649 332.573L100.375 298.117C100.375 298.117 100.375 298.117 100.375 298.117C100.817 297.528 101.385 297.046 102.039 296.708C102.693 296.37 103.415 296.183 104.151 296.163L104.151 296.163L104.158 296.163C104.898 296.132 105.636 296.273 106.313 296.575C106.99 296.877 107.587 297.332 108.059 297.904L108.061 297.907L137.998 333.672L137.999 333.673C138.596 334.384 138.979 335.252 139.1 336.173C139.222 337.095 139.078 338.032 138.686 338.874C138.294 339.717 137.669 340.43 136.885 340.93C136.102 341.43 135.192 341.696 134.262 341.697L133.802 341.697Z" fill="#2F3A5A" stroke="#EFC08F"/>
<path d="M214.832 25.8906H286.132V128.037H214.832V25.8906Z" fill="#E1E6E9" stroke="#EFC08F"/>
<path d="M413.305 342.043H304.556C303.256 342.043 302.011 341.535 301.094 340.633C300.177 339.732 299.663 338.512 299.663 337.241C299.663 335.97 300.177 334.75 301.094 333.848C302.011 332.947 303.256 332.439 304.556 332.439H413.305C414.606 332.439 415.851 332.947 416.768 333.848C417.685 334.75 418.198 335.97 418.198 337.241C418.198 338.512 417.685 339.732 416.768 340.633C415.851 341.535 414.606 342.043 413.305 342.043Z" fill="#A67F74" stroke="#EFC08F"/>
<path d="M413.305 374.819H304.556C303.27 374.819 302.029 374.271 301.109 373.284C300.187 372.295 299.663 370.947 299.663 369.535C299.663 368.123 300.187 366.775 301.109 365.786C302.029 364.799 303.27 364.251 304.556 364.251H413.305C414.591 364.251 415.832 364.799 416.753 365.786C417.675 366.775 418.198 368.123 418.198 369.535C418.198 370.947 417.675 372.295 416.753 373.284C415.832 374.271 414.591 374.819 413.305 374.819Z" fill="#A67F74" stroke="#EFC08F"/>
<path d="M413.332 407.594H354.657C353.379 407.594 352.145 407.047 351.229 406.06C350.312 405.072 349.791 403.723 349.791 402.31C349.791 400.897 350.312 399.549 351.229 398.56C352.145 397.573 353.379 397.026 354.657 397.026H413.332C414.61 397.026 415.844 397.573 416.76 398.56C417.677 399.549 418.198 400.897 418.198 402.31C418.198 403.723 417.677 405.072 416.76 406.06C415.844 407.047 414.61 407.594 413.332 407.594Z" fill="#A67F74" stroke="#EFC08F"/>
</svg>
