<svg id="Capa_1" enable-background="new 0 0 512 512" height="512" viewBox="0 0 512 512" width="512" xmlns="http://www.w3.org/2000/svg"><g><path d="m504.5 59.94h-2.07c-19.023 0-34.5 15.477-34.5 34.5v167.41h-45.655l-7.06-52.197h11.365c12.155 0 22.045-9.89 22.045-22.046 0-12.155-9.89-22.045-22.045-22.045h-105.585c-3.418-30.131-27.375-54.11-57.495-57.565v-1.125c0-4.143-3.357-7.5-7.5-7.5s-7.5 3.357-7.5 7.5v1.125c-30.12 3.455-54.077 27.434-57.495 57.565h-21.14c-4.143 0-7.5 3.357-7.5 7.5s3.357 7.5 7.5 7.5h256.715c3.885 0 7.045 3.16 7.045 7.045s-3.16 7.046-7.045 7.046h-341.16c-3.885 0-7.045-3.161-7.045-7.046s3.16-7.045 7.045-7.045h55.45c4.143 0 7.5-3.357 7.5-7.5s-3.357-7.5-7.5-7.5h-55.45c-12.155 0-22.045 9.89-22.045 22.045 0 12.156 9.89 22.046 22.045 22.046h11.365l-7.06 52.197h-45.655v-167.41c0-19.023-15.477-34.5-34.5-34.5h-2.07c-4.143 0-7.5 3.357-7.5 7.5v377.12c0 4.143 3.357 7.5 7.5 7.5h29.07c4.143 0 7.5-3.357 7.5-7.5v-140.88h39.998l-17.273 127.707c-.005.041-.011.083-.016.124-.616 5.213 1.03 10.452 4.517 14.375 3.487 3.924 8.497 6.174 13.746 6.174 9.02 0 16.629-6.437 18.131-15.319l23.606-126.075c.197.758.301 1.551.301 2.365v70.707c0 4.143 3.357 7.5 7.5 7.5s7.5-3.357 7.5-7.5v-70.708c0-8.758-4.635-16.576-11.834-20.879l2.427-12.964c13.877 5.21 23.357 18.486 23.357 33.883v123.99h-13.95v-21.721c0-4.143-3.357-7.5-7.5-7.5s-7.5 3.357-7.5 7.5v29.221c0 4.143 3.357 7.5 7.5 7.5h28.95c4.143 0 7.5-3.357 7.5-7.5v-131.49c0-22.692-14.567-42.129-35.566-48.788l10.229-54.63h254.385l30.251 223.665c.137 1.291-.464 2.185-.837 2.604-.378.425-1.209 1.138-2.534 1.138-1.668 0-3.074-1.194-3.344-2.84-.009-.056-.02-.111-.029-.167l-37.965-202.757c-.762-4.072-4.688-6.754-8.752-5.992-4.072.763-6.754 4.681-5.992 8.752l5.66 30.228c-21 6.659-35.566 26.095-35.566 48.788v131.489c0 4.143 3.357 7.5 7.5 7.5h28.95c4.143 0 7.5-3.357 7.5-7.5v-131.53c0-.814.104-1.607.301-2.365l23.606 126.075c1.502 8.883 9.111 15.319 18.131 15.319 5.249 0 10.259-2.25 13.746-6.174 3.486-3.923 5.133-9.162 4.517-14.375-.005-.041-.011-.083-.016-.124l-17.273-127.706h39.998v140.88c0 4.143 3.357 7.5 7.5 7.5h29.07c4.143 0 7.5-3.357 7.5-7.5v-377.12c0-4.142-3.357-7.5-7.5-7.5zm-248.5 62.614c25.285 0 46.278 18.708 49.877 43.008h-99.755c3.6-24.3 24.593-43.008 49.878-43.008zm-226.93-28.114v167.41h-14.07v-186.141c8.119 2.357 14.07 9.862 14.07 18.731zm0 342.62h-14.07v-133.38h14.07zm-14.07-148.38v-11.83h72.697l-1.6 11.83zm73.415 145.373c-.01.056-.021.111-.029.167-.27 1.646-1.676 2.84-3.344 2.84-1.325 0-2.156-.713-2.534-1.138-.373-.42-.974-1.313-.837-2.604l30.251-223.665h18.51zm281.505-121.023v124.03h-13.95v-123.99c0-15.397 9.479-28.673 23.357-33.883l2.427 12.964c-7.199 4.303-11.834 12.122-11.834 20.879zm113.01-218.59c0-8.869 5.951-16.374 14.07-18.731v186.141h-14.07zm-58.627 182.41h72.697v11.83h-71.096zm58.627 160.21v-133.38h14.07v133.38z"/></g></svg>