<svg viewBox="0 0 512 512" fill="none" xmlns="http://www.w3.org/2000/svg">
<path d="M378.662 472.412C378.662 490.637 363.888 505.411 345.663 505.411C327.438 505.411 312.664 490.637 312.664 472.412C312.664 454.187 327.438 439.413 345.663 439.413C363.888 439.413 378.662 454.187 378.662 472.412Z" fill="#F6CB43" stroke="#FFEAA6"/>
<path d="M512 462.13C512 467.806 507.395 472.411 501.719 472.411H189.615C183.928 472.411 179.323 467.806 179.323 462.13V462.089C179.323 454.321 182.218 446.832 187.451 441.104C200.287 427.042 226.783 396.456 255.906 353.652C270.215 332.647 285.153 308.685 299.4 282.291C316.573 250.531 332.747 215.247 345.665 177.336C397.153 328.443 476.282 412.619 503.221 440.455C506.044 443.36 508.228 446.76 509.721 450.437C511.217 454.115 512 458.081 512 462.13Z" fill="#DAD0CD"/>
<path d="M345.663 183.188C341.395 183.188 337.937 179.729 337.937 175.462V13.815C337.937 9.548 341.396 6.089 345.663 6.089C349.931 6.089 353.389 9.548 353.389 13.815V175.461C353.389 179.728 349.931 183.188 345.663 183.188Z" fill="#565656"/>
<path d="M357.022 206.304H334.305C331.699 206.304 329.586 204.191 329.586 201.585V180.208C329.586 171.329 336.784 164.13 345.664 164.13C354.543 164.13 361.742 171.328 361.742 180.208V201.585C361.741 204.191 359.628 206.304 357.022 206.304Z" fill="#6D6D6D"/>
<path d="M175.477 374.785C193.978 374.785 208.976 359.787 208.976 341.286C208.976 322.785 193.978 307.787 175.477 307.787C156.976 307.787 141.978 322.785 141.978 341.286C141.978 359.787 156.976 374.785 175.477 374.785Z" fill="#F6CB43"/>
<path d="M341.814 318.708H9.13794C9.13794 318.708 26.7749 310.291 51.4469 295.426C88.9459 272.824 142.711 235.315 175.481 189.822C211.692 240.105 261.583 274.73 297.372 295.426C320.994 309.076 338.476 316.679 341.814 318.708Z" fill="#F1EDED"/>
<path d="M341.814 318.708H9.13794C9.13794 318.708 26.7749 310.291 51.4469 295.426H297.372C320.994 309.076 338.476 316.679 341.814 318.708Z" fill="#F1EDED"/>
<path d="M175.477 178.644C171.209 178.644 167.751 175.185 167.751 170.918V13.815C167.751 9.548 171.21 6.089 175.477 6.089C179.745 6.089 183.203 9.548 183.203 13.815V170.918C183.203 175.185 179.744 178.644 175.477 178.644Z" fill="#565656"/>
<path d="M186.836 204.157H164.119C161.513 204.157 159.4 202.044 159.4 199.438V178.06C159.4 169.181 166.598 161.982 175.478 161.982C184.357 161.982 191.556 169.18 191.556 178.06V199.437C191.555 202.044 189.442 204.157 186.836 204.157Z" fill="#82807F"/>
<path d="M343.089 341.286H7.865C3.521 341.286 0 337.765 0 333.421V315.652C0 311.308 3.521 307.787 7.865 307.787H343.089C347.433 307.787 350.954 311.308 350.954 315.652V333.421C350.954 337.764 347.433 341.286 343.089 341.286Z" fill="#F1EDED"/>
</svg>
