<svg viewBox="0 0 512 512" fill="none" xmlns="http://www.w3.org/2000/svg" preserveAspectRatio="xMidYMid slice">
<path d="M197.332 0H37.332C16.7461 0 0 16.7461 0 37.332V133.332C0 153.922 16.7461 170.668 37.332 170.668H197.332C217.922 170.668 234.668 153.922 234.668 133.332V37.332C234.668 16.7461 217.922 0 197.332 0Z" fill="#F6CB43"/>
<path d="M197.332 213.332H37.332C16.7461 213.332 0 230.078 0 250.668V474.668C0 495.254 16.7461 512 37.332 512H197.332C217.922 512 234.668 495.254 234.668 474.668V250.668C234.668 230.078 217.922 213.332 197.332 213.332V213.332Z" fill="#F6CB43"/>
<path d="M474.668 341.332H314.668C294.078 341.332 277.332 358.078 277.332 378.668V474.668C277.332 495.254 294.078 512 314.668 512H474.668C495.254 512 512 495.254 512 474.668V378.668C512 358.078 495.254 341.332 474.668 341.332V341.332Z" fill="#F6CB43"/>
<path d="M474.668 0H314.668C294.078 0 277.332 16.7461 277.332 37.332V261.332C277.332 281.922 294.078 298.668 314.668 298.668H474.668C495.254 298.668 512 281.922 512 261.332V37.332C512 16.7461 495.254 0 474.668 0V0Z" fill="#F6CB43"/>
</svg>
